<svg version="1.1" viewBox="0.0 0.0 316.82152230971127 273.5196850393701" fill="none" stroke="none" stroke-linecap="square" stroke-miterlimit="10" xmlns:xlink="http://www.w3.org/1999/xlink" xmlns="http://www.w3.org/2000/svg"><clipPath id="p.0"><path d="m0 0l316.82153 0l0 273.51968l-316.82153 0l0 -273.51968z" clip-rule="nonzero"/></clipPath><g clip-path="url(#p.0)"><path fill="#ffffff" d="m0 0l316.82153 0l0 273.51968l-316.82153 0z" fill-rule="evenodd"/><path fill="#000000" fill-opacity="0.0" d="m5.123696 207.29745l0 -192.94489" fill-rule="evenodd"/><path stroke="#000000" stroke-width="2.0" stroke-linejoin="round" stroke-linecap="butt" d="m5.123696 207.29745l0 -180.94489" fill-rule="evenodd"/><path fill="#000000" stroke="#000000" stroke-width="2.0" stroke-linecap="butt" d="m8.42716 26.35257l-3.3034644 -9.076195l-3.303465 9.076195z" fill-rule="evenodd"/><path fill="#000000" fill-opacity="0.0" d="m4.262329 207.29556l311.81104 0.94488525" fill-rule="evenodd"/><path stroke="#000000" stroke-width="2.0" stroke-linejoin="round" stroke-linecap="butt" d="m4.2623286 207.29556l299.81107 0.90852356" fill-rule="evenodd"/><path fill="#000000" stroke="#000000" stroke-width="2.0" stroke-linecap="butt" d="m304.0634 211.50754l9.086182 -3.2759552l-9.066162 -3.3309479z" fill-rule="evenodd"/><path fill="#cc4125" d="m258.68512 44.5454l10.335144 -1.4269028l4.6097107 -8.979389l4.6097107 8.979389l10.335144 1.4269028l-7.4861755 6.976471l1.7777405 9.861263l-9.23642 -4.6676903l-9.23645 4.6676903l1.777771 -9.861263z" fill-rule="evenodd"/><path stroke="#000000" stroke-width="1.0" stroke-linejoin="round" stroke-linecap="butt" d="m258.68512 44.5454l10.335144 -1.4269028l4.6097107 -8.979389l4.6097107 8.979389l10.335144 1.4269028l-7.4861755 6.976471l1.7777405 9.861263l-9.23642 -4.6676903l-9.23645 4.6676903l1.777771 -9.861263z" fill-rule="evenodd"/><path fill="#d9d9d9" d="m76.321526 36.32288l0 0c0 -1.2060661 0.9777069 -2.183773 2.1837692 -2.183773l9.805687 0c0.5791702 0 1.1346207 0.23007584 1.5441589 0.6396141c0.40953827 0.40953445 0.6396103 0.9649849 0.6396103 1.5441589l0 8.7348175c0 1.2060661 -0.9777069 2.183773 -2.1837692 2.183773l-9.805687 0c-1.2060623 0 -2.1837692 -0.9777069 -2.1837692 -2.183773z" fill-rule="evenodd"/><path stroke="#000000" stroke-width="1.0" stroke-linejoin="round" stroke-linecap="butt" d="m76.321526 36.32288l0 0c0 -1.2060661 0.9777069 -2.183773 2.1837692 -2.183773l9.805687 0c0.5791702 0 1.1346207 0.23007584 1.5441589 0.6396141c0.40953827 0.40953445 0.6396103 0.9649849 0.6396103 1.5441589l0 8.7348175c0 1.2060661 -0.9777069 2.183773 -2.1837692 2.183773l-9.805687 0c-1.2060623 0 -2.1837692 -0.9777069 -2.1837692 -2.183773z" fill-rule="evenodd"/><path fill="#9fc5e8" d="m122.48688 150.95407l8.0 -13.102371l8.0 13.102371z" fill-rule="evenodd"/><path stroke="#000000" stroke-width="1.0" stroke-linejoin="round" stroke-linecap="butt" d="m122.48688 150.95407l8.0 -13.102371l8.0 13.102371z" fill-rule="evenodd"/><path fill="#7f6000" d="m93.52236 182.1693l10.908035 0l2.5459824 2.5459747l0 12.729614l0 0l-16.0 0l0 0l0 -12.729614z" fill-rule="evenodd"/><path stroke="#000000" stroke-width="1.0" stroke-linejoin="round" stroke-linecap="butt" d="m93.52236 182.1693l10.908035 0l2.5459824 2.5459747l0 12.729614l0 0l-16.0 0l0 0l0 -12.729614z" fill-rule="evenodd"/><path fill="#b6d7a8" d="m51.875328 158.59186l8.0 -7.637787l8.0 7.637787l-8.0 7.637802z" fill-rule="evenodd"/><path stroke="#000000" stroke-width="1.0" stroke-linejoin="round" stroke-linecap="butt" d="m51.875328 158.59186l8.0 -7.637787l8.0 7.637787l-8.0 7.637802z" fill-rule="evenodd"/><path fill="#d9d2e9" d="m30.070883 116.09327l7.999983 -5.8347397l7.9999847 5.8347397l-3.0557213 9.440811l-9.888523 0z" fill-rule="evenodd"/><path stroke="#000000" stroke-width="1.0" stroke-linejoin="round" stroke-linecap="butt" d="m30.070883 116.09327l7.999983 -5.8347397l7.9999847 5.8347397l-3.0557213 9.440811l-9.888523 0z" fill-rule="evenodd"/><path fill="#85200c" d="m28.279528 204.14568l3.275591 -13.102371l9.448818 0l3.275589 13.102371z" fill-rule="evenodd"/><path stroke="#000000" stroke-width="1.0" stroke-linejoin="round" stroke-linecap="butt" d="m28.279528 204.14568l3.275591 -13.102371l9.448818 0l3.275589 13.102371z" fill-rule="evenodd"/><path fill="#cfe2f3" d="m11.494751 172.91864l3.5433064 0l0 -3.5433044l7.0866146 0l0 3.5433044l3.5433064 0l0 8.188965l-3.5433064 0l0 3.5433197l-7.0866146 0l0 -3.5433197l-3.5433064 0z" fill-rule="evenodd"/><path stroke="#000000" stroke-width="1.0" stroke-linejoin="round" stroke-linecap="butt" d="m11.494751 172.91864l3.5433064 0l0 -3.5433044l7.0866146 0l0 3.5433044l3.5433064 0l0 8.188965l-3.5433064 0l0 3.5433197l-7.0866146 0l0 -3.5433197l-3.5433064 0z" fill-rule="evenodd"/><path fill="#f9cb9c" d="m7.6299214 179.99475l0 -15.275589l16.0 15.275589z" fill-rule="evenodd"/><path stroke="#000000" stroke-width="1.0" stroke-linejoin="round" stroke-linecap="butt" d="m7.6299214 179.99475l0 -15.275589l16.0 15.275589z" fill-rule="evenodd"/><path fill="#ffe599" d="m7.6286087 117.89764l0 0c0 -4.218239 3.5817223 -7.6377945 8.0 -7.6377945l0 0c2.1217327 0 4.156563 0.8046951 5.6568546 2.2370605c1.5002899 1.4323654 2.3431454 3.3750687 2.3431454 5.400734l0 0c0 4.218239 -3.5817223 7.6377945 -8.0 7.6377945l0 0c-4.4182777 0 -8.0 -3.4195557 -8.0 -7.6377945z" fill-rule="evenodd"/><path stroke="#000000" stroke-width="1.0" stroke-linejoin="round" stroke-linecap="butt" d="m7.6286087 117.89764l0 0c0 -4.218239 3.5817223 -7.6377945 8.0 -7.6377945l0 0c2.1217327 0 4.156563 0.8046951 5.6568546 2.2370605c1.5002899 1.4323654 2.3431454 3.3750687 2.3431454 5.400734l0 0c0 4.218239 -3.5817223 7.6377945 -8.0 7.6377945l0 0c-4.4182777 0 -8.0 -3.4195557 -8.0 -7.6377945z" fill-rule="evenodd"/><path fill="#000000" fill-opacity="0.0" d="m224.08661 54.09186l99.08661 0l0 27.244099l-99.08661 0z" fill-rule="evenodd"/><path fill="#000000" d="m236.09517 73.33186l0 -7.78125l2.375 0q1.140625 0 1.796875 0.546875q0.65625 0.53125 0.65625 1.453125q0 0.53125 -0.234375 0.921875q-0.234375 0.375 -0.640625 0.59375q-0.390625 0.203125 -0.90625 0.203125l0 -0.046875q0.5625 0 1.0 0.21875q0.4375 0.21875 0.703125 0.640625q0.265625 0.421875 0.265625 1.03125q0 0.671875 -0.3125 1.171875q-0.3125 0.5 -0.875 0.78125q-0.546875 0.265625 -1.328125 0.265625l-2.5 0zm1.296875 -1.109375l1.109375 0q0.59375 0 0.921875 -0.3125q0.34375 -0.3125 0.34375 -0.859375q0 -0.546875 -0.34375 -0.875q-0.328125 -0.34375 -0.921875 -0.34375l-1.109375 0l0 2.390625zm0 -3.46875l1.0625 0q0.53125 0 0.828125 -0.28125q0.3125 -0.28125 0.3125 -0.765625q0 -0.484375 -0.3125 -0.765625q-0.296875 -0.28125 -0.828125 -0.28125l-1.0625 0l0 2.09375zm5.081314 4.578125l0 -1.21875l2.046875 0l0 -3.4375l-1.78125 0l0 -1.203125l3.0625 0l0 4.640625l1.8125 0l0 1.21875l-5.140625 0zm2.578125 -6.84375q-0.40625 0 -0.640625 -0.203125q-0.234375 -0.203125 -0.234375 -0.5625q0 -0.34375 0.234375 -0.546875q0.234375 -0.21875 0.640625 -0.21875q0.40625 0 0.640625 0.21875q0.234375 0.203125 0.234375 0.546875q0 0.359375 -0.234375 0.5625q-0.234375 0.203125 -0.640625 0.203125zm4.628189 8.765625l0 -1.109375l1.734375 0q0.4375 0 0.65625 -0.21875q0.234375 -0.21875 0.234375 -0.625l0 -0.4375l0.015625 -1.09375l-0.28125 0l0.28125 -0.296875q0 0.71875 -0.421875 1.125q-0.40625 0.390625 -1.125 0.390625q-0.890625 0 -1.421875 -0.609375q-0.53125 -0.609375 -0.53125 -1.640625l0 -1.140625q0 -1.015625 0.53125 -1.625q0.53125 -0.609375 1.421875 -0.609375q0.71875 0 1.125 0.40625q0.421875 0.390625 0.421875 1.109375l-0.28125 -0.28125l0.28125 0l-0.03125 -1.125l1.34375 0l0 5.859375q0 0.890625 -0.59375 1.40625q-0.578125 0.515625 -1.609375 0.515625l-1.75 0zm1.546875 -3.40625q0.5 0 0.78125 -0.296875q0.28125 -0.3125 0.28125 -0.859375l0 -1.03125q0 -0.53125 -0.28125 -0.828125q-0.28125 -0.3125 -0.78125 -0.3125q-0.515625 0 -0.796875 0.296875q-0.28125 0.296875 -0.28125 0.84375l0 1.03125q0 0.546875 0.28125 0.859375q0.28125 0.296875 0.796875 0.296875zm6.456314 1.59375q-0.734375 0 -1.296875 -0.28125q-0.5625 -0.28125 -0.875 -0.796875q-0.296875 -0.515625 -0.296875 -1.21875l0 -3.390625q0 -0.71875 0.296875 -1.234375q0.3125 -0.515625 0.875 -0.796875q0.5625 -0.28125 1.296875 -0.28125q0.765625 0 1.3125 0.28125q0.546875 0.28125 0.859375 0.796875q0.3125 0.515625 0.3125 1.234375l-1.34375 0q0 -0.5625 -0.296875 -0.84375q-0.296875 -0.296875 -0.84375 -0.296875q-0.53125 0 -0.84375 0.296875q-0.296875 0.28125 -0.296875 0.828125l0 3.40625q0 0.53125 0.296875 0.828125q0.3125 0.296875 0.84375 0.296875q0.546875 0 0.84375 -0.296875q0.296875 -0.296875 0.296875 -0.828125l1.34375 0q0 0.6875 -0.3125 1.21875q-0.3125 0.515625 -0.859375 0.796875q-0.546875 0.28125 -1.3125 0.28125zm6.362549 -0.015625q-0.75 0 -1.296875 -0.28125q-0.546875 -0.28125 -0.859375 -0.796875q-0.296875 -0.515625 -0.296875 -1.21875l0 -1.453125q0 -0.703125 0.296875 -1.21875q0.3125 -0.515625 0.859375 -0.796875q0.546875 -0.28125 1.296875 -0.28125q0.75 0 1.296875 0.28125q0.546875 0.28125 0.84375 0.796875q0.296875 0.515625 0.296875 1.203125l0 1.46875q0 0.703125 -0.296875 1.21875q-0.296875 0.515625 -0.84375 0.796875q-0.546875 0.28125 -1.296875 0.28125zm0 -1.15625q0.53125 0 0.8125 -0.296875q0.296875 -0.296875 0.296875 -0.84375l0 -1.453125q0 -0.5625 -0.296875 -0.84375q-0.28125 -0.296875 -0.8125 -0.296875q-0.53125 0 -0.828125 0.296875q-0.296875 0.28125 -0.296875 0.84375l0 1.453125q0 0.546875 0.296875 0.84375q0.296875 0.296875 0.828125 0.296875zm5.8938293 1.171875q-0.875 0 -1.421875 -0.609375q-0.53125 -0.609375 -0.53125 -1.625l0 -1.59375q0 -1.03125 0.53125 -1.640625q0.53125 -0.609375 1.421875 -0.609375q0.71875 0 1.140625 0.421875q0.421875 0.40625 0.421875 1.109375l-0.296875 -0.296875l0.3125 0l-0.046875 -1.40625l0 -1.640625l1.34375 0l0 7.78125l-1.3125 0l0 -1.125l-0.296875 0l0.296875 -0.296875q0 0.703125 -0.421875 1.125q-0.421875 0.40625 -1.140625 0.40625zm0.46875 -1.15625q0.5 0 0.78125 -0.296875q0.28125 -0.3125 0.28125 -0.84375l0 -1.484375q0 -0.53125 -0.28125 -0.828125q-0.28125 -0.3125 -0.78125 -0.3125q-0.515625 0 -0.8125 0.296875q-0.28125 0.296875 -0.28125 0.84375l0 1.484375q0 0.546875 0.28125 0.84375q0.296875 0.296875 0.8125 0.296875zm6.425049 1.15625q-0.734375 0 -1.296875 -0.28125q-0.546875 -0.296875 -0.859375 -0.8125q-0.296875 -0.515625 -0.296875 -1.203125l0 -1.484375q0 -0.6875 0.296875 -1.203125q0.3125 -0.515625 0.859375 -0.796875q0.5625 -0.296875 1.296875 -0.296875q0.734375 0 1.28125 0.296875q0.5625 0.28125 0.859375 0.796875q0.296875 0.515625 0.296875 1.203125l0 1.0625l-3.609375 0l0 0.421875q0 0.609375 0.296875 0.921875q0.296875 0.3125 0.890625 0.3125q0.453125 0 0.71875 -0.140625q0.28125 -0.15625 0.359375 -0.46875l1.3125 0q-0.15625 0.765625 -0.8125 1.21875q-0.65625 0.453125 -1.59375 0.453125zm1.15625 -3.46875l0 -0.3125q0 -0.609375 -0.296875 -0.9375q-0.28125 -0.328125 -0.859375 -0.328125q-0.578125 0 -0.875 0.34375q-0.296875 0.328125 -0.296875 0.921875l0 0.234375l2.421875 -0.03125l-0.09375 0.109375zm2.8625793 3.359375l0 -7.78125l2.375 0q1.140625 0 1.796875 0.546875q0.65625 0.53125 0.65625 1.453125q0 0.53125 -0.234375 0.921875q-0.234375 0.375 -0.640625 0.59375q-0.390625 0.203125 -0.90625 0.203125l0 -0.046875q0.5625 0 1.0 0.21875q0.4375 0.21875 0.703125 0.640625q0.265625 0.421875 0.265625 1.03125q0 0.671875 -0.3125 1.171875q-0.3125 0.5 -0.875 0.78125q-0.546875 0.265625 -1.328125 0.265625l-2.5 0zm1.296875 -1.109375l1.109375 0q0.59375 0 0.921875 -0.3125q0.34375 -0.3125 0.34375 -0.859375q0 -0.546875 -0.34375 -0.875q-0.328125 -0.34375 -0.921875 -0.34375l-1.109375 0l0 2.390625zm0 -3.46875l1.0625 0q0.53125 0 0.828125 -0.28125q0.3125 -0.28125 0.3125 -0.765625q0 -0.484375 -0.3125 -0.765625q-0.296875 -0.28125 -0.828125 -0.28125l-1.0625 0l0 2.09375zm7.471924 4.6875q-0.734375 0 -1.296875 -0.28125q-0.546875 -0.296875 -0.859375 -0.8125q-0.296875 -0.515625 -0.296875 -1.203125l0 -1.484375q0 -0.6875 0.296875 -1.203125q0.3125 -0.515625 0.859375 -0.796875q0.5625 -0.296875 1.296875 -0.296875q0.734375 0 1.28125 0.296875q0.5625 0.28125 0.859375 0.796875q0.296875 0.515625 0.296875 1.203125l0 1.0625l-3.609375 0l0 0.421875q0 0.609375 0.296875 0.921875q0.296875 0.3125 0.890625 0.3125q0.453125 0 0.71875 -0.140625q0.28125 -0.15625 0.359375 -0.46875l1.3125 0q-0.15625 0.765625 -0.8125 1.21875q-0.65625 0.453125 -1.59375 0.453125zm1.15625 -3.46875l0 -0.3125q0 -0.609375 -0.296875 -0.9375q-0.28125 -0.328125 -0.859375 -0.328125q-0.578125 0 -0.875 0.34375q-0.296875 0.328125 -0.296875 0.921875l0 0.234375l2.421875 -0.03125l-0.09375 0.109375zm2.8625793 3.359375l0 -5.859375l1.296875 0l0 1.125l0.359375 0l-0.359375 0.296875q0 -0.71875 0.421875 -1.125q0.421875 -0.40625 1.15625 -0.40625q0.859375 0 1.375 0.578125q0.515625 0.578125 0.515625 1.546875l0 3.84375l-1.328125 0l0 -3.703125q0 -0.53125 -0.28125 -0.8125q-0.28125 -0.296875 -0.78125 -0.296875q-0.484375 0 -0.765625 0.296875q-0.28125 0.296875 -0.28125 0.84375l0 3.671875l-1.328125 0zm8.800049 0.109375q-0.75 0 -1.3125 -0.28125q-0.5625 -0.28125 -0.875 -0.796875q-0.296875 -0.515625 -0.296875 -1.21875l0 -1.484375q0 -0.703125 0.296875 -1.21875q0.3125 -0.515625 0.875 -0.796875q0.5625 -0.28125 1.3125 -0.28125q1.109375 0 1.765625 0.578125q0.65625 0.5625 0.6875 1.546875l-1.328125 0q-0.03125 -0.46875 -0.328125 -0.71875q-0.296875 -0.25 -0.796875 -0.25q-0.53125 0 -0.84375 0.296875q-0.3125 0.296875 -0.3125 0.84375l0 1.484375q0 0.53125 0.3125 0.828125q0.3125 0.296875 0.84375 0.296875q0.5 0 0.796875 -0.25q0.296875 -0.25 0.328125 -0.703125l1.328125 0q-0.03125 0.984375 -0.6875 1.5625q-0.65625 0.5625 -1.765625 0.5625zm3.9875793 -0.109375l0 -7.78125l1.328125 0l0 1.921875l-0.03125 1.125l0.359375 0l-0.359375 0.296875q0 -0.71875 0.421875 -1.125q0.421875 -0.40625 1.15625 -0.40625q0.859375 0 1.375 0.578125q0.515625 0.578125 0.515625 1.546875l0 3.84375l-1.328125 0l0 -3.703125q0 -0.53125 -0.28125 -0.8125q-0.28125 -0.296875 -0.78125 -0.296875q-0.484375 0 -0.765625 0.296875q-0.28125 0.296875 -0.28125 0.84375l0 3.671875l-1.328125 0z" fill-rule="nonzero"/><path fill="#000000" fill-opacity="0.0" d="m172.28477 180.52362l182.17323 0l0 27.244095l-182.17323 0z" fill-rule="evenodd"/><path fill="#000000" d="m213.89287 201.04362l0 -8.765625l2.6875 0q1.28125 0 2.015625 0.609375q0.75 0.609375 0.75 1.65625q0 0.578125 -0.265625 1.015625q-0.265625 0.4375 -0.71875 0.671875q-0.453125 0.234375 -1.03125 0.234375l0 -0.046875q0.625 0 1.125 0.25q0.5 0.234375 0.796875 0.71875q0.296875 0.46875 0.296875 1.15625q0 0.765625 -0.359375 1.328125q-0.34375 0.5625 -0.96875 0.875q-0.625 0.296875 -1.5 0.296875l-2.828125 0zm1.46875 -1.25l1.25 0q0.671875 0 1.046875 -0.34375q0.375 -0.359375 0.375 -0.96875q0 -0.625 -0.375 -1.0q-0.375 -0.375 -1.046875 -0.375l-1.25 0l0 2.6875zm0 -3.890625l1.203125 0q0.59375 0 0.9375 -0.3125q0.34375 -0.328125 0.34375 -0.890625q0 -0.546875 -0.34375 -0.859375q-0.34375 -0.3125 -0.9375 -0.3125l-1.203125 0l0 2.375zm5.934433 5.140625l0 -6.59375l1.421875 0l0 1.25l0.375 0l-0.453125 0.765625q0 -1.0625 0.484375 -1.59375q0.484375 -0.546875 1.421875 -0.546875q1.0625 0 1.671875 0.65625q0.609375 0.65625 0.609375 1.828125l0 0.484375l-1.5625 0l0 -0.375q0 -0.640625 -0.34375 -0.984375q-0.328125 -0.34375 -0.890625 -0.34375q-0.59375 0 -0.921875 0.34375q-0.3125 0.34375 -0.3125 0.984375l0 4.125l-1.5 0zm9.684433 0.125q-0.84375 0 -1.46875 -0.328125q-0.609375 -0.328125 -0.953125 -0.90625q-0.34375 -0.578125 -0.34375 -1.359375l0 -1.65625q0 -0.78125 0.34375 -1.359375q0.34375 -0.59375 0.953125 -0.90625q0.625 -0.328125 1.46875 -0.328125q0.828125 0 1.4375 0.328125q0.625 0.3125 0.96875 0.90625q0.34375 0.578125 0.34375 1.359375l0 1.1875l-4.0625 0l0 0.46875q0 0.6875 0.328125 1.046875q0.34375 0.359375 1.0 0.359375q0.5 0 0.8125 -0.171875q0.3125 -0.1875 0.40625 -0.515625l1.46875 0q-0.171875 0.84375 -0.90625 1.359375q-0.734375 0.515625 -1.796875 0.515625zm1.296875 -3.90625l0 -0.359375q0 -0.6875 -0.328125 -1.046875q-0.3125 -0.375 -0.96875 -0.375q-0.640625 0 -0.984375 0.375q-0.328125 0.375 -0.328125 1.0625l0 0.25l2.71875 -0.03125l-0.109375 0.125zm5.168808 3.90625q-1.03125 0 -1.625 -0.53125q-0.578125 -0.546875 -0.578125 -1.46875q0 -0.96875 0.640625 -1.5q0.65625 -0.53125 1.84375 -0.53125l1.640625 0l0 -0.5625q0 -0.46875 -0.3125 -0.734375q-0.3125 -0.28125 -0.84375 -0.28125q-0.5 0 -0.828125 0.21875q-0.3125 0.21875 -0.375 0.578125l-1.46875 0q0.109375 -0.921875 0.84375 -1.46875q0.734375 -0.5625 1.875 -0.5625q1.203125 0 1.90625 0.609375q0.703125 0.59375 0.703125 1.640625l0 4.46875l-1.453125 0l0 -1.15625l-0.234375 0l0.234375 -0.3125q0 0.71875 -0.546875 1.15625q-0.53125 0.4375 -1.421875 0.4375zm0.484375 -1.140625q0.640625 0 1.03125 -0.3125q0.40625 -0.328125 0.40625 -0.84375l0 -0.796875l-1.609375 0q-0.46875 0 -0.75 0.265625q-0.265625 0.25 -0.265625 0.6875q0 0.46875 0.3125 0.734375q0.328125 0.265625 0.875 0.265625zm6.871933 1.140625q-0.984375 0 -1.59375 -0.6875q-0.59375 -0.6875 -0.59375 -1.84375l0 -1.78125q0 -1.171875 0.59375 -1.84375q0.609375 -0.6875 1.59375 -0.6875q0.828125 0 1.296875 0.46875q0.484375 0.453125 0.484375 1.265625l-0.34375 -0.359375l0.359375 0l-0.046875 -1.5625l0 -1.859375l1.5 0l0 8.765625l-1.46875 0l0 -1.265625l-0.34375 0l0.34375 -0.34375q0 0.8125 -0.484375 1.28125q-0.46875 0.453125 -1.296875 0.453125zm0.53125 -1.296875q0.578125 0 0.890625 -0.34375q0.328125 -0.34375 0.328125 -0.953125l0 -1.65625q0 -0.609375 -0.328125 -0.953125q-0.3125 -0.34375 -0.890625 -0.34375q-0.578125 0 -0.90625 0.34375q-0.3125 0.328125 -0.3125 0.953125l0 1.65625q0 0.625 0.3125 0.96875q0.328125 0.328125 0.90625 0.328125zm7.950058 1.171875q-0.9375 0 -1.484375 -0.53125q-0.53125 -0.53125 -0.53125 -1.453125l0 -3.265625l-1.78125 0l0 -1.34375l1.78125 0l0 -1.859375l1.515625 0l0 1.859375l2.53125 0l0 1.34375l-2.53125 0l0 3.265625q0 0.625 0.609375 0.625l1.8125 0l0 1.359375l-1.921875 0zm3.8094177 0l0 -8.765625l1.5 0l0 2.171875l-0.03125 1.25l0.40625 0l-0.40625 0.359375q0 -0.828125 0.46875 -1.28125q0.484375 -0.453125 1.296875 -0.453125q0.984375 0 1.5625 0.65625q0.578125 0.640625 0.578125 1.734375l0 4.328125l-1.5 0l0 -4.171875q0 -0.609375 -0.3125 -0.921875q-0.3125 -0.328125 -0.875 -0.328125q-0.546875 0 -0.875 0.34375q-0.3125 0.328125 -0.3125 0.953125l0 4.125l-1.5 0zm19.290741 1.4375q-1.8125 -0.484375 -2.8125 -1.6875q-1.0 -1.21875 -1.0 -2.984375l0 -2.171875q0 -1.140625 0.453125 -2.078125q0.46875 -0.953125 1.328125 -1.609375q0.859375 -0.671875 2.03125 -0.984375l0 1.46875q-0.703125 0.171875 -1.234375 0.625q-0.515625 0.4375 -0.796875 1.09375q-0.265625 0.65625 -0.265625 1.484375l0 2.171875q0 0.8125 0.265625 1.46875q0.28125 0.65625 0.796875 1.09375q0.53125 0.4375 1.234375 0.59375l0 1.515625zm4.2313232 -1.4375l0 -7.375l-2.296875 0l0 -1.390625l6.09375 0l0 1.390625l-2.28125 0l0 7.375l-1.515625 0zm7.9500427 0.109375q-0.828125 0 -1.453125 -0.3125q-0.609375 -0.328125 -0.953125 -0.90625q-0.34375 -0.578125 -0.34375 -1.375l0 -1.625q0 -0.796875 0.34375 -1.375q0.34375 -0.59375 0.953125 -0.90625q0.625 -0.3125 1.453125 -0.3125q0.859375 0 1.46875 0.3125q0.609375 0.3125 0.953125 0.90625q0.34375 0.578125 0.34375 1.359375l0 1.640625q0 0.796875 -0.34375 1.375q-0.34375 0.578125 -0.953125 0.90625q-0.609375 0.3125 -1.46875 0.3125zm0 -1.3125q0.609375 0 0.9375 -0.328125q0.328125 -0.328125 0.328125 -0.953125l0 -1.625q0 -0.640625 -0.328125 -0.96875q-0.328125 -0.328125 -0.9375 -0.328125q-0.578125 0 -0.921875 0.328125q-0.328125 0.328125 -0.328125 0.96875l0 1.625q0 0.625 0.328125 0.953125q0.34375 0.328125 0.921875 0.328125zm7.2000732 1.3125q-0.828125 0 -1.453125 -0.3125q-0.609375 -0.328125 -0.953125 -0.90625q-0.34375 -0.578125 -0.34375 -1.375l0 -1.625q0 -0.796875 0.34375 -1.375q0.34375 -0.59375 0.953125 -0.90625q0.625 -0.3125 1.453125 -0.3125q0.859375 0 1.46875 0.3125q0.609375 0.3125 0.953125 0.90625q0.34375 0.578125 0.34375 1.359375l0 1.640625q0 0.796875 -0.34375 1.375q-0.34375 0.578125 -0.953125 0.90625q-0.609375 0.3125 -1.46875 0.3125zm0 -1.3125q0.609375 0 0.9375 -0.328125q0.328125 -0.328125 0.328125 -0.953125l0 -1.625q0 -0.640625 -0.328125 -0.96875q-0.328125 -0.328125 -0.9375 -0.328125q-0.578125 0 -0.921875 0.328125q-0.328125 0.328125 -0.328125 0.96875l0 1.625q0 0.625 0.328125 0.953125q0.34375 0.328125 0.921875 0.328125zm8.215698 1.203125q-0.65625 0 -1.140625 -0.265625q-0.484375 -0.265625 -0.765625 -0.75q-0.265625 -0.484375 -0.265625 -1.125l0 -5.265625l-2.1094055 0l0 -1.359375l3.6094055 0l0 6.625q0 0.359375 0.203125 0.578125q0.21875 0.203125 0.578125 0.203125l1.984375 0l0 1.359375l-2.09375 0zm3.9656677 1.4375l0 -1.515625q0.71875 -0.15625 1.234375 -0.59375q0.515625 -0.4375 0.796875 -1.09375q0.28125 -0.65625 0.28125 -1.46875l0 -2.171875q0 -0.828125 -0.28125 -1.484375q-0.28125 -0.65625 -0.796875 -1.09375q-0.515625 -0.453125 -1.234375 -0.625l0 -1.46875q1.1875 0.3125 2.03125 0.984375q0.859375 0.65625 1.328125 1.609375q0.46875 0.9375 0.46875 2.078125l0 2.171875q0 1.765625 -1.0 2.984375q-1.0 1.203125 -2.828125 1.6875z" fill-rule="nonzero"/><path fill="#000000" fill-opacity="0.0" d="m-7.04712 -10.624672l155.2126 0l0 27.244095l-155.2126 0z" fill-rule="evenodd"/><path fill="#000000" d="m2.8591301 9.8953285l0 -8.765625l2.5937498 0q0.890625 0 1.546875 0.34375q0.65625 0.328125 1.015625 0.953125q0.359375 0.609375 0.359375 1.4375l0 3.28125q0 0.828125 -0.359375 1.453125q-0.359375 0.609375 -1.015625 0.953125q-0.65625 0.34375 -1.546875 0.34375l-2.5937498 0zm1.4999998 -1.375l1.09375 0q0.65625 0 1.03125 -0.359375q0.390625 -0.375 0.390625 -1.015625l0 -3.28125q0 -0.609375 -0.390625 -0.96875q-0.375 -0.375 -1.03125 -0.375l-1.09375 0l0 6.0zm8.403183 1.5q-0.84375 0 -1.46875 -0.328125q-0.609375 -0.328125 -0.953125 -0.90625q-0.34375 -0.578125 -0.34375 -1.359375l0 -1.65625q0 -0.78125 0.34375 -1.359375q0.34375 -0.59375 0.953125 -0.90625q0.625 -0.328125 1.46875 -0.328125q0.828125 0 1.4375 0.328125q0.625 0.3125 0.96875 0.90625q0.34375 0.578125 0.34375 1.359375l0 1.1875l-4.0625 0l0 0.46875q0 0.6875 0.328125 1.046875q0.34375 0.359375 1.0 0.359375q0.5 0 0.8125 -0.171875q0.3125 -0.1875 0.40625 -0.515625l1.46875 0q-0.171875 0.84375 -0.90625 1.359375q-0.734375 0.515625 -1.796875 0.515625zm1.296875 -3.90625l0 -0.359375q0 -0.6875 -0.328125 -1.046875q-0.3125 -0.375 -0.96875 -0.375q-0.640625 0 -0.984375 0.375q-0.328125 0.375 -0.328125 1.0625l0 0.25l2.71875 -0.03125l-0.109375 0.125zm3.215684 5.9375l0 -8.75l1.46875 0l0 1.25l0.328125 0l-0.328125 0.359375q0 -0.8125 0.46875 -1.265625q0.484375 -0.46875 1.296875 -0.46875q1.0 0 1.59375 0.6875q0.609375 0.671875 0.609375 1.828125l0 1.796875q0 0.765625 -0.28125 1.34375q-0.265625 0.5625 -0.75 0.875q-0.484375 0.3125 -1.171875 0.3125q-0.8125 0 -1.296875 -0.453125q-0.46875 -0.46875 -0.46875 -1.28125l0.328125 0.34375l-0.34375 0l0.046875 1.578125l0 1.84375l-1.5 0zm2.71875 -3.328125q0.578125 0 0.890625 -0.328125q0.328125 -0.34375 0.328125 -0.96875l0 -1.65625q0 -0.625 -0.328125 -0.953125q-0.3125 -0.34375 -0.890625 -0.34375q-0.5625 0 -0.890625 0.34375q-0.328125 0.34375 -0.328125 0.953125l0 1.65625q0 0.609375 0.328125 0.953125q0.328125 0.34375 0.890625 0.34375zm7.871933 1.171875q-0.9375 0 -1.484375 -0.53125q-0.53125 -0.53125 -0.53125 -1.453125l0 -3.265625l-1.78125 0l0 -1.34375l1.78125 0l0 -1.859375l1.515625 0l0 1.859375l2.53125 0l0 1.34375l-2.53125 0l0 3.265625q0 0.625 0.609375 0.625l1.8125 0l0 1.359375l-1.921875 0zm3.809433 0l0 -8.765625l1.5 0l0 2.171875l-0.03125 1.25l0.40625 0l-0.40625 0.359375q0 -0.828125 0.46875 -1.28125q0.484375 -0.453125 1.296875 -0.453125q0.984375 0 1.5625 0.65625q0.578125 0.640625 0.578125 1.734375l0 4.328125l-1.5 0l0 -4.171875q0 -0.609375 -0.3125 -0.921875q-0.3125 -0.328125 -0.875 -0.328125q-0.546875 0 -0.875 0.34375q-0.3125 0.328125 -0.3125 0.953125l0 4.125l-1.5 0zm19.290741 1.4375q-1.8125 -0.484375 -2.8125 -1.6875q-1.0 -1.21875 -1.0 -2.984375l0 -2.171875q0 -1.140625 0.453125 -2.078125q0.46875 -0.953125 1.328125 -1.609375q0.859375 -0.671875 2.03125 -0.984375l0 1.46875q-0.703125 0.171875 -1.234375 0.625q-0.515625 0.4375 -0.796875 1.09375q-0.265625 0.65625 -0.265625 1.484375l0 2.171875q0 0.8125 0.265625 1.46875q0.28125 0.65625 0.796875 1.09375q0.53125 0.4375 1.234375 0.59375l0 1.515625zm5.028183 -1.3125q-0.828125 0 -1.46875 -0.3125q-0.625 -0.328125 -0.96875 -0.90625q-0.34375 -0.59375 -0.34375 -1.375l0 -3.8125q0 -0.8125 0.34375 -1.390625q0.34375 -0.578125 0.96875 -0.890625q0.640625 -0.3125 1.46875 -0.3125q0.859375 0 1.46875 0.3125q0.625 0.3125 0.96875 0.890625q0.359375 0.578125 0.359375 1.390625l-1.515625 0q0 -0.625 -0.328125 -0.953125q-0.328125 -0.328125 -0.953125 -0.328125q-0.609375 0 -0.953125 0.328125q-0.328125 0.328125 -0.328125 0.9375l0 3.828125q0 0.609375 0.328125 0.9375q0.34375 0.328125 0.953125 0.328125q0.625 0 0.953125 -0.328125q0.328125 -0.328125 0.328125 -0.9375l1.515625 0q0 0.78125 -0.359375 1.375q-0.34375 0.578125 -0.96875 0.90625q-0.609375 0.3125 -1.46875 0.3125zm7.153183 -0.015625q-0.828125 0 -1.453125 -0.3125q-0.609375 -0.328125 -0.953125 -0.90625q-0.34375 -0.578125 -0.34375 -1.375l0 -1.625q0 -0.796875 0.34375 -1.375q0.34375 -0.59375 0.953125 -0.90625q0.625 -0.3125 1.453125 -0.3125q0.859375 0 1.46875 0.3125q0.609375 0.3125 0.953125 0.90625q0.34375 0.578125 0.34375 1.359375l0 1.640625q0 0.796875 -0.34375 1.375q-0.34375 0.578125 -0.953125 0.90625q-0.609375 0.3125 -1.46875 0.3125zm0 -1.3125q0.609375 0 0.9375 -0.328125q0.328125 -0.328125 0.328125 -0.953125l0 -1.625q0 -0.640625 -0.328125 -0.96875q-0.328125 -0.328125 -0.9375 -0.328125q-0.578125 0 -0.921875 0.328125q-0.328125 0.328125 -0.328125 0.96875l0 1.625q0 0.625 0.328125 0.953125q0.34375 0.328125 0.921875 0.328125zm4.231308 1.203125l0 -6.59375l1.21875 0l0 0.875l0.25 0l-0.203125 0.21875q0 -0.546875 0.3125 -0.875q0.3125 -0.34375 0.8125 -0.34375q0.53125 0 0.8125 0.4375q0.296875 0.421875 0.296875 1.15625l-0.265625 -0.59375l0.40625 0l-0.15625 0.21875q0 -0.546875 0.3125 -0.875q0.3125 -0.34375 0.828125 -0.34375q0.625 0 0.984375 0.453125q0.359375 0.453125 0.359375 1.234375l0 5.03125l-1.328125 0l0 -4.96875q0 -0.328125 -0.140625 -0.5q-0.140625 -0.1875 -0.421875 -0.1875q-0.265625 0 -0.421875 0.1875q-0.140625 0.171875 -0.140625 0.5l0 4.96875l-1.078125 0l0 -4.96875q0 -0.328125 -0.15625 -0.5q-0.140625 -0.1875 -0.40625 -0.1875q-0.28125 0 -0.421875 0.1875q-0.140625 0.171875 -0.140625 0.5l0 4.96875l-1.3125 0zm7.496933 2.15625l0 -8.75l1.46875 0l0 1.25l0.328125 0l-0.328125 0.359375q0 -0.8125 0.46875 -1.265625q0.484375 -0.46875 1.296875 -0.46875q1.0 0 1.59375 0.6875q0.609375 0.671875 0.609375 1.828125l0 1.796875q0 0.765625 -0.28125 1.34375q-0.265625 0.5625 -0.75 0.875q-0.484375 0.3125 -1.171875 0.3125q-0.8125 0 -1.296875 -0.453125q-0.46875 -0.46875 -0.46875 -1.28125l0.328125 0.34375l-0.34375 0l0.046875 1.578125l0 1.84375l-1.5 0zm2.71875 -3.328125q0.578125 0 0.890625 -0.328125q0.328125 -0.34375 0.328125 -0.96875l0 -1.65625q0 -0.625 -0.328125 -0.953125q-0.3125 -0.34375 -0.890625 -0.34375q-0.5625 0 -0.890625 0.34375q-0.328125 0.34375 -0.328125 0.953125l0 1.65625q0 0.609375 0.328125 0.953125q0.328125 0.34375 0.890625 0.34375zm8.168808 1.171875q-0.65625 0 -1.140625 -0.265625q-0.484375 -0.265625 -0.765625 -0.75q-0.265625 -0.484375 -0.265625 -1.125l0 -5.265625l-2.109375 0l0 -1.359375l3.609375 0l0 6.625q0 0.359375 0.203125 0.578125q0.21875 0.203125 0.578125 0.203125l1.984375 0l0 1.359375l-2.09375 0zm6.200058 0.125q-0.84375 0 -1.46875 -0.328125q-0.609375 -0.328125 -0.953125 -0.90625q-0.34375 -0.578125 -0.34375 -1.359375l0 -1.65625q0 -0.78125 0.34375 -1.359375q0.34375 -0.59375 0.953125 -0.90625q0.625 -0.328125 1.46875 -0.328125q0.828125 0 1.4375 0.328125q0.625 0.3125 0.96875 0.90625q0.34375 0.578125 0.34375 1.359375l0 1.1875l-4.0625 0l0 0.46875q0 0.6875 0.328125 1.046875q0.34375 0.359375 1.0 0.359375q0.5 0 0.8125 -0.171875q0.3125 -0.1875 0.40625 -0.515625l1.46875 0q-0.171875 0.84375 -0.90625 1.359375q-0.734375 0.515625 -1.796875 0.515625zm1.296875 -3.90625l0 -0.359375q0 -0.6875 -0.328125 -1.046875q-0.3125 -0.375 -0.96875 -0.375q-0.640625 0 -0.984375 0.375q-0.328125 0.375 -0.328125 1.0625l0 0.25l2.71875 -0.03125l-0.109375 0.125zm2.731308 3.78125l2.296875 -3.40625l-2.140625 -3.1875l1.6875 0l1.015625 1.609375q0.09375 0.140625 0.171875 0.328125q0.078125 0.1875 0.125 0.28125q0.046875 -0.09375 0.125 -0.28125q0.09375 -0.1875 0.1875 -0.328125l1.03125 -1.609375l1.6875 0l-2.15625 3.1875l2.296875 3.40625l-1.703125 0l-1.140625 -1.8125q-0.09375 -0.15625 -0.1875 -0.328125q-0.078125 -0.1875 -0.140625 -0.296875q-0.046875 0.109375 -0.125 0.296875q-0.078125 0.171875 -0.1875 0.328125l-1.15625 1.8125l-1.6875 0zm7.668808 0l0 -1.375l2.3125 0l0 -3.875l-2.0 0l0 -1.34375l3.4375 0l0 5.21875l2.046875 0l0 1.375l-5.796875 0zm2.90625 -7.703125q-0.453125 0 -0.71875 -0.234375q-0.265625 -0.234375 -0.265625 -0.625q0 -0.40625 0.265625 -0.640625q0.265625 -0.23437497 0.71875 -0.23437497q0.46875 0 0.71875 0.23437497q0.265625 0.234375 0.265625 0.640625q0 0.390625 -0.265625 0.625q-0.25 0.234375 -0.71875 0.234375zm7.700058 7.703125q-0.9375 0 -1.484375 -0.53125q-0.53125 -0.53125 -0.53125 -1.453125l0 -3.265625l-1.78125 0l0 -1.34375l1.78125 0l0 -1.859375l1.515625 0l0 1.859375l2.53125 0l0 1.34375l-2.53125 0l0 3.265625q0 0.625 0.609375 0.625l1.8125 0l0 1.359375l-1.921875 0zm4.871933 2.15625l0.9375 -2.515625l-2.46875 -6.234375l1.640625 0l1.234375 3.359375q0.09375 0.28125 0.1875 0.671875q0.09375 0.390625 0.140625 0.640625q0.0625 -0.25 0.15625 -0.640625q0.09375 -0.390625 0.203125 -0.671875l1.140625 -3.359375l1.59375 0l-3.1875 8.75l-1.578125 0zm6.590683 -0.71875l0 -1.515625q0.71875 -0.15625 1.234375 -0.59375q0.515625 -0.4375 0.796875 -1.09375q0.28125 -0.65625 0.28125 -1.46875l0 -2.171875q0 -0.828125 -0.28125 -1.484375q-0.28125 -0.65625 -0.796875 -1.09375q-0.515625 -0.453125 -1.234375 -0.625l0 -1.46875q1.1875 0.3125 2.03125 0.984375q0.859375 0.65625 1.328125 1.609375q0.46875 0.9375 0.46875 2.078125l0 2.171875q0 1.765625 -1.0 2.984375q-1.0 1.203125 -2.828125 1.6875z" fill-rule="nonzero"/><path fill="#d9d9d9" d="m10.581365 221.36224l0 0c0 -1.2060547 0.97770786 -2.1837616 2.1837711 -2.1837616l9.805686 0c0.57917213 0 1.1346226 0.23007202 1.5441589 0.63960266c0.40953636 0.4095459 0.6396122 0.96499634 0.6396122 1.5441589l0 8.734833c0 1.2060547 -0.9777069 2.1837616 -2.1837711 2.1837616l-9.805686 0c-1.2060633 0 -2.1837711 -0.9777069 -2.1837711 -2.1837616z" fill-rule="evenodd"/><path stroke="#000000" stroke-width="1.0" stroke-linejoin="round" stroke-linecap="butt" d="m10.581365 221.36224l0 0c0 -1.2060547 0.97770786 -2.1837616 2.1837711 -2.1837616l9.805686 0c0.57917213 0 1.1346226 0.23007202 1.5441589 0.63960266c0.40953636 0.4095459 0.6396122 0.96499634 0.6396122 1.5441589l0 8.734833c0 1.2060547 -0.9777069 2.1837616 -2.1837711 2.1837616l-9.805686 0c-1.2060633 0 -2.1837711 -0.9777069 -2.1837711 -2.1837616z" fill-rule="evenodd"/><path fill="#000000" fill-opacity="0.0" d="m33.077427 211.39108l45.10236 0l0 32.314957l-45.10236 0z" fill-rule="evenodd"/><path fill="#000000" d="m43.21598 230.63107l1.953125 -7.78125l1.71875 0l1.96875 7.78125l-1.359375 0l-0.421875 -1.890625l-2.078125 0l-0.421875 1.890625l-1.359375 0zm2.03125 -2.96875l1.578125 0l-0.46875 -2.09375q-0.109375 -0.515625 -0.203125 -0.9375q-0.078125 -0.421875 -0.109375 -0.625q-0.03125 0.203125 -0.125 0.625q-0.078125 0.421875 -0.203125 0.921875l-0.46875 2.109375zm4.815689 2.96875l0 -7.78125l2.578125 0q0.78125 0 1.359375 0.296875q0.578125 0.296875 0.890625 0.84375q0.328125 0.53125 0.328125 1.265625q0 0.703125 -0.328125 1.25q-0.3125 0.546875 -0.890625 0.84375q-0.578125 0.296875 -1.359375 0.296875l-1.25 0l0 2.984375l-1.328125 0zm1.328125 -4.1875l1.25 0q0.5625 0 0.890625 -0.328125q0.34375 -0.328125 0.34375 -0.859375q0 -0.5625 -0.34375 -0.875q-0.328125 -0.328125 -0.890625 -0.328125l-1.25 0l0 2.390625zm5.065689 4.1875l0 -7.78125l2.578125 0q0.78125 0 1.359375 0.296875q0.578125 0.296875 0.890625 0.84375q0.328125 0.53125 0.328125 1.265625q0 0.703125 -0.328125 1.25q-0.3125 0.546875 -0.890625 0.84375q-0.578125 0.296875 -1.359375 0.296875l-1.25 0l0 2.984375l-1.328125 0zm1.328125 -4.1875l1.25 0q0.5625 0 0.890625 -0.328125q0.34375 -0.328125 0.34375 -0.859375q0 -0.5625 -0.34375 -0.875q-0.328125 -0.328125 -0.890625 -0.328125l-1.25 0l0 2.390625zm7.456314 4.296875q-0.796875 0 -1.390625 -0.265625q-0.578125 -0.265625 -0.890625 -0.765625q-0.3125 -0.5 -0.328125 -1.171875l1.328125 0q0 0.484375 0.34375 0.765625q0.34375 0.265625 0.953125 0.265625q0.5625 0 0.890625 -0.265625q0.328125 -0.265625 0.328125 -0.734375q0 -0.40625 -0.234375 -0.6875q-0.21875 -0.296875 -0.65625 -0.40625l-0.890625 -0.25q-0.90625 -0.234375 -1.40625 -0.828125q-0.5 -0.609375 -0.5 -1.484375q0 -0.65625 0.296875 -1.140625q0.296875 -0.5 0.84375 -0.765625q0.5625 -0.265625 1.296875 -0.265625q1.140625 0 1.796875 0.59375q0.65625 0.578125 0.671875 1.546875l-1.328125 0q0 -0.453125 -0.3125 -0.703125q-0.296875 -0.265625 -0.828125 -0.265625q-0.53125 0 -0.828125 0.25q-0.28125 0.234375 -0.28125 0.6875q0 0.40625 0.21875 0.6875q0.21875 0.28125 0.640625 0.390625l0.921875 0.265625q0.9375 0.234375 1.421875 0.84375q0.484375 0.59375 0.484375 1.46875q0 0.671875 -0.328125 1.171875q-0.3125 0.5 -0.890625 0.78125q-0.5625 0.28125 -1.34375 0.28125z" fill-rule="nonzero"/><path fill="#9fc5e8" d="m9.667979 251.19948l7.999999 -13.102371l8.0 13.102371z" fill-rule="evenodd"/><path stroke="#000000" stroke-width="1.0" stroke-linejoin="round" stroke-linecap="butt" d="m9.667979 251.19948l7.999999 -13.102371l8.0 13.102371z" fill-rule="evenodd"/><path fill="#000000" fill-opacity="0.0" d="m20.762466 228.49081l69.732285 0l0 32.314972l-69.732285 0z" fill-rule="evenodd"/><path fill="#000000" d="m34.047134 247.73082l0 -7.78125l2.3125 0q0.796875 0 1.375 0.296875q0.578125 0.296875 0.890625 0.84375q0.328125 0.546875 0.328125 1.296875l0 2.90625q0 0.734375 -0.328125 1.28125q-0.3125 0.546875 -0.890625 0.859375q-0.578125 0.296875 -1.375 0.296875l-2.3125 0zm1.328125 -1.21875l0.984375 0q0.578125 0 0.921875 -0.328125q0.34375 -0.328125 0.34375 -0.890625l0 -2.90625q0 -0.5625 -0.34375 -0.875q-0.34375 -0.328125 -0.921875 -0.328125l-0.984375 0l0 5.328125zm7.487564 1.328125q-0.796875 0 -1.390625 -0.265625q-0.578125 -0.265625 -0.890625 -0.765625q-0.3125 -0.5 -0.328125 -1.171875l1.328125 0q0 0.484375 0.34375 0.765625q0.34375 0.265625 0.953125 0.265625q0.5625 0 0.890625 -0.265625q0.328125 -0.265625 0.328125 -0.734375q0 -0.40625 -0.234375 -0.6875q-0.21875 -0.296875 -0.65625 -0.40625l-0.890625 -0.25q-0.90625 -0.234375 -1.40625 -0.828125q-0.5 -0.609375 -0.5 -1.484375q0 -0.65625 0.296875 -1.140625q0.296875 -0.5 0.84375 -0.765625q0.5625 -0.265625 1.296875 -0.265625q1.140625 0 1.796875 0.59375q0.65625 0.578125 0.671875 1.546875l-1.328125 0q0 -0.453125 -0.3125 -0.703125q-0.296875 -0.265625 -0.828125 -0.265625q-0.53125 0 -0.828125 0.25q-0.28125 0.234375 -0.28125 0.6875q0 0.40625 0.21875 0.6875q0.21875 0.28125 0.640625 0.390625l0.921875 0.265625q0.9375 0.234375 1.421875 0.84375q0.484375 0.59375 0.484375 1.46875q0 0.671875 -0.328125 1.171875q-0.3125 0.5 -0.890625 0.78125q-0.5625 0.28125 -1.34375 0.28125zm4.659439 -3.015625l0 -1.234375l3.421875 0l0 1.234375l-3.421875 0zm5.800064 2.90625l0 -1.171875l2.03125 0l0 -5.421875l-2.03125 1.515625l0 -1.40625l1.78125 -1.296875l1.578125 0l0 6.609375l1.625 0l0 1.171875l-4.984375 0zm8.706314 0.109375q-0.765625 0 -1.328125 -0.28125q-0.546875 -0.296875 -0.859375 -0.8125q-0.296875 -0.53125 -0.296875 -1.234375l0 -3.34375q0 -0.703125 0.296875 -1.21875q0.3125 -0.53125 0.859375 -0.8125q0.5625 -0.296875 1.328125 -0.296875q0.765625 0 1.3125 0.296875q0.546875 0.28125 0.84375 0.8125q0.3125 0.515625 0.3125 1.21875l0 3.34375q0 0.703125 -0.3125 1.234375q-0.296875 0.515625 -0.859375 0.8125q-0.546875 0.28125 -1.296875 0.28125zm0 -1.15625q0.546875 0 0.875 -0.3125q0.328125 -0.328125 0.328125 -0.859375l0 -3.34375q0 -0.53125 -0.328125 -0.84375q-0.328125 -0.328125 -0.875 -0.328125q-0.5625 0 -0.890625 0.328125q-0.328125 0.3125 -0.328125 0.84375l0 3.34375q0 0.53125 0.328125 0.859375q0.328125 0.3125 0.890625 0.3125zm0 -2.15625q-0.3125 0 -0.515625 -0.203125q-0.1875 -0.203125 -0.1875 -0.515625q0 -0.3125 0.1875 -0.5q0.1875 -0.203125 0.515625 -0.203125q0.3125 0 0.5 0.203125q0.203125 0.1875 0.203125 0.5q0 0.3125 -0.203125 0.515625q-0.1875 0.203125 -0.5 0.203125zm6.393814 3.3125q-0.765625 0 -1.328125 -0.28125q-0.546875 -0.296875 -0.859375 -0.8125q-0.296875 -0.53125 -0.296875 -1.234375l0 -3.34375q0 -0.703125 0.296875 -1.21875q0.3125 -0.53125 0.859375 -0.8125q0.5625 -0.296875 1.328125 -0.296875q0.765625 0 1.3125 0.296875q0.546875 0.28125 0.84375 0.8125q0.3125 0.515625 0.3125 1.21875l0 3.34375q0 0.703125 -0.3125 1.234375q-0.296875 0.515625 -0.859375 0.8125q-0.546875 0.28125 -1.296875 0.28125zm0 -1.15625q0.546875 0 0.875 -0.3125q0.328125 -0.328125 0.328125 -0.859375l0 -3.34375q0 -0.53125 -0.328125 -0.84375q-0.328125 -0.328125 -0.875 -0.328125q-0.5625 0 -0.890625 0.328125q-0.328125 0.3125 -0.328125 0.84375l0 3.34375q0 0.53125 0.328125 0.859375q0.328125 0.3125 0.890625 0.3125zm0 -2.15625q-0.3125 0 -0.515625 -0.203125q-0.1875 -0.203125 -0.1875 -0.515625q0 -0.3125 0.1875 -0.5q0.1875 -0.203125 0.515625 -0.203125q0.3125 0 0.5 0.203125q0.203125 0.1875 0.203125 0.5q0 0.3125 -0.203125 0.515625q-0.1875 0.203125 -0.5 0.203125zm6.393814 3.3125q-0.765625 0 -1.328125 -0.28125q-0.546875 -0.296875 -0.859375 -0.8125q-0.296875 -0.53125 -0.296875 -1.234375l0 -3.34375q0 -0.703125 0.296875 -1.21875q0.3125 -0.53125 0.859375 -0.8125q0.5625 -0.296875 1.328125 -0.296875q0.765625 0 1.3125 0.296875q0.546875 0.28125 0.84375 0.8125q0.3125 0.515625 0.3125 1.21875l0 3.34375q0 0.703125 -0.3125 1.234375q-0.296875 0.515625 -0.859375 0.8125q-0.546875 0.28125 -1.296875 0.28125zm0 -1.15625q0.546875 0 0.875 -0.3125q0.328125 -0.328125 0.328125 -0.859375l0 -3.34375q0 -0.53125 -0.328125 -0.84375q-0.328125 -0.328125 -0.875 -0.328125q-0.5625 0 -0.890625 0.328125q-0.328125 0.3125 -0.328125 0.84375l0 3.34375q0 0.53125 0.328125 0.859375q0.328125 0.3125 0.890625 0.3125zm0 -2.15625q-0.3125 0 -0.515625 -0.203125q-0.1875 -0.203125 -0.1875 -0.515625q0 -0.3125 0.1875 -0.5q0.1875 -0.203125 0.515625 -0.203125q0.3125 0 0.5 0.203125q0.203125 0.1875 0.203125 0.5q0 0.3125 -0.203125 0.515625q-0.1875 0.203125 -0.5 0.203125z" fill-rule="nonzero"/><path fill="#7f6000" d="m13.127348 256.74014l10.908033 0l2.5459843 2.54599l0 12.729614l0 0l-16.0 0l0 0l0 -12.729614z" fill-rule="evenodd"/><path stroke="#000000" stroke-width="1.0" stroke-linejoin="round" stroke-linecap="butt" d="m13.127348 256.74014l10.908033 0l2.5459843 2.54599l0 12.729614l0 0l-16.0 0l0 0l0 -12.729614z" fill-rule="evenodd"/><path fill="#000000" fill-opacity="0.0" d="m20.762466 249.30708l69.732285 0l0 32.314957l-69.732285 0z" fill-rule="evenodd"/><path fill="#000000" d="m46.044106 268.65646q-0.75 0 -1.296875 -0.28125q-0.546875 -0.28125 -0.84375 -0.796875q-0.296875 -0.515625 -0.296875 -1.21875l0 -3.390625q0 -0.703125 0.296875 -1.21875q0.296875 -0.53125 0.84375 -0.8125q0.546875 -0.28125 1.296875 -0.28125q0.75 0 1.296875 0.28125q0.546875 0.28125 0.828125 0.8125q0.296875 0.515625 0.296875 1.203125l0 3.40625q0 0.703125 -0.296875 1.21875q-0.28125 0.515625 -0.828125 0.796875q-0.546875 0.28125 -1.296875 0.28125zm0 -1.171875q0.53125 0 0.8125 -0.296875q0.28125 -0.296875 0.28125 -0.828125l0 -3.390625q0 -0.5625 -0.28125 -0.84375q-0.28125 -0.296875 -0.8125 -0.296875q-0.546875 0 -0.828125 0.296875q-0.28125 0.28125 -0.28125 0.84375l0 3.390625q0 0.53125 0.28125 0.828125q0.296875 0.296875 0.828125 0.296875zm3.987564 1.0625l0 -7.78125l2.3125 0q0.796875 0 1.375 0.296875q0.578125 0.296875 0.890625 0.84375q0.328125 0.546875 0.328125 1.296875l0 2.90625q0 0.734375 -0.328125 1.28125q-0.3125 0.546875 -0.890625 0.859375q-0.578125 0.296875 -1.375 0.296875l-2.3125 0zm1.328125 -1.21875l0.984375 0q0.578125 0 0.921875 -0.328125q0.34375 -0.328125 0.34375 -0.890625l0 -2.90625q0 -0.5625 -0.34375 -0.875q-0.34375 -0.328125 -0.921875 -0.328125l-0.984375 0l0 5.328125zm5.206314 1.21875l0 -7.78125l4.671875 0l0 1.15625l-3.359375 0l0 2.03125l2.984375 0l0 1.15625l-2.984375 0l0 2.28125l3.359375 0l0 1.15625l-4.671875 0zm5.753189 0l2.15625 -3.984375l-2.03125 -3.796875l1.5 0l0.984375 1.953125q0.09375 0.21875 0.171875 0.421875q0.09375 0.1875 0.140625 0.296875q0.03125 -0.109375 0.109375 -0.296875q0.09375 -0.203125 0.203125 -0.421875l0.984375 -1.953125l1.453125 0l-2.03125 3.765625l2.15625 4.015625l-1.484375 0l-1.109375 -2.15625q-0.09375 -0.203125 -0.1875 -0.40625q-0.09375 -0.203125 -0.140625 -0.328125q-0.03125 0.125 -0.125 0.328125q-0.078125 0.203125 -0.1875 0.40625l-1.109375 2.15625l-1.453125 0z" fill-rule="nonzero"/><path fill="#b6d7a8" d="m100.28215 225.72966l8.0 -7.637802l8.0 7.637802l-8.0 7.637787z" fill-rule="evenodd"/><path stroke="#000000" stroke-width="1.0" stroke-linejoin="round" stroke-linecap="butt" d="m100.28215 225.72966l8.0 -7.637802l8.0 7.637802l-8.0 7.637787z" fill-rule="evenodd"/><path fill="#000000" fill-opacity="0.0" d="m108.77559 210.90552l81.921265 0l0 32.314957l-81.921265 0z" fill-rule="evenodd"/><path fill="#000000" d="m124.535965 230.14551l1.953125 -7.78125l1.71875 0l1.96875 7.78125l-1.359375 0l-0.421875 -1.890625l-2.078125 0l-0.421875 1.890625l-1.359375 0zm2.03125 -2.96875l1.578125 0l-0.46875 -2.09375q-0.109375 -0.515625 -0.203125 -0.9375q-0.078125 -0.421875 -0.109375 -0.625q-0.03125 0.203125 -0.125 0.625q-0.078125 0.421875 -0.203125 0.921875l-0.46875 2.109375zm4.815689 2.96875l0 -7.78125l2.578125 0q0.78125 0 1.359375 0.296875q0.578125 0.296875 0.890625 0.84375q0.328125 0.53125 0.328125 1.265625q0 0.703125 -0.328125 1.25q-0.3125 0.546875 -0.890625 0.84375q-0.578125 0.296875 -1.359375 0.296875l-1.25 0l0 2.984375l-1.328125 0zm1.328125 -4.1875l1.25 0q0.5625 0 0.890625 -0.328125q0.34375 -0.328125 0.34375 -0.859375q0 -0.5625 -0.34375 -0.875q-0.328125 -0.328125 -0.890625 -0.328125l-1.25 0l0 2.390625zm5.190689 4.1875l0 -1.171875l1.578125 0l0 -5.4375l-1.578125 0l0 -1.171875l4.484375 0l0 1.171875l-1.5625 0l0 5.4375l1.5625 0l0 1.171875l-4.484375 0zm6.268814 0l0 -7.78125l2.375 0q1.140625 0 1.796875 0.546875q0.65625 0.53125 0.65625 1.453125q0 0.53125 -0.234375 0.921875q-0.234375 0.375 -0.640625 0.59375q-0.390625 0.203125 -0.90625 0.203125l0 -0.046875q0.5625 0 1.0 0.21875q0.4375 0.21875 0.703125 0.640625q0.265625 0.421875 0.265625 1.03125q0 0.671875 -0.3125 1.171875q-0.3125 0.5 -0.875 0.78125q-0.546875 0.265625 -1.328125 0.265625l-2.5 0zm1.296875 -1.109375l1.109375 0q0.59375 0 0.921875 -0.3125q0.34375 -0.3125 0.34375 -0.859375q0 -0.546875 -0.34375 -0.875q-0.328125 -0.34375 -0.921875 -0.34375l-1.109375 0l0 2.390625zm0 -3.46875l1.0625 0q0.53125 0 0.828125 -0.28125q0.3125 -0.28125 0.3125 -0.765625q0 -0.484375 -0.3125 -0.765625q-0.296875 -0.28125 -0.828125 -0.28125l-1.0625 0l0 2.09375zm7.471939 4.6875q-0.734375 0 -1.296875 -0.28125q-0.546875 -0.296875 -0.859375 -0.8125q-0.296875 -0.515625 -0.296875 -1.203125l0 -1.484375q0 -0.6875 0.296875 -1.203125q0.3125 -0.515625 0.859375 -0.796875q0.5625 -0.296875 1.296875 -0.296875q0.734375 0 1.28125 0.296875q0.5625 0.28125 0.859375 0.796875q0.296875 0.515625 0.296875 1.203125l0 1.0625l-3.609375 0l0 0.421875q0 0.609375 0.296875 0.921875q0.296875 0.3125 0.890625 0.3125q0.453125 0 0.71875 -0.140625q0.28125 -0.15625 0.359375 -0.46875l1.3125 0q-0.15625 0.765625 -0.8125 1.21875q-0.65625 0.453125 -1.59375 0.453125zm1.15625 -3.46875l0 -0.3125q0 -0.609375 -0.296875 -0.9375q-0.28125 -0.328125 -0.859375 -0.328125q-0.578125 0 -0.875 0.34375q-0.296875 0.328125 -0.296875 0.921875l0 0.234375l2.421875 -0.03125l-0.09375 0.109375zm2.862564 3.359375l0 -5.859375l1.296875 0l0 1.125l0.359375 0l-0.359375 0.296875q0 -0.71875 0.421875 -1.125q0.421875 -0.40625 1.15625 -0.40625q0.859375 0 1.375 0.578125q0.515625 0.578125 0.515625 1.546875l0 3.84375l-1.328125 0l0 -3.703125q0 -0.53125 -0.28125 -0.8125q-0.28125 -0.296875 -0.78125 -0.296875q-0.484375 0 -0.765625 0.296875q-0.28125 0.296875 -0.28125 0.84375l0 3.671875l-1.328125 0zm8.800064 0.109375q-0.75 0 -1.3125 -0.28125q-0.5625 -0.28125 -0.875 -0.796875q-0.296875 -0.515625 -0.296875 -1.21875l0 -1.484375q0 -0.703125 0.296875 -1.21875q0.3125 -0.515625 0.875 -0.796875q0.5625 -0.28125 1.3125 -0.28125q1.109375 0 1.765625 0.578125q0.65625 0.5625 0.6875 1.546875l-1.328125 0q-0.03125 -0.46875 -0.328125 -0.71875q-0.296875 -0.25 -0.796875 -0.25q-0.53125 0 -0.84375 0.296875q-0.3125 0.296875 -0.3125 0.84375l0 1.484375q0 0.53125 0.3125 0.828125q0.3125 0.296875 0.84375 0.296875q0.5 0 0.796875 -0.25q0.296875 -0.25 0.328125 -0.703125l1.328125 0q-0.03125 0.984375 -0.6875 1.5625q-0.65625 0.5625 -1.765625 0.5625zm3.987564 -0.109375l0 -7.78125l1.328125 0l0 1.921875l-0.03125 1.125l0.359375 0l-0.359375 0.296875q0 -0.71875 0.421875 -1.125q0.421875 -0.40625 1.15625 -0.40625q0.859375 0 1.375 0.578125q0.515625 0.578125 0.515625 1.546875l0 3.84375l-1.328125 0l0 -3.703125q0 -0.53125 -0.28125 -0.8125q-0.28125 -0.296875 -0.78125 -0.296875q-0.484375 0 -0.765625 0.296875q-0.28125 0.296875 -0.28125 0.84375l0 3.671875l-1.328125 0z" fill-rule="nonzero"/><path fill="#d9d2e9" d="m100.282166 242.84525l7.9999847 -5.8347473l7.9999847 5.8347473l-3.055725 9.440811l-9.888519 0z" fill-rule="evenodd"/><path stroke="#000000" stroke-width="1.0" stroke-linejoin="round" stroke-linecap="butt" d="m100.282166 242.84525l7.9999847 -5.8347473l7.9999847 5.8347473l-3.055725 9.440811l-9.888519 0z" fill-rule="evenodd"/><path fill="#000000" fill-opacity="0.0" d="m104.54199 230.30971l81.921265 0l0 32.314957l-81.921265 0z" fill-rule="evenodd"/><path fill="#000000" d="m133.30875 249.54971l0 -7.78125l1.578125 0l0.765625 2.46875q0.109375 0.375 0.1875 0.6875q0.078125 0.3125 0.09375 0.453125q0.015625 -0.140625 0.09375 -0.453125q0.078125 -0.3125 0.1875 -0.6875l0.71875 -2.46875l1.578125 0l0 7.78125l-1.25 0l0 -2.421875q0 -0.53125 0.03125 -1.15625q0.03125 -0.625 0.078125 -1.25q0.046875 -0.640625 0.09375 -1.203125q0.0625 -0.5625 0.109375 -0.984375l-1.046875 3.671875l-1.21875 0l-1.0625 -3.671875q0.046875 0.390625 0.09375 0.953125q0.0625 0.546875 0.109375 1.171875q0.046875 0.625 0.078125 1.265625q0.03125 0.625 0.03125 1.203125l0 2.421875l-1.25 0zm6.628189 0l0 -7.78125l2.375 0q1.140625 0 1.796875 0.546875q0.65625 0.53125 0.65625 1.453125q0 0.53125 -0.234375 0.921875q-0.234375 0.375 -0.640625 0.59375q-0.390625 0.203125 -0.90625 0.203125l0 -0.046875q0.5625 0 1.0 0.21875q0.4375 0.21875 0.703125 0.640625q0.265625 0.421875 0.265625 1.03125q0 0.671875 -0.3125 1.171875q-0.3125 0.5 -0.875 0.78125q-0.546875 0.265625 -1.328125 0.265625l-2.5 0zm1.296875 -1.109375l1.109375 0q0.59375 0 0.921875 -0.3125q0.34375 -0.3125 0.34375 -0.859375q0 -0.546875 -0.34375 -0.875q-0.328125 -0.34375 -0.921875 -0.34375l-1.109375 0l0 2.390625zm0 -3.46875l1.0625 0q0.53125 0 0.828125 -0.28125q0.3125 -0.28125 0.3125 -0.765625q0 -0.484375 -0.3125 -0.765625q-0.296875 -0.28125 -0.828125 -0.28125l-1.0625 0l0 2.09375zm5.096939 4.578125l0 -7.78125l2.578125 0q0.78125 0 1.359375 0.296875q0.578125 0.296875 0.890625 0.84375q0.328125 0.53125 0.328125 1.265625q0 0.703125 -0.328125 1.25q-0.3125 0.546875 -0.890625 0.84375q-0.578125 0.296875 -1.359375 0.296875l-1.25 0l0 2.984375l-1.328125 0zm1.328125 -4.1875l1.25 0q0.5625 0 0.890625 -0.328125q0.34375 -0.328125 0.34375 -0.859375q0 -0.5625 -0.34375 -0.875q-0.328125 -0.328125 -0.890625 -0.328125l-1.25 0l0 2.390625zm5.065689 4.1875l0 -7.78125l2.578125 0q0.78125 0 1.359375 0.296875q0.578125 0.296875 0.890625 0.84375q0.328125 0.53125 0.328125 1.265625q0 0.703125 -0.328125 1.25q-0.3125 0.546875 -0.890625 0.84375q-0.578125 0.296875 -1.359375 0.296875l-1.25 0l0 2.984375l-1.328125 0zm1.328125 -4.1875l1.25 0q0.5625 0 0.890625 -0.328125q0.34375 -0.328125 0.34375 -0.859375q0 -0.5625 -0.34375 -0.875q-0.328125 -0.328125 -0.890625 -0.328125l-1.25 0l0 2.390625z" fill-rule="nonzero"/><path fill="#85200c" d="m100.28215 272.01575l3.275589 -13.102356l9.448822 0l3.275589 13.102356z" fill-rule="evenodd"/><path stroke="#000000" stroke-width="1.0" stroke-linejoin="round" stroke-linecap="butt" d="m100.28215 272.01575l3.275589 -13.102356l9.448822 0l3.275589 13.102356z" fill-rule="evenodd"/><path fill="#000000" fill-opacity="0.0" d="m102.00394 249.49344l97.921265 0l0 32.314972l-97.921265 0z" fill-rule="evenodd"/><path fill="#000000" d="m122.95803 268.73343l0 -7.78125l1.625 0l2.171875 6.296875q-0.03125 -0.34375 -0.078125 -0.8125q-0.03125 -0.46875 -0.0625 -0.953125q-0.015625 -0.484375 -0.015625 -0.84375l0 -3.6875l1.21875 0l0 7.78125l-1.625 0l-2.140625 -6.28125q0.015625 0.296875 0.046875 0.734375q0.03125 0.4375 0.046875 0.90625q0.03125 0.453125 0.03125 0.84375l0 3.796875l-1.21875 0zm8.831306 0.109375q-1.125 0 -1.765625 -0.625q-0.640625 -0.625 -0.640625 -1.703125l0 -3.640625l1.328125 0l0 3.625q0 0.578125 0.28125 0.875q0.28125 0.296875 0.796875 0.296875q0.5 0 0.78125 -0.296875q0.28125 -0.296875 0.28125 -0.875l0 -3.625l1.328125 0l0 3.640625q0 1.078125 -0.65625 1.703125q-0.640625 0.625 -1.734375 0.625zm3.737564 -0.109375l0 -5.859375l1.09375 0l0 0.78125l0.21875 0l-0.171875 0.203125q0 -0.5 0.265625 -0.796875q0.28125 -0.296875 0.71875 -0.296875q0.46875 0 0.734375 0.390625q0.265625 0.375 0.265625 1.03125l-0.234375 -0.53125l0.359375 0l-0.140625 0.203125q0 -0.5 0.265625 -0.796875q0.28125 -0.296875 0.75 -0.296875q0.546875 0 0.859375 0.40625q0.3125 0.40625 0.3125 1.09375l0 4.46875l-1.171875 0l0 -4.40625q0 -0.296875 -0.125 -0.453125q-0.125 -0.171875 -0.375 -0.171875q-0.234375 0 -0.375 0.171875q-0.125 0.15625 -0.125 0.453125l0 4.40625l-0.953125 0l0 -4.40625q0 -0.296875 -0.125 -0.453125q-0.125 -0.171875 -0.375 -0.171875q-0.25 0 -0.375 0.171875q-0.125 0.15625 -0.125 0.453125l0 4.40625l-1.171875 0zm6.675064 1.921875l0 -7.78125l1.296875 0l0 1.125l0.296875 0l-0.296875 0.296875q0 -0.703125 0.421875 -1.109375q0.421875 -0.421875 1.15625 -0.421875q0.875 0 1.40625 0.609375q0.53125 0.609375 0.53125 1.625l0 1.59375q0 0.6875 -0.234375 1.1875q-0.234375 0.5 -0.671875 0.78125q-0.4375 0.28125 -1.03125 0.28125q-0.734375 0 -1.15625 -0.40625q-0.421875 -0.421875 -0.421875 -1.125l0.296875 0.296875l-0.3125 0l0.046875 1.40625l0 1.640625l-1.328125 0zm2.40625 -2.96875q0.5 0 0.78125 -0.296875q0.296875 -0.296875 0.296875 -0.84375l0 -1.484375q0 -0.546875 -0.296875 -0.84375q-0.28125 -0.296875 -0.78125 -0.296875q-0.5 0 -0.796875 0.3125q-0.28125 0.296875 -0.28125 0.828125l0 1.484375q0 0.53125 0.28125 0.84375q0.296875 0.296875 0.796875 0.296875zm4.925064 2.96875l0.828125 -2.234375l-2.1875 -5.546875l1.453125 0l1.09375 3.0q0.078125 0.234375 0.15625 0.59375q0.09375 0.34375 0.140625 0.5625q0.046875 -0.21875 0.125 -0.5625q0.09375 -0.359375 0.1875 -0.59375l1.015625 -3.0l1.40625 0l-2.8125 7.78125l-1.40625 0zm5.565689 -1.921875l0 -7.78125l4.671875 0l0 1.15625l-3.359375 0l0 2.03125l2.984375 0l0 1.15625l-2.984375 0l0 2.28125l3.359375 0l0 1.15625l-4.671875 0zm7.800064 0l-1.921875 -5.859375l1.359375 0l1.125 3.5625q0.09375 0.3125 0.171875 0.65625q0.09375 0.34375 0.140625 0.546875q0.046875 -0.203125 0.125 -0.546875q0.09375 -0.34375 0.1875 -0.65625l1.09375 -3.5625l1.359375 0l-1.921875 5.859375l-1.71875 0zm6.596939 0.109375q-0.90625 0 -1.4375 -0.484375q-0.515625 -0.484375 -0.515625 -1.28125q0 -0.875 0.578125 -1.34375q0.578125 -0.46875 1.625 -0.46875l1.46875 0l0 -0.5q0 -0.421875 -0.28125 -0.65625q-0.28125 -0.25 -0.75 -0.25q-0.4375 0 -0.734375 0.203125q-0.28125 0.1875 -0.34375 0.515625l-1.296875 0q0.09375 -0.828125 0.75 -1.3125q0.65625 -0.5 1.65625 -0.5q1.078125 0 1.703125 0.546875q0.625 0.53125 0.625 1.453125l0 3.96875l-1.28125 0l0 -1.015625l-0.21875 0l0.21875 -0.296875q0 0.65625 -0.484375 1.046875q-0.484375 0.375 -1.28125 0.375zm0.4375 -1.0q0.5625 0 0.921875 -0.28125q0.359375 -0.296875 0.359375 -0.75l0 -0.71875l-1.4375 0q-0.40625 0 -0.65625 0.234375q-0.25 0.234375 -0.25 0.609375q0 0.421875 0.28125 0.671875q0.296875 0.234375 0.78125 0.234375zm7.503189 0.890625q-0.578125 0 -1.015625 -0.234375q-0.421875 -0.234375 -0.671875 -0.65625q-0.25 -0.4375 -0.25 -1.0l0 -4.6875l-1.875 0l0 -1.203125l3.21875 0l0 5.890625q0 0.3125 0.1875 0.5q0.1875 0.1875 0.5 0.1875l1.765625 0l0 1.203125l-1.859375 0z" fill-rule="nonzero"/><path fill="#cfe2f3" d="m200.5105 222.9685l3.5433044 0l0 -3.5433044l7.086624 0l0 3.5433044l3.5433044 0l0 8.18898l-3.5433044 0l0 3.5433044l-7.086624 0l0 -3.5433044l-3.5433044 0z" fill-rule="evenodd"/><path stroke="#000000" stroke-width="1.0" stroke-linejoin="round" stroke-linecap="butt" d="m200.5105 222.9685l3.5433044 0l0 -3.5433044l7.086624 0l0 3.5433044l3.5433044 0l0 8.18898l-3.5433044 0l0 3.5433044l-7.086624 0l0 -3.5433044l-3.5433044 0z" fill-rule="evenodd"/><path fill="#ffe599" d="m200.5105 245.72047l0 0c0 -4.2182465 3.581726 -7.637802 8.0 -7.637802l0 0c2.1217346 0 4.1565704 0.80470276 5.6568604 2.2370605c1.5002899 1.432373 2.3431396 3.3750763 2.3431396 5.4007416l0 0c0 4.218231 -3.581726 7.637787 -8.0 7.637787l0 0c-4.418274 0 -8.0 -3.4195557 -8.0 -7.637787z" fill-rule="evenodd"/><path stroke="#000000" stroke-width="1.0" stroke-linejoin="round" stroke-linecap="butt" d="m200.5105 245.72047l0 0c0 -4.2182465 3.581726 -7.637802 8.0 -7.637802l0 0c2.1217346 0 4.1565704 0.80470276 5.6568604 2.2370605c1.5002899 1.432373 2.3431396 3.3750763 2.3431396 5.4007416l0 0c0 4.218231 -3.581726 7.637787 -8.0 7.637787l0 0c-4.418274 0 -8.0 -3.4195557 -8.0 -7.637787z" fill-rule="evenodd"/><path fill="#f9cb9c" d="m201.78609 272.01575l0 -15.275604l16.0 15.275604z" fill-rule="evenodd"/><path stroke="#000000" stroke-width="1.0" stroke-linejoin="round" stroke-linecap="butt" d="m201.78609 272.01575l0 -15.275604l16.0 15.275604z" fill-rule="evenodd"/><path fill="#000000" fill-opacity="0.0" d="m216.01181 230.30971l81.921265 0l0 32.314957l-81.921265 0z" fill-rule="evenodd"/><path fill="#000000" d="m229.0284 249.54971l0 -7.78125l1.328125 0l0 3.125l2.078125 0l0 -3.125l1.34375 0l0 7.78125l-1.34375 0l0 -3.421875l-2.078125 0l0 3.421875l-1.328125 0zm8.768814 0.109375q-1.125 0 -1.765625 -0.625q-0.640625 -0.625 -0.640625 -1.703125l0 -3.640625l1.328125 0l0 3.625q0 0.578125 0.28125 0.875q0.28125 0.296875 0.796875 0.296875q0.5 0 0.78125 -0.296875q0.28125 -0.296875 0.28125 -0.875l0 -3.625l1.328125 0l0 3.640625q0 1.078125 -0.65625 1.703125q-0.640625 0.625 -1.734375 0.625zm3.737564 -0.109375l0 -5.859375l1.09375 0l0 0.78125l0.21875 0l-0.171875 0.203125q0 -0.5 0.265625 -0.796875q0.28125 -0.296875 0.71875 -0.296875q0.46875 0 0.734375 0.390625q0.265625 0.375 0.265625 1.03125l-0.234375 -0.53125l0.359375 0l-0.140625 0.203125q0 -0.5 0.265625 -0.796875q0.28125 -0.296875 0.75 -0.296875q0.546875 0 0.859375 0.40625q0.3125 0.40625 0.3125 1.09375l0 4.46875l-1.171875 0l0 -4.40625q0 -0.296875 -0.125 -0.453125q-0.125 -0.171875 -0.375 -0.171875q-0.234375 0 -0.375 0.171875q-0.125 0.15625 -0.125 0.453125l0 4.40625l-0.953125 0l0 -4.40625q0 -0.296875 -0.125 -0.453125q-0.125 -0.171875 -0.375 -0.171875q-0.25 0 -0.375 0.171875q-0.125 0.15625 -0.125 0.453125l0 4.40625l-1.171875 0zm8.393829 0.109375q-0.90625 0 -1.4375 -0.484375q-0.51564026 -0.484375 -0.51564026 -1.28125q0 -0.875 0.57814026 -1.34375q0.578125 -0.46875 1.625 -0.46875l1.46875 0l0 -0.5q0 -0.421875 -0.28125 -0.65625q-0.28125 -0.25 -0.75 -0.25q-0.4375 0 -0.734375 0.203125q-0.28125 0.1875 -0.34375 0.515625l-1.296875 0q0.09375 -0.828125 0.75 -1.3125q0.65625 -0.5 1.65625 -0.5q1.078125 0 1.703125 0.546875q0.625 0.53125 0.625 1.453125l0 3.96875l-1.28125 0l0 -1.015625l-0.21875 0l0.21875 -0.296875q0 0.65625 -0.484375 1.046875q-0.484375 0.375 -1.28125 0.375zm0.4375 -1.0q0.5625 0 0.921875 -0.28125q0.359375 -0.296875 0.359375 -0.75l0 -0.71875l-1.4375 0q-0.40625 0 -0.65625 0.234375q-0.25 0.234375 -0.25 0.609375q0 0.421875 0.28125 0.671875q0.296875 0.234375 0.78125 0.234375zm4.237564 0.890625l0 -5.859375l1.296875 0l0 1.125l0.359375 0l-0.359375 0.296875q0 -0.71875 0.421875 -1.125q0.421875 -0.40625 1.15625 -0.40625q0.859375 0 1.375 0.578125q0.515625 0.578125 0.515625 1.546875l0 3.84375l-1.328125 0l0 -3.703125q0 -0.53125 -0.28125 -0.8125q-0.28125 -0.296875 -0.78125 -0.296875q-0.484375 0 -0.765625 0.296875q-0.28125 0.296875 -0.28125 0.84375l0 3.671875l-1.328125 0zm6.503174 0l0 -7.78125l4.671875 0l0 1.15625l-3.359375 0l0 2.03125l2.984375 0l0 1.15625l-2.984375 0l0 2.28125l3.359375 0l0 1.15625l-4.671875 0zm7.8000793 0l-1.921875 -5.859375l1.359375 0l1.125 3.5625q0.09375 0.3125 0.171875 0.65625q0.09375 0.34375 0.140625 0.546875q0.046875 -0.203125 0.125 -0.546875q0.09375 -0.34375 0.1875 -0.65625l1.09375 -3.5625l1.359375 0l-1.921875 5.859375l-1.71875 0zm6.596924 0.109375q-0.90625 0 -1.4375 -0.484375q-0.515625 -0.484375 -0.515625 -1.28125q0 -0.875 0.578125 -1.34375q0.578125 -0.46875 1.625 -0.46875l1.46875 0l0 -0.5q0 -0.421875 -0.28125 -0.65625q-0.28125 -0.25 -0.75 -0.25q-0.4375 0 -0.734375 0.203125q-0.28125 0.1875 -0.34375 0.515625l-1.296875 0q0.09375 -0.828125 0.75 -1.3125q0.65625 -0.5 1.65625 -0.5q1.078125 0 1.703125 0.546875q0.625 0.53125 0.625 1.453125l0 3.96875l-1.28125 0l0 -1.015625l-0.21875 0l0.21875 -0.296875q0 0.65625 -0.484375 1.046875q-0.484375 0.375 -1.28125 0.375zm0.4375 -1.0q0.5625 0 0.921875 -0.28125q0.359375 -0.296875 0.359375 -0.75l0 -0.71875l-1.4375 0q-0.40625 0 -0.65625 0.234375q-0.25 0.234375 -0.25 0.609375q0 0.421875 0.28125 0.671875q0.296875 0.234375 0.78125 0.234375zm7.5032043 0.890625q-0.578125 0 -1.015625 -0.234375q-0.421875 -0.234375 -0.671875 -0.65625q-0.25 -0.4375 -0.25 -1.0l0 -4.6875l-1.875 0l0 -1.203125l3.21875 0l0 5.890625q0 0.3125 0.1875 0.5q0.1875 0.1875 0.5 0.1875l1.765625 0l0 1.203125l-1.859375 0z" fill-rule="nonzero"/><path fill="#000000" fill-opacity="0.0" d="m207.42914 209.57217l99.08661 0l0 32.314972l-99.08661 0z" fill-rule="evenodd"/><path fill="#000000" d="m225.8315 228.81218l0 -7.78125l2.578125 0q0.78125 0 1.359375 0.296875q0.578125 0.296875 0.890625 0.84375q0.328125 0.53125 0.328125 1.265625q0 0.703125 -0.328125 1.25q-0.3125 0.546875 -0.890625 0.84375q-0.578125 0.296875 -1.359375 0.296875l-1.25 0l0 2.984375l-1.328125 0zm1.328125 -4.1875l1.25 0q0.5625 0 0.890625 -0.328125q0.34375 -0.328125 0.34375 -0.859375q0 -0.5625 -0.34375 -0.875q-0.328125 -0.328125 -0.890625 -0.328125l-1.25 0l0 2.390625zm6.784439 4.296875q-0.90625 0 -1.4375 -0.484375q-0.515625 -0.484375 -0.515625 -1.28125q0 -0.875 0.578125 -1.34375q0.578125 -0.46875 1.625 -0.46875l1.46875 0l0 -0.5q0 -0.421875 -0.28125 -0.65625q-0.28125 -0.25 -0.75 -0.25q-0.4375 0 -0.734375 0.203125q-0.28125 0.1875 -0.34375 0.515625l-1.296875 0q0.09375 -0.828125 0.75 -1.3125q0.65625 -0.5 1.65625 -0.5q1.078125 0 1.703125 0.546875q0.625 0.53125 0.625 1.453125l0 3.96875l-1.28125 0l0 -1.015625l-0.21875 0l0.21875 -0.296875q0 0.65625 -0.484375 1.046875q-0.484375 0.375 -1.28125 0.375zm0.4375 -1.0q0.5625 0 0.921875 -0.28125q0.359375 -0.296875 0.359375 -0.75l0 -0.71875l-1.4375 0q-0.40625 0 -0.65625 0.234375q-0.25 0.234375 -0.25 0.609375q0 0.421875 0.28125 0.671875q0.296875 0.234375 0.78125 0.234375zm4.237564 0.890625l0 -5.859375l1.296875 0l0 1.125l0.359375 0l-0.359375 0.296875q0 -0.71875 0.421875 -1.125q0.421875 -0.40625 1.15625 -0.40625q0.859375 0 1.375 0.578125q0.515625 0.578125 0.515625 1.546875l0 3.84375l-1.328125 0l0 -3.703125q0 -0.53125 -0.28125 -0.8125q-0.28125 -0.296875 -0.78125 -0.296875q-0.484375 0 -0.765625 0.296875q-0.28125 0.296875 -0.28125 0.84375l0 3.671875l-1.328125 0zm8.268814 0.109375q-0.875 0 -1.421875 -0.609375q-0.53125 -0.609375 -0.53125 -1.625l0 -1.59375q0 -1.03125 0.53125 -1.640625q0.53125 -0.609375 1.421875 -0.609375q0.71875 0 1.140625 0.421875q0.421875 0.40625 0.421875 1.109375l-0.296875 -0.296875l0.3125 0l-0.046875 -1.40625l0 -1.640625l1.34375 0l0 7.78125l-1.3125 0l0 -1.125l-0.296875 0l0.296875 -0.296875q0 0.703125 -0.421875 1.125q-0.421875 0.40625 -1.140625 0.40625zm0.46875 -1.15625q0.5 0 0.78125 -0.296875q0.28125 -0.3125 0.28125 -0.84375l0 -1.484375q0 -0.53125 -0.28125 -0.828125q-0.28125 -0.3125 -0.78125 -0.3125q-0.515625 0 -0.8125 0.296875q-0.28125 0.296875 -0.28125 0.84375l0 1.484375q0 0.546875 0.28125 0.84375q0.296875 0.296875 0.8125 0.296875zm5.768814 1.15625q-0.90625 0 -1.4375 -0.484375q-0.515625 -0.484375 -0.515625 -1.28125q0 -0.875 0.578125 -1.34375q0.578125 -0.46875 1.625 -0.46875l1.46875 0l0 -0.5q0 -0.421875 -0.28125 -0.65625q-0.28125 -0.25 -0.75 -0.25q-0.4375 0 -0.734375 0.203125q-0.28125 0.1875 -0.34375 0.515625l-1.296875 0q0.09375 -0.828125 0.75 -1.3125q0.65625 -0.5 1.65625 -0.5q1.078125 0 1.703125 0.546875q0.62498474 0.53125 0.62498474 1.453125l0 3.96875l-1.2812347 0l0 -1.015625l-0.21875 0l0.21875 -0.296875q0 0.65625 -0.484375 1.046875q-0.484375 0.375 -1.28125 0.375zm0.4375 -1.0q0.5625 0 0.921875 -0.28125q0.359375 -0.296875 0.359375 -0.75l0 -0.71875l-1.4375 0q-0.40625 0 -0.65625 0.234375q-0.25 0.234375 -0.25 0.609375q0 0.421875 0.28125 0.671875q0.296875 0.234375 0.78125 0.234375zm6.378189 0.984375q-0.671875 0 -1.171875 -0.203125q-0.5 -0.21875 -0.78125 -0.59375q-0.28125 -0.390625 -0.296875 -0.890625l1.328125 0q0.015625 0.265625 0.265625 0.4375q0.25 0.171875 0.65625 0.171875l0.46875 0q0.5 0 0.734375 -0.1875q0.25 -0.1875 0.25 -0.515625q0 -0.3125 -0.21875 -0.484375q-0.21875 -0.1875 -0.671875 -0.234375l-0.734375 -0.109375q-1.0 -0.140625 -1.46875 -0.53125q-0.46875 -0.390625 -0.46875 -1.1875q0 -0.8125 0.546875 -1.265625q0.5625 -0.453125 1.640625 -0.453125l0.40625 0q0.984375 0 1.5625 0.4375q0.59375 0.4375 0.625 1.171875l-1.328125 0q-0.03125 -0.234375 -0.265625 -0.375q-0.21875 -0.15625 -0.59375 -0.15625l-0.40625 0q-0.453125 0 -0.671875 0.171875q-0.203125 0.15625 -0.203125 0.46875q0 0.296875 0.171875 0.453125q0.1875 0.140625 0.59375 0.203125l0.765625 0.109375q1.03125 0.140625 1.53125 0.5625q0.5 0.40625 0.5 1.203125q0 0.84375 -0.578125 1.328125q-0.578125 0.46875 -1.71875 0.46875l-0.46875 0zm4.362549 -0.09375l0 -7.78125l4.671875 0l0 1.15625l-3.359375 0l0 2.03125l2.984375 0l0 1.15625l-2.984375 0l0 2.28125l3.359375 0l0 1.15625l-4.671875 0zm7.8000793 0l-1.921875 -5.859375l1.359375 0l1.125 3.5625q0.09375 0.3125 0.171875 0.65625q0.09375 0.34375 0.140625 0.546875q0.046875 -0.203125 0.125 -0.546875q0.09375 -0.34375 0.1875 -0.65625l1.09375 -3.5625l1.359375 0l-1.921875 5.859375l-1.71875 0zm6.596924 0.109375q-0.90625 0 -1.4375 -0.484375q-0.515625 -0.484375 -0.515625 -1.28125q0 -0.875 0.578125 -1.34375q0.578125 -0.46875 1.625 -0.46875l1.46875 0l0 -0.5q0 -0.421875 -0.28125 -0.65625q-0.28125 -0.25 -0.75 -0.25q-0.4375 0 -0.734375 0.203125q-0.28125 0.1875 -0.34375 0.515625l-1.296875 0q0.09375 -0.828125 0.75 -1.3125q0.65625 -0.5 1.65625 -0.5q1.078125 0 1.703125 0.546875q0.625 0.53125 0.625 1.453125l0 3.96875l-1.28125 0l0 -1.015625l-0.21875 0l0.21875 -0.296875q0 0.65625 -0.484375 1.046875q-0.484375 0.375 -1.28125 0.375zm0.4375 -1.0q0.5625 0 0.921875 -0.28125q0.359375 -0.296875 0.359375 -0.75l0 -0.71875l-1.4375 0q-0.40625 0 -0.65625 0.234375q-0.25 0.234375 -0.25 0.609375q0 0.421875 0.28125 0.671875q0.296875 0.234375 0.78125 0.234375zm7.5032043 0.890625q-0.578125 0 -1.015625 -0.234375q-0.421875 -0.234375 -0.671875 -0.65625q-0.25 -0.4375 -0.25 -1.0l0 -4.6875l-1.875 0l0 -1.203125l3.21875 0l0 5.890625q0 0.3125 0.1875 0.5q0.1875 0.1875 0.5 0.1875l1.765625 0l0 1.203125l-1.859375 0z" fill-rule="nonzero"/><path fill="#000000" fill-opacity="0.0" d="m208.64174 248.22047l102.61418 0l0 32.314957l-102.61418 0z" fill-rule="evenodd"/><path fill="#000000" d="m220.92027 267.46048l0 -6.546875l-2.046875 0l0 -1.234375l5.421875 0l0 1.234375l-2.03125 0l0 6.546875l-1.34375 0zm7.065689 0.09375q-0.75 0 -1.296875 -0.28125q-0.546875 -0.28125 -0.859375 -0.796875q-0.296875 -0.515625 -0.296875 -1.21875l0 -1.453125q0 -0.703125 0.296875 -1.21875q0.3125 -0.515625 0.859375 -0.796875q0.546875 -0.28125 1.296875 -0.28125q0.75 0 1.296875 0.28125q0.546875 0.28125 0.84375 0.796875q0.296875 0.515625 0.296875 1.203125l0 1.46875q0 0.703125 -0.296875 1.21875q-0.296875 0.515625 -0.84375 0.796875q-0.546875 0.28125 -1.296875 0.28125zm0 -1.15625q0.53125 0 0.8125 -0.296875q0.296875 -0.296875 0.296875 -0.84375l0 -1.453125q0 -0.5625 -0.296875 -0.84375q-0.28125 -0.296875 -0.8125 -0.296875q-0.53125 0 -0.828125 0.296875q-0.296875 0.28125 -0.296875 0.84375l0 1.453125q0 0.546875 0.296875 0.84375q0.296875 0.296875 0.828125 0.296875zm4.190689 1.0625l0 -5.859375l1.265625 0l0 1.125l0.328125 0l-0.40625 0.671875q0 -0.953125 0.421875 -1.421875q0.4375 -0.484375 1.265625 -0.484375q0.953125 0 1.5 0.59375q0.546875 0.578125 0.546875 1.609375l0 0.4375l-1.40625 0l0 -0.34375q0 -0.5625 -0.296875 -0.859375q-0.28125 -0.3125 -0.796875 -0.3125q-0.515625 0 -0.8125 0.3125q-0.28125 0.296875 -0.28125 0.859375l0 3.671875l-1.328125 0zm8.628189 0.109375q-0.75 0 -1.3125 -0.28125q-0.5625 -0.28125 -0.875 -0.796875q-0.296875 -0.515625 -0.296875 -1.21875l0 -1.484375q0 -0.703125 0.296875 -1.21875q0.3125 -0.515625 0.875 -0.796875q0.5625 -0.28125 1.3125 -0.28125q1.109375 0 1.765625 0.578125q0.65625 0.5625 0.6875 1.546875l-1.328125 0q-0.03125 -0.46875 -0.328125 -0.71875q-0.296875 -0.25 -0.796875 -0.25q-0.53125 0 -0.84375 0.296875q-0.3125 0.296875 -0.3125 0.84375l0 1.484375q0 0.53125 0.3125 0.828125q0.3125 0.296875 0.84375 0.296875q0.5 0 0.796875 -0.25q0.296875 -0.25 0.328125 -0.703125l1.328125 0q-0.03125 0.984375 -0.6875 1.5625q-0.65625 0.5625 -1.765625 0.5625zm3.987564 -0.109375l0 -7.78125l1.328125 0l0 1.921875l-0.03125 1.125l0.359375 0l-0.359375 0.296875q0 -0.71875 0.421875 -1.125q0.421875 -0.40625 1.15625 -0.40625q0.859375 0 1.375 0.578125q0.515625 0.578125 0.515625 1.546875l0 3.84375l-1.328125 0l0 -3.703125q0 -0.53125 -0.28125 -0.8125q-0.28125 -0.296875 -0.78125 -0.296875q-0.484375 0 -0.765625 0.296875q-0.28125 0.296875 -0.28125 0.84375l0 3.671875l-1.328125 0zm6.362564 0l0 -7.78125l2.3125 0q0.796875 0 1.375 0.296875q0.578125 0.296875 0.890625 0.84375q0.328125 0.546875 0.328125 1.296875l0 2.90625q0 0.734375 -0.328125 1.28125q-0.3125 0.546875 -0.890625 0.859375q-0.578125 0.296875 -1.375 0.296875l-2.3125 0zm1.328125 -1.21875l0.984375 0q0.578125 0 0.921875 -0.328125q0.34375 -0.328125 0.34375 -0.890625l0 -2.90625q0 -0.5625 -0.34375 -0.875q-0.34375 -0.328125 -0.921875 -0.328125l-0.984375 0l0 5.328125zm6.8157043 1.328125q-0.90625 0 -1.4375 -0.484375q-0.515625 -0.484375 -0.515625 -1.28125q0 -0.875 0.578125 -1.34375q0.578125 -0.46875 1.625 -0.46875l1.46875 0l0 -0.5q0 -0.421875 -0.28125 -0.65625q-0.28125 -0.25 -0.75 -0.25q-0.4375 0 -0.734375 0.203125q-0.28125 0.1875 -0.34375 0.515625l-1.296875 0q0.09375 -0.828125 0.75 -1.3125q0.65625 -0.5 1.65625 -0.5q1.078125 0 1.703125 0.546875q0.625 0.53125 0.625 1.453125l0 3.96875l-1.28125 0l0 -1.015625l-0.21875 0l0.21875 -0.296875q0 0.65625 -0.484375 1.046875q-0.484375 0.375 -1.28125 0.375zm0.4375 -1.0q0.5625 0 0.921875 -0.28125q0.359375 -0.296875 0.359375 -0.75l0 -0.71875l-1.4375 0q-0.40625 0 -0.65625 0.234375q-0.25 0.234375 -0.25 0.609375q0 0.421875 0.28125 0.671875q0.296875 0.234375 0.78125 0.234375zm7.253174 0.890625q-0.84375 0 -1.328125 -0.46875q-0.46875 -0.46875 -0.46875 -1.296875l0 -2.890625l-1.59375 0l0 -1.203125l1.59375 0l0 -1.65625l1.34375 0l0 1.65625l2.25 0l0 1.203125l-2.25 0l0 2.890625q0 0.5625 0.546875 0.5625l1.59375 0l0 1.203125l-1.6875 0zm5.0969543 0.109375q-0.90625 0 -1.4375 -0.484375q-0.515625 -0.484375 -0.515625 -1.28125q0 -0.875 0.578125 -1.34375q0.578125 -0.46875 1.625 -0.46875l1.46875 0l0 -0.5q0 -0.421875 -0.28125 -0.65625q-0.28125 -0.25 -0.75 -0.25q-0.4375 0 -0.734375 0.203125q-0.28125 0.1875 -0.34375 0.515625l-1.296875 0q0.09375 -0.828125 0.75 -1.3125q0.65625 -0.5 1.65625 -0.5q1.078125 0 1.703125 0.546875q0.625 0.53125 0.625 1.453125l0 3.96875l-1.28125 0l0 -1.015625l-0.21875 0l0.21875 -0.296875q0 0.65625 -0.484375 1.046875q-0.484375 0.375 -1.28125 0.375zm0.4375 -1.0q0.5625 0 0.921875 -0.28125q0.359375 -0.296875 0.359375 -0.75l0 -0.71875l-1.4375 0q-0.40625 0 -0.65625 0.234375q-0.25 0.234375 -0.25 0.609375q0 0.421875 0.28125 0.671875q0.296875 0.234375 0.78125 0.234375zm4.346924 0.890625l0 -7.78125l4.671875 0l0 1.15625l-3.359375 0l0 2.03125l2.984375 0l0 1.15625l-2.984375 0l0 2.28125l3.359375 0l0 1.15625l-4.671875 0zm7.8000793 0l-1.921875 -5.859375l1.359375 0l1.125 3.5625q0.09375 0.3125 0.171875 0.65625q0.09375 0.34375 0.140625 0.546875q0.046875 -0.203125 0.125 -0.546875q0.09375 -0.34375 0.1875 -0.65625l1.09375 -3.5625l1.359375 0l-1.921875 5.859375l-1.71875 0zm6.596924 0.109375q-0.90625 0 -1.4375 -0.484375q-0.515625 -0.484375 -0.515625 -1.28125q0 -0.875 0.578125 -1.34375q0.578125 -0.46875 1.625 -0.46875l1.46875 0l0 -0.5q0 -0.421875 -0.28125 -0.65625q-0.28125 -0.25 -0.75 -0.25q-0.4375 0 -0.734375 0.203125q-0.28125 0.1875 -0.34375 0.515625l-1.296875 0q0.09375 -0.828125 0.75 -1.3125q0.65625 -0.5 1.65625 -0.5q1.078125 0 1.703125 0.546875q0.625 0.53125 0.625 1.453125l0 3.96875l-1.28125 0l0 -1.015625l-0.21875 0l0.21875 -0.296875q0 0.65625 -0.484375 1.046875q-0.484375 0.375 -1.28125 0.375zm0.4375 -1.0q0.5625 0 0.921875 -0.28125q0.359375 -0.296875 0.359375 -0.75l0 -0.71875l-1.4375 0q-0.40625 0 -0.65625 0.234375q-0.25 0.234375 -0.25 0.609375q0 0.421875 0.28125 0.671875q0.296875 0.234375 0.78125 0.234375zm7.5032043 0.890625q-0.578125 0 -1.015625 -0.234375q-0.421875 -0.234375 -0.671875 -0.65625q-0.25 -0.4375 -0.25 -1.0l0 -4.6875l-1.875 0l0 -1.203125l3.21875 0l0 5.890625q0 0.3125 0.1875 0.5q0.1875 0.1875 0.5 0.1875l1.765625 0l0 1.203125l-1.859375 0z" fill-rule="nonzero"/></g></svg>