<?xml version="1.0" encoding="utf-8" standalone="no"?>
<!DOCTYPE svg PUBLIC "-//W3C//DTD SVG 1.1//EN"
  "http://www.w3.org/Graphics/SVG/1.1/DTD/svg11.dtd">
<svg xmlns:xlink="http://www.w3.org/1999/xlink" width="871.728125pt" height="619.249375pt" viewBox="0 0 871.728125 619.249375" xmlns="http://www.w3.org/2000/svg" version="1.1">
 <metadata>
  <rdf:RDF xmlns:dc="http://purl.org/dc/elements/1.1/" xmlns:cc="http://creativecommons.org/ns#" xmlns:rdf="http://www.w3.org/1999/02/22-rdf-syntax-ns#">
   <cc:Work>
    <dc:type rdf:resource="http://purl.org/dc/dcmitype/StillImage"/>
    <dc:date>2024-07-12T15:09:33.696943</dc:date>
    <dc:format>image/svg+xml</dc:format>
    <dc:creator>
     <cc:Agent>
      <dc:title>Matplotlib v3.7.1, https://matplotlib.org/</dc:title>
     </cc:Agent>
    </dc:creator>
   </cc:Work>
  </rdf:RDF>
 </metadata>
 <defs>
  <style type="text/css">*{stroke-linejoin: round; stroke-linecap: butt}</style>
 </defs>
 <g id="figure_1">
  <g id="patch_1">
   <path d="M 0 619.249375 
L 871.728125 619.249375 
L 871.728125 0 
L 0 0 
z
" style="fill: #ffffff"/>
  </g>
  <g id="axes_1">
   <g id="patch_2">
    <path d="M 194.928125 579.7575 
L 864.528125 579.7575 
L 864.528125 25.3575 
L 194.928125 25.3575 
z
" style="fill: #ffffff"/>
   </g>
   <g id="matplotlib.axis_1">
    <g id="xtick_1">
     <g id="line2d_1">
      <path d="M 194.928125 579.7575 
L 194.928125 25.3575 
" clip-path="url(#p78bb7fc7f4)" style="fill: none; stroke-dasharray: 2.96,1.28; stroke-dashoffset: 0; stroke: #808080; stroke-opacity: 0.2; stroke-width: 0.8"/>
     </g>
     <g id="line2d_2">
      <defs>
       <path id="m4ee2f9df4d" d="M 0 0 
L 0 3.5 
" style="stroke: #000000; stroke-width: 0.8"/>
      </defs>
      <g>
       <use xlink:href="#m4ee2f9df4d" x="194.928125" y="579.7575" style="stroke: #000000; stroke-width: 0.8"/>
      </g>
     </g>
     <g id="text_1">
      <!-- 0 -->
      <g transform="translate(191.746875 594.355938) scale(0.1 -0.1)">
       <defs>
        <path id="DejaVuSans-30" d="M 2034 4250 
Q 1547 4250 1301 3770 
Q 1056 3291 1056 2328 
Q 1056 1369 1301 889 
Q 1547 409 2034 409 
Q 2525 409 2770 889 
Q 3016 1369 3016 2328 
Q 3016 3291 2770 3770 
Q 2525 4250 2034 4250 
z
M 2034 4750 
Q 2819 4750 3233 4129 
Q 3647 3509 3647 2328 
Q 3647 1150 3233 529 
Q 2819 -91 2034 -91 
Q 1250 -91 836 529 
Q 422 1150 422 2328 
Q 422 3509 836 4129 
Q 1250 4750 2034 4750 
z
" transform="scale(0.015625)"/>
       </defs>
       <use xlink:href="#DejaVuSans-30"/>
      </g>
     </g>
    </g>
    <g id="xtick_2">
     <g id="line2d_3">
      <path d="M 294.260568 579.7575 
L 294.260568 25.3575 
" clip-path="url(#p78bb7fc7f4)" style="fill: none; stroke-dasharray: 2.96,1.28; stroke-dashoffset: 0; stroke: #808080; stroke-opacity: 0.2; stroke-width: 0.8"/>
     </g>
     <g id="line2d_4">
      <g>
       <use xlink:href="#m4ee2f9df4d" x="294.260568" y="579.7575" style="stroke: #000000; stroke-width: 0.8"/>
      </g>
     </g>
     <g id="text_2">
      <!-- 5 -->
      <g transform="translate(291.079318 594.355938) scale(0.1 -0.1)">
       <defs>
        <path id="DejaVuSans-35" d="M 691 4666 
L 3169 4666 
L 3169 4134 
L 1269 4134 
L 1269 2991 
Q 1406 3038 1543 3061 
Q 1681 3084 1819 3084 
Q 2600 3084 3056 2656 
Q 3513 2228 3513 1497 
Q 3513 744 3044 326 
Q 2575 -91 1722 -91 
Q 1428 -91 1123 -41 
Q 819 9 494 109 
L 494 744 
Q 775 591 1075 516 
Q 1375 441 1709 441 
Q 2250 441 2565 725 
Q 2881 1009 2881 1497 
Q 2881 1984 2565 2268 
Q 2250 2553 1709 2553 
Q 1456 2553 1204 2497 
Q 953 2441 691 2322 
L 691 4666 
z
" transform="scale(0.015625)"/>
       </defs>
       <use xlink:href="#DejaVuSans-35"/>
      </g>
     </g>
    </g>
    <g id="xtick_3">
     <g id="line2d_5">
      <path d="M 393.593012 579.7575 
L 393.593012 25.3575 
" clip-path="url(#p78bb7fc7f4)" style="fill: none; stroke-dasharray: 2.96,1.28; stroke-dashoffset: 0; stroke: #808080; stroke-opacity: 0.2; stroke-width: 0.8"/>
     </g>
     <g id="line2d_6">
      <g>
       <use xlink:href="#m4ee2f9df4d" x="393.593012" y="579.7575" style="stroke: #000000; stroke-width: 0.8"/>
      </g>
     </g>
     <g id="text_3">
      <!-- 10 -->
      <g transform="translate(387.230512 594.355938) scale(0.1 -0.1)">
       <defs>
        <path id="DejaVuSans-31" d="M 794 531 
L 1825 531 
L 1825 4091 
L 703 3866 
L 703 4441 
L 1819 4666 
L 2450 4666 
L 2450 531 
L 3481 531 
L 3481 0 
L 794 0 
L 794 531 
z
" transform="scale(0.015625)"/>
       </defs>
       <use xlink:href="#DejaVuSans-31"/>
       <use xlink:href="#DejaVuSans-30" x="63.623047"/>
      </g>
     </g>
    </g>
    <g id="xtick_4">
     <g id="line2d_7">
      <path d="M 492.925455 579.7575 
L 492.925455 25.3575 
" clip-path="url(#p78bb7fc7f4)" style="fill: none; stroke-dasharray: 2.96,1.28; stroke-dashoffset: 0; stroke: #808080; stroke-opacity: 0.2; stroke-width: 0.8"/>
     </g>
     <g id="line2d_8">
      <g>
       <use xlink:href="#m4ee2f9df4d" x="492.925455" y="579.7575" style="stroke: #000000; stroke-width: 0.8"/>
      </g>
     </g>
     <g id="text_4">
      <!-- 15 -->
      <g transform="translate(486.562955 594.355938) scale(0.1 -0.1)">
       <use xlink:href="#DejaVuSans-31"/>
       <use xlink:href="#DejaVuSans-35" x="63.623047"/>
      </g>
     </g>
    </g>
    <g id="xtick_5">
     <g id="line2d_9">
      <path d="M 592.257898 579.7575 
L 592.257898 25.3575 
" clip-path="url(#p78bb7fc7f4)" style="fill: none; stroke-dasharray: 2.96,1.28; stroke-dashoffset: 0; stroke: #808080; stroke-opacity: 0.2; stroke-width: 0.8"/>
     </g>
     <g id="line2d_10">
      <g>
       <use xlink:href="#m4ee2f9df4d" x="592.257898" y="579.7575" style="stroke: #000000; stroke-width: 0.8"/>
      </g>
     </g>
     <g id="text_5">
      <!-- 20 -->
      <g transform="translate(585.895398 594.355938) scale(0.1 -0.1)">
       <defs>
        <path id="DejaVuSans-32" d="M 1228 531 
L 3431 531 
L 3431 0 
L 469 0 
L 469 531 
Q 828 903 1448 1529 
Q 2069 2156 2228 2338 
Q 2531 2678 2651 2914 
Q 2772 3150 2772 3378 
Q 2772 3750 2511 3984 
Q 2250 4219 1831 4219 
Q 1534 4219 1204 4116 
Q 875 4013 500 3803 
L 500 4441 
Q 881 4594 1212 4672 
Q 1544 4750 1819 4750 
Q 2544 4750 2975 4387 
Q 3406 4025 3406 3419 
Q 3406 3131 3298 2873 
Q 3191 2616 2906 2266 
Q 2828 2175 2409 1742 
Q 1991 1309 1228 531 
z
" transform="scale(0.015625)"/>
       </defs>
       <use xlink:href="#DejaVuSans-32"/>
       <use xlink:href="#DejaVuSans-30" x="63.623047"/>
      </g>
     </g>
    </g>
    <g id="xtick_6">
     <g id="line2d_11">
      <path d="M 691.590341 579.7575 
L 691.590341 25.3575 
" clip-path="url(#p78bb7fc7f4)" style="fill: none; stroke-dasharray: 2.96,1.28; stroke-dashoffset: 0; stroke: #808080; stroke-opacity: 0.2; stroke-width: 0.8"/>
     </g>
     <g id="line2d_12">
      <g>
       <use xlink:href="#m4ee2f9df4d" x="691.590341" y="579.7575" style="stroke: #000000; stroke-width: 0.8"/>
      </g>
     </g>
     <g id="text_6">
      <!-- 25 -->
      <g transform="translate(685.227841 594.355938) scale(0.1 -0.1)">
       <use xlink:href="#DejaVuSans-32"/>
       <use xlink:href="#DejaVuSans-35" x="63.623047"/>
      </g>
     </g>
    </g>
    <g id="xtick_7">
     <g id="line2d_13">
      <path d="M 790.922785 579.7575 
L 790.922785 25.3575 
" clip-path="url(#p78bb7fc7f4)" style="fill: none; stroke-dasharray: 2.96,1.28; stroke-dashoffset: 0; stroke: #808080; stroke-opacity: 0.2; stroke-width: 0.8"/>
     </g>
     <g id="line2d_14">
      <g>
       <use xlink:href="#m4ee2f9df4d" x="790.922785" y="579.7575" style="stroke: #000000; stroke-width: 0.8"/>
      </g>
     </g>
     <g id="text_7">
      <!-- 30 -->
      <g transform="translate(784.560285 594.355938) scale(0.1 -0.1)">
       <defs>
        <path id="DejaVuSans-33" d="M 2597 2516 
Q 3050 2419 3304 2112 
Q 3559 1806 3559 1356 
Q 3559 666 3084 287 
Q 2609 -91 1734 -91 
Q 1441 -91 1130 -33 
Q 819 25 488 141 
L 488 750 
Q 750 597 1062 519 
Q 1375 441 1716 441 
Q 2309 441 2620 675 
Q 2931 909 2931 1356 
Q 2931 1769 2642 2001 
Q 2353 2234 1838 2234 
L 1294 2234 
L 1294 2753 
L 1863 2753 
Q 2328 2753 2575 2939 
Q 2822 3125 2822 3475 
Q 2822 3834 2567 4026 
Q 2313 4219 1838 4219 
Q 1578 4219 1281 4162 
Q 984 4106 628 3988 
L 628 4550 
Q 988 4650 1302 4700 
Q 1616 4750 1894 4750 
Q 2613 4750 3031 4423 
Q 3450 4097 3450 3541 
Q 3450 3153 3228 2886 
Q 3006 2619 2597 2516 
z
" transform="scale(0.015625)"/>
       </defs>
       <use xlink:href="#DejaVuSans-33"/>
       <use xlink:href="#DejaVuSans-30" x="63.623047"/>
      </g>
     </g>
    </g>
    <g id="text_8">
     <!-- Pass@1 -->
     <g transform="translate(504.122187 609.55375) scale(0.12 -0.12)">
      <defs>
       <path id="DejaVuSans-Bold-50" d="M 588 4666 
L 2584 4666 
Q 3475 4666 3951 4270 
Q 4428 3875 4428 3144 
Q 4428 2409 3951 2014 
Q 3475 1619 2584 1619 
L 1791 1619 
L 1791 0 
L 588 0 
L 588 4666 
z
M 1791 3794 
L 1791 2491 
L 2456 2491 
Q 2806 2491 2997 2661 
Q 3188 2831 3188 3144 
Q 3188 3456 2997 3625 
Q 2806 3794 2456 3794 
L 1791 3794 
z
" transform="scale(0.015625)"/>
       <path id="DejaVuSans-Bold-61" d="M 2106 1575 
Q 1756 1575 1579 1456 
Q 1403 1338 1403 1106 
Q 1403 894 1545 773 
Q 1688 653 1941 653 
Q 2256 653 2472 879 
Q 2688 1106 2688 1447 
L 2688 1575 
L 2106 1575 
z
M 3816 1997 
L 3816 0 
L 2688 0 
L 2688 519 
Q 2463 200 2181 54 
Q 1900 -91 1497 -91 
Q 953 -91 614 226 
Q 275 544 275 1050 
Q 275 1666 698 1953 
Q 1122 2241 2028 2241 
L 2688 2241 
L 2688 2328 
Q 2688 2594 2478 2717 
Q 2269 2841 1825 2841 
Q 1466 2841 1156 2769 
Q 847 2697 581 2553 
L 581 3406 
Q 941 3494 1303 3539 
Q 1666 3584 2028 3584 
Q 2975 3584 3395 3211 
Q 3816 2838 3816 1997 
z
" transform="scale(0.015625)"/>
       <path id="DejaVuSans-Bold-73" d="M 3272 3391 
L 3272 2541 
Q 2913 2691 2578 2766 
Q 2244 2841 1947 2841 
Q 1628 2841 1473 2761 
Q 1319 2681 1319 2516 
Q 1319 2381 1436 2309 
Q 1553 2238 1856 2203 
L 2053 2175 
Q 2913 2066 3209 1816 
Q 3506 1566 3506 1031 
Q 3506 472 3093 190 
Q 2681 -91 1863 -91 
Q 1516 -91 1145 -36 
Q 775 19 384 128 
L 384 978 
Q 719 816 1070 734 
Q 1422 653 1784 653 
Q 2113 653 2278 743 
Q 2444 834 2444 1013 
Q 2444 1163 2330 1236 
Q 2216 1309 1875 1350 
L 1678 1375 
Q 931 1469 631 1722 
Q 331 1975 331 2491 
Q 331 3047 712 3315 
Q 1094 3584 1881 3584 
Q 2191 3584 2531 3537 
Q 2872 3491 3272 3391 
z
" transform="scale(0.015625)"/>
       <path id="DejaVuSans-Bold-40" d="M 2597 1684 
Q 2597 1300 2761 1078 
Q 2925 856 3206 856 
Q 3484 856 3650 1079 
Q 3816 1303 3816 1684 
Q 3816 2063 3648 2283 
Q 3481 2503 3200 2503 
Q 2925 2503 2761 2283 
Q 2597 2063 2597 1684 
z
M 3878 744 
Q 3784 522 3576 398 
Q 3369 275 3091 275 
Q 2553 275 2217 664 
Q 1881 1053 1881 1678 
Q 1881 2303 2218 2693 
Q 2556 3084 3091 3084 
Q 3369 3084 3576 2959 
Q 3784 2834 3878 2613 
L 3878 3022 
L 4531 3022 
L 4531 856 
Q 4919 916 5141 1230 
Q 5363 1544 5363 2034 
Q 5363 2347 5272 2620 
Q 5181 2894 4997 3122 
Q 4700 3503 4254 3709 
Q 3809 3916 3291 3916 
Q 2928 3916 2597 3820 
Q 2266 3725 1984 3541 
Q 1522 3234 1264 2748 
Q 1006 2263 1006 1697 
Q 1006 1231 1173 823 
Q 1341 416 1656 103 
Q 1969 -203 2373 -364 
Q 2778 -525 3238 -525 
Q 3631 -525 4025 -378 
Q 4419 -231 4697 19 
L 5031 -488 
Q 4641 -791 4180 -952 
Q 3719 -1113 3244 -1113 
Q 2666 -1113 2153 -908 
Q 1641 -703 1241 -313 
Q 841 78 631 592 
Q 422 1106 422 1697 
Q 422 2266 634 2781 
Q 847 3297 1241 3688 
Q 1634 4075 2157 4287 
Q 2681 4500 3244 4500 
Q 3944 4500 4516 4233 
Q 5088 3966 5472 3463 
Q 5706 3156 5826 2798 
Q 5947 2441 5947 2047 
Q 5947 1200 5437 731 
Q 4928 263 4000 263 
L 3878 263 
L 3878 744 
z
" transform="scale(0.015625)"/>
       <path id="DejaVuSans-Bold-31" d="M 750 831 
L 1813 831 
L 1813 3847 
L 722 3622 
L 722 4441 
L 1806 4666 
L 2950 4666 
L 2950 831 
L 4013 831 
L 4013 0 
L 750 0 
L 750 831 
z
" transform="scale(0.015625)"/>
      </defs>
      <use xlink:href="#DejaVuSans-Bold-50"/>
      <use xlink:href="#DejaVuSans-Bold-61" x="70.666016"/>
      <use xlink:href="#DejaVuSans-Bold-73" x="138.146484"/>
      <use xlink:href="#DejaVuSans-Bold-73" x="197.667969"/>
      <use xlink:href="#DejaVuSans-Bold-40" x="257.189453"/>
      <use xlink:href="#DejaVuSans-Bold-31" x="357.189453"/>
     </g>
    </g>
   </g>
   <g id="matplotlib.axis_2">
    <g id="ytick_1">
     <g id="text_9">
      <!-- GPT-4-0613 -->
      <g transform="translate(129.926562 549.109012) scale(0.1 -0.1)">
       <defs>
        <path id="DejaVuSans-47" d="M 3809 666 
L 3809 1919 
L 2778 1919 
L 2778 2438 
L 4434 2438 
L 4434 434 
Q 4069 175 3628 42 
Q 3188 -91 2688 -91 
Q 1594 -91 976 548 
Q 359 1188 359 2328 
Q 359 3472 976 4111 
Q 1594 4750 2688 4750 
Q 3144 4750 3555 4637 
Q 3966 4525 4313 4306 
L 4313 3634 
Q 3963 3931 3569 4081 
Q 3175 4231 2741 4231 
Q 1884 4231 1454 3753 
Q 1025 3275 1025 2328 
Q 1025 1384 1454 906 
Q 1884 428 2741 428 
Q 3075 428 3337 486 
Q 3600 544 3809 666 
z
" transform="scale(0.015625)"/>
        <path id="DejaVuSans-50" d="M 1259 4147 
L 1259 2394 
L 2053 2394 
Q 2494 2394 2734 2622 
Q 2975 2850 2975 3272 
Q 2975 3691 2734 3919 
Q 2494 4147 2053 4147 
L 1259 4147 
z
M 628 4666 
L 2053 4666 
Q 2838 4666 3239 4311 
Q 3641 3956 3641 3272 
Q 3641 2581 3239 2228 
Q 2838 1875 2053 1875 
L 1259 1875 
L 1259 0 
L 628 0 
L 628 4666 
z
" transform="scale(0.015625)"/>
        <path id="DejaVuSans-54" d="M -19 4666 
L 3928 4666 
L 3928 4134 
L 2272 4134 
L 2272 0 
L 1638 0 
L 1638 4134 
L -19 4134 
L -19 4666 
z
" transform="scale(0.015625)"/>
        <path id="DejaVuSans-2d" d="M 313 2009 
L 1997 2009 
L 1997 1497 
L 313 1497 
L 313 2009 
z
" transform="scale(0.015625)"/>
        <path id="DejaVuSans-34" d="M 2419 4116 
L 825 1625 
L 2419 1625 
L 2419 4116 
z
M 2253 4666 
L 3047 4666 
L 3047 1625 
L 3713 1625 
L 3713 1100 
L 3047 1100 
L 3047 0 
L 2419 0 
L 2419 1100 
L 313 1100 
L 313 1709 
L 2253 4666 
z
" transform="scale(0.015625)"/>
        <path id="DejaVuSans-36" d="M 2113 2584 
Q 1688 2584 1439 2293 
Q 1191 2003 1191 1497 
Q 1191 994 1439 701 
Q 1688 409 2113 409 
Q 2538 409 2786 701 
Q 3034 994 3034 1497 
Q 3034 2003 2786 2293 
Q 2538 2584 2113 2584 
z
M 3366 4563 
L 3366 3988 
Q 3128 4100 2886 4159 
Q 2644 4219 2406 4219 
Q 1781 4219 1451 3797 
Q 1122 3375 1075 2522 
Q 1259 2794 1537 2939 
Q 1816 3084 2150 3084 
Q 2853 3084 3261 2657 
Q 3669 2231 3669 1497 
Q 3669 778 3244 343 
Q 2819 -91 2113 -91 
Q 1303 -91 875 529 
Q 447 1150 447 2328 
Q 447 3434 972 4092 
Q 1497 4750 2381 4750 
Q 2619 4750 2861 4703 
Q 3103 4656 3366 4563 
z
" transform="scale(0.015625)"/>
       </defs>
       <use xlink:href="#DejaVuSans-47"/>
       <use xlink:href="#DejaVuSans-50" x="77.490234"/>
       <use xlink:href="#DejaVuSans-54" x="137.792969"/>
       <use xlink:href="#DejaVuSans-2d" x="189.751953"/>
       <use xlink:href="#DejaVuSans-34" x="225.835938"/>
       <use xlink:href="#DejaVuSans-2d" x="289.458984"/>
       <use xlink:href="#DejaVuSans-30" x="325.542969"/>
       <use xlink:href="#DejaVuSans-36" x="389.166016"/>
       <use xlink:href="#DejaVuSans-31" x="452.789062"/>
       <use xlink:href="#DejaVuSans-33" x="516.412109"/>
      </g>
     </g>
    </g>
    <g id="ytick_2">
     <g id="text_10">
      <!-- Claude-3-Haiku-20240307 -->
      <g transform="translate(56.871875 525.989746) scale(0.1 -0.1)">
       <defs>
        <path id="DejaVuSans-43" d="M 4122 4306 
L 4122 3641 
Q 3803 3938 3442 4084 
Q 3081 4231 2675 4231 
Q 1875 4231 1450 3742 
Q 1025 3253 1025 2328 
Q 1025 1406 1450 917 
Q 1875 428 2675 428 
Q 3081 428 3442 575 
Q 3803 722 4122 1019 
L 4122 359 
Q 3791 134 3420 21 
Q 3050 -91 2638 -91 
Q 1578 -91 968 557 
Q 359 1206 359 2328 
Q 359 3453 968 4101 
Q 1578 4750 2638 4750 
Q 3056 4750 3426 4639 
Q 3797 4528 4122 4306 
z
" transform="scale(0.015625)"/>
        <path id="DejaVuSans-6c" d="M 603 4863 
L 1178 4863 
L 1178 0 
L 603 0 
L 603 4863 
z
" transform="scale(0.015625)"/>
        <path id="DejaVuSans-61" d="M 2194 1759 
Q 1497 1759 1228 1600 
Q 959 1441 959 1056 
Q 959 750 1161 570 
Q 1363 391 1709 391 
Q 2188 391 2477 730 
Q 2766 1069 2766 1631 
L 2766 1759 
L 2194 1759 
z
M 3341 1997 
L 3341 0 
L 2766 0 
L 2766 531 
Q 2569 213 2275 61 
Q 1981 -91 1556 -91 
Q 1019 -91 701 211 
Q 384 513 384 1019 
Q 384 1609 779 1909 
Q 1175 2209 1959 2209 
L 2766 2209 
L 2766 2266 
Q 2766 2663 2505 2880 
Q 2244 3097 1772 3097 
Q 1472 3097 1187 3025 
Q 903 2953 641 2809 
L 641 3341 
Q 956 3463 1253 3523 
Q 1550 3584 1831 3584 
Q 2591 3584 2966 3190 
Q 3341 2797 3341 1997 
z
" transform="scale(0.015625)"/>
        <path id="DejaVuSans-75" d="M 544 1381 
L 544 3500 
L 1119 3500 
L 1119 1403 
Q 1119 906 1312 657 
Q 1506 409 1894 409 
Q 2359 409 2629 706 
Q 2900 1003 2900 1516 
L 2900 3500 
L 3475 3500 
L 3475 0 
L 2900 0 
L 2900 538 
Q 2691 219 2414 64 
Q 2138 -91 1772 -91 
Q 1169 -91 856 284 
Q 544 659 544 1381 
z
M 1991 3584 
L 1991 3584 
z
" transform="scale(0.015625)"/>
        <path id="DejaVuSans-64" d="M 2906 2969 
L 2906 4863 
L 3481 4863 
L 3481 0 
L 2906 0 
L 2906 525 
Q 2725 213 2448 61 
Q 2172 -91 1784 -91 
Q 1150 -91 751 415 
Q 353 922 353 1747 
Q 353 2572 751 3078 
Q 1150 3584 1784 3584 
Q 2172 3584 2448 3432 
Q 2725 3281 2906 2969 
z
M 947 1747 
Q 947 1113 1208 752 
Q 1469 391 1925 391 
Q 2381 391 2643 752 
Q 2906 1113 2906 1747 
Q 2906 2381 2643 2742 
Q 2381 3103 1925 3103 
Q 1469 3103 1208 2742 
Q 947 2381 947 1747 
z
" transform="scale(0.015625)"/>
        <path id="DejaVuSans-65" d="M 3597 1894 
L 3597 1613 
L 953 1613 
Q 991 1019 1311 708 
Q 1631 397 2203 397 
Q 2534 397 2845 478 
Q 3156 559 3463 722 
L 3463 178 
Q 3153 47 2828 -22 
Q 2503 -91 2169 -91 
Q 1331 -91 842 396 
Q 353 884 353 1716 
Q 353 2575 817 3079 
Q 1281 3584 2069 3584 
Q 2775 3584 3186 3129 
Q 3597 2675 3597 1894 
z
M 3022 2063 
Q 3016 2534 2758 2815 
Q 2500 3097 2075 3097 
Q 1594 3097 1305 2825 
Q 1016 2553 972 2059 
L 3022 2063 
z
" transform="scale(0.015625)"/>
        <path id="DejaVuSans-48" d="M 628 4666 
L 1259 4666 
L 1259 2753 
L 3553 2753 
L 3553 4666 
L 4184 4666 
L 4184 0 
L 3553 0 
L 3553 2222 
L 1259 2222 
L 1259 0 
L 628 0 
L 628 4666 
z
" transform="scale(0.015625)"/>
        <path id="DejaVuSans-69" d="M 603 3500 
L 1178 3500 
L 1178 0 
L 603 0 
L 603 3500 
z
M 603 4863 
L 1178 4863 
L 1178 4134 
L 603 4134 
L 603 4863 
z
" transform="scale(0.015625)"/>
        <path id="DejaVuSans-6b" d="M 581 4863 
L 1159 4863 
L 1159 1991 
L 2875 3500 
L 3609 3500 
L 1753 1863 
L 3688 0 
L 2938 0 
L 1159 1709 
L 1159 0 
L 581 0 
L 581 4863 
z
" transform="scale(0.015625)"/>
        <path id="DejaVuSans-37" d="M 525 4666 
L 3525 4666 
L 3525 4397 
L 1831 0 
L 1172 0 
L 2766 4134 
L 525 4134 
L 525 4666 
z
" transform="scale(0.015625)"/>
       </defs>
       <use xlink:href="#DejaVuSans-43"/>
       <use xlink:href="#DejaVuSans-6c" x="69.824219"/>
       <use xlink:href="#DejaVuSans-61" x="97.607422"/>
       <use xlink:href="#DejaVuSans-75" x="158.886719"/>
       <use xlink:href="#DejaVuSans-64" x="222.265625"/>
       <use xlink:href="#DejaVuSans-65" x="285.742188"/>
       <use xlink:href="#DejaVuSans-2d" x="347.265625"/>
       <use xlink:href="#DejaVuSans-33" x="383.349609"/>
       <use xlink:href="#DejaVuSans-2d" x="446.972656"/>
       <use xlink:href="#DejaVuSans-48" x="483.056641"/>
       <use xlink:href="#DejaVuSans-61" x="558.251953"/>
       <use xlink:href="#DejaVuSans-69" x="619.53125"/>
       <use xlink:href="#DejaVuSans-6b" x="647.314453"/>
       <use xlink:href="#DejaVuSans-75" x="702.099609"/>
       <use xlink:href="#DejaVuSans-2d" x="765.478516"/>
       <use xlink:href="#DejaVuSans-32" x="801.5625"/>
       <use xlink:href="#DejaVuSans-30" x="865.185547"/>
       <use xlink:href="#DejaVuSans-32" x="928.808594"/>
       <use xlink:href="#DejaVuSans-34" x="992.431641"/>
       <use xlink:href="#DejaVuSans-30" x="1056.054688"/>
       <use xlink:href="#DejaVuSans-33" x="1119.677734"/>
       <use xlink:href="#DejaVuSans-30" x="1183.300781"/>
       <use xlink:href="#DejaVuSans-37" x="1246.923828"/>
      </g>
     </g>
    </g>
    <g id="ytick_3">
     <g id="text_11">
      <!-- DeepSeek-V2-Chat -->
      <g transform="translate(93.928125 502.87048) scale(0.1 -0.1)">
       <defs>
        <path id="DejaVuSans-44" d="M 1259 4147 
L 1259 519 
L 2022 519 
Q 2988 519 3436 956 
Q 3884 1394 3884 2338 
Q 3884 3275 3436 3711 
Q 2988 4147 2022 4147 
L 1259 4147 
z
M 628 4666 
L 1925 4666 
Q 3281 4666 3915 4102 
Q 4550 3538 4550 2338 
Q 4550 1131 3912 565 
Q 3275 0 1925 0 
L 628 0 
L 628 4666 
z
" transform="scale(0.015625)"/>
        <path id="DejaVuSans-70" d="M 1159 525 
L 1159 -1331 
L 581 -1331 
L 581 3500 
L 1159 3500 
L 1159 2969 
Q 1341 3281 1617 3432 
Q 1894 3584 2278 3584 
Q 2916 3584 3314 3078 
Q 3713 2572 3713 1747 
Q 3713 922 3314 415 
Q 2916 -91 2278 -91 
Q 1894 -91 1617 61 
Q 1341 213 1159 525 
z
M 3116 1747 
Q 3116 2381 2855 2742 
Q 2594 3103 2138 3103 
Q 1681 3103 1420 2742 
Q 1159 2381 1159 1747 
Q 1159 1113 1420 752 
Q 1681 391 2138 391 
Q 2594 391 2855 752 
Q 3116 1113 3116 1747 
z
" transform="scale(0.015625)"/>
        <path id="DejaVuSans-53" d="M 3425 4513 
L 3425 3897 
Q 3066 4069 2747 4153 
Q 2428 4238 2131 4238 
Q 1616 4238 1336 4038 
Q 1056 3838 1056 3469 
Q 1056 3159 1242 3001 
Q 1428 2844 1947 2747 
L 2328 2669 
Q 3034 2534 3370 2195 
Q 3706 1856 3706 1288 
Q 3706 609 3251 259 
Q 2797 -91 1919 -91 
Q 1588 -91 1214 -16 
Q 841 59 441 206 
L 441 856 
Q 825 641 1194 531 
Q 1563 422 1919 422 
Q 2459 422 2753 634 
Q 3047 847 3047 1241 
Q 3047 1584 2836 1778 
Q 2625 1972 2144 2069 
L 1759 2144 
Q 1053 2284 737 2584 
Q 422 2884 422 3419 
Q 422 4038 858 4394 
Q 1294 4750 2059 4750 
Q 2388 4750 2728 4690 
Q 3069 4631 3425 4513 
z
" transform="scale(0.015625)"/>
        <path id="DejaVuSans-56" d="M 1831 0 
L 50 4666 
L 709 4666 
L 2188 738 
L 3669 4666 
L 4325 4666 
L 2547 0 
L 1831 0 
z
" transform="scale(0.015625)"/>
        <path id="DejaVuSans-68" d="M 3513 2113 
L 3513 0 
L 2938 0 
L 2938 2094 
Q 2938 2591 2744 2837 
Q 2550 3084 2163 3084 
Q 1697 3084 1428 2787 
Q 1159 2491 1159 1978 
L 1159 0 
L 581 0 
L 581 4863 
L 1159 4863 
L 1159 2956 
Q 1366 3272 1645 3428 
Q 1925 3584 2291 3584 
Q 2894 3584 3203 3211 
Q 3513 2838 3513 2113 
z
" transform="scale(0.015625)"/>
        <path id="DejaVuSans-74" d="M 1172 4494 
L 1172 3500 
L 2356 3500 
L 2356 3053 
L 1172 3053 
L 1172 1153 
Q 1172 725 1289 603 
Q 1406 481 1766 481 
L 2356 481 
L 2356 0 
L 1766 0 
Q 1100 0 847 248 
Q 594 497 594 1153 
L 594 3053 
L 172 3053 
L 172 3500 
L 594 3500 
L 594 4494 
L 1172 4494 
z
" transform="scale(0.015625)"/>
       </defs>
       <use xlink:href="#DejaVuSans-44"/>
       <use xlink:href="#DejaVuSans-65" x="77.001953"/>
       <use xlink:href="#DejaVuSans-65" x="138.525391"/>
       <use xlink:href="#DejaVuSans-70" x="200.048828"/>
       <use xlink:href="#DejaVuSans-53" x="263.525391"/>
       <use xlink:href="#DejaVuSans-65" x="327.001953"/>
       <use xlink:href="#DejaVuSans-65" x="388.525391"/>
       <use xlink:href="#DejaVuSans-6b" x="450.048828"/>
       <use xlink:href="#DejaVuSans-2d" x="507.958984"/>
       <use xlink:href="#DejaVuSans-56" x="538.167969"/>
       <use xlink:href="#DejaVuSans-32" x="606.576172"/>
       <use xlink:href="#DejaVuSans-2d" x="670.199219"/>
       <use xlink:href="#DejaVuSans-43" x="706.283203"/>
       <use xlink:href="#DejaVuSans-68" x="776.107422"/>
       <use xlink:href="#DejaVuSans-61" x="839.486328"/>
       <use xlink:href="#DejaVuSans-74" x="900.765625"/>
      </g>
     </g>
    </g>
    <g id="ytick_4">
     <g id="text_12">
      <!-- ReflectionCoder-DS-33B -->
      <g transform="translate(68.245312 479.751214) scale(0.1 -0.1)">
       <defs>
        <path id="DejaVuSans-52" d="M 2841 2188 
Q 3044 2119 3236 1894 
Q 3428 1669 3622 1275 
L 4263 0 
L 3584 0 
L 2988 1197 
Q 2756 1666 2539 1819 
Q 2322 1972 1947 1972 
L 1259 1972 
L 1259 0 
L 628 0 
L 628 4666 
L 2053 4666 
Q 2853 4666 3247 4331 
Q 3641 3997 3641 3322 
Q 3641 2881 3436 2590 
Q 3231 2300 2841 2188 
z
M 1259 4147 
L 1259 2491 
L 2053 2491 
Q 2509 2491 2742 2702 
Q 2975 2913 2975 3322 
Q 2975 3731 2742 3939 
Q 2509 4147 2053 4147 
L 1259 4147 
z
" transform="scale(0.015625)"/>
        <path id="DejaVuSans-66" d="M 2375 4863 
L 2375 4384 
L 1825 4384 
Q 1516 4384 1395 4259 
Q 1275 4134 1275 3809 
L 1275 3500 
L 2222 3500 
L 2222 3053 
L 1275 3053 
L 1275 0 
L 697 0 
L 697 3053 
L 147 3053 
L 147 3500 
L 697 3500 
L 697 3744 
Q 697 4328 969 4595 
Q 1241 4863 1831 4863 
L 2375 4863 
z
" transform="scale(0.015625)"/>
        <path id="DejaVuSans-63" d="M 3122 3366 
L 3122 2828 
Q 2878 2963 2633 3030 
Q 2388 3097 2138 3097 
Q 1578 3097 1268 2742 
Q 959 2388 959 1747 
Q 959 1106 1268 751 
Q 1578 397 2138 397 
Q 2388 397 2633 464 
Q 2878 531 3122 666 
L 3122 134 
Q 2881 22 2623 -34 
Q 2366 -91 2075 -91 
Q 1284 -91 818 406 
Q 353 903 353 1747 
Q 353 2603 823 3093 
Q 1294 3584 2113 3584 
Q 2378 3584 2631 3529 
Q 2884 3475 3122 3366 
z
" transform="scale(0.015625)"/>
        <path id="DejaVuSans-6f" d="M 1959 3097 
Q 1497 3097 1228 2736 
Q 959 2375 959 1747 
Q 959 1119 1226 758 
Q 1494 397 1959 397 
Q 2419 397 2687 759 
Q 2956 1122 2956 1747 
Q 2956 2369 2687 2733 
Q 2419 3097 1959 3097 
z
M 1959 3584 
Q 2709 3584 3137 3096 
Q 3566 2609 3566 1747 
Q 3566 888 3137 398 
Q 2709 -91 1959 -91 
Q 1206 -91 779 398 
Q 353 888 353 1747 
Q 353 2609 779 3096 
Q 1206 3584 1959 3584 
z
" transform="scale(0.015625)"/>
        <path id="DejaVuSans-6e" d="M 3513 2113 
L 3513 0 
L 2938 0 
L 2938 2094 
Q 2938 2591 2744 2837 
Q 2550 3084 2163 3084 
Q 1697 3084 1428 2787 
Q 1159 2491 1159 1978 
L 1159 0 
L 581 0 
L 581 3500 
L 1159 3500 
L 1159 2956 
Q 1366 3272 1645 3428 
Q 1925 3584 2291 3584 
Q 2894 3584 3203 3211 
Q 3513 2838 3513 2113 
z
" transform="scale(0.015625)"/>
        <path id="DejaVuSans-72" d="M 2631 2963 
Q 2534 3019 2420 3045 
Q 2306 3072 2169 3072 
Q 1681 3072 1420 2755 
Q 1159 2438 1159 1844 
L 1159 0 
L 581 0 
L 581 3500 
L 1159 3500 
L 1159 2956 
Q 1341 3275 1631 3429 
Q 1922 3584 2338 3584 
Q 2397 3584 2469 3576 
Q 2541 3569 2628 3553 
L 2631 2963 
z
" transform="scale(0.015625)"/>
        <path id="DejaVuSans-42" d="M 1259 2228 
L 1259 519 
L 2272 519 
Q 2781 519 3026 730 
Q 3272 941 3272 1375 
Q 3272 1813 3026 2020 
Q 2781 2228 2272 2228 
L 1259 2228 
z
M 1259 4147 
L 1259 2741 
L 2194 2741 
Q 2656 2741 2882 2914 
Q 3109 3088 3109 3444 
Q 3109 3797 2882 3972 
Q 2656 4147 2194 4147 
L 1259 4147 
z
M 628 4666 
L 2241 4666 
Q 2963 4666 3353 4366 
Q 3744 4066 3744 3513 
Q 3744 3084 3544 2831 
Q 3344 2578 2956 2516 
Q 3422 2416 3680 2098 
Q 3938 1781 3938 1306 
Q 3938 681 3513 340 
Q 3088 0 2303 0 
L 628 0 
L 628 4666 
z
" transform="scale(0.015625)"/>
       </defs>
       <use xlink:href="#DejaVuSans-52"/>
       <use xlink:href="#DejaVuSans-65" x="64.982422"/>
       <use xlink:href="#DejaVuSans-66" x="126.505859"/>
       <use xlink:href="#DejaVuSans-6c" x="161.710938"/>
       <use xlink:href="#DejaVuSans-65" x="189.494141"/>
       <use xlink:href="#DejaVuSans-63" x="251.017578"/>
       <use xlink:href="#DejaVuSans-74" x="305.998047"/>
       <use xlink:href="#DejaVuSans-69" x="345.207031"/>
       <use xlink:href="#DejaVuSans-6f" x="372.990234"/>
       <use xlink:href="#DejaVuSans-6e" x="434.171875"/>
       <use xlink:href="#DejaVuSans-43" x="497.550781"/>
       <use xlink:href="#DejaVuSans-6f" x="567.375"/>
       <use xlink:href="#DejaVuSans-64" x="628.556641"/>
       <use xlink:href="#DejaVuSans-65" x="692.033203"/>
       <use xlink:href="#DejaVuSans-72" x="753.556641"/>
       <use xlink:href="#DejaVuSans-2d" x="788.294922"/>
       <use xlink:href="#DejaVuSans-44" x="824.378906"/>
       <use xlink:href="#DejaVuSans-53" x="901.380859"/>
       <use xlink:href="#DejaVuSans-2d" x="964.857422"/>
       <use xlink:href="#DejaVuSans-33" x="1000.941406"/>
       <use xlink:href="#DejaVuSans-33" x="1064.564453"/>
       <use xlink:href="#DejaVuSans-42" x="1128.1875"/>
      </g>
     </g>
    </g>
    <g id="ytick_5">
     <g id="text_13">
      <!-- DeepSeek-Coder-33B-Instruct -->
      <g transform="translate(39.357812 456.631948) scale(0.1 -0.1)">
       <defs>
        <path id="DejaVuSans-49" d="M 628 4666 
L 1259 4666 
L 1259 0 
L 628 0 
L 628 4666 
z
" transform="scale(0.015625)"/>
        <path id="DejaVuSans-73" d="M 2834 3397 
L 2834 2853 
Q 2591 2978 2328 3040 
Q 2066 3103 1784 3103 
Q 1356 3103 1142 2972 
Q 928 2841 928 2578 
Q 928 2378 1081 2264 
Q 1234 2150 1697 2047 
L 1894 2003 
Q 2506 1872 2764 1633 
Q 3022 1394 3022 966 
Q 3022 478 2636 193 
Q 2250 -91 1575 -91 
Q 1294 -91 989 -36 
Q 684 19 347 128 
L 347 722 
Q 666 556 975 473 
Q 1284 391 1588 391 
Q 1994 391 2212 530 
Q 2431 669 2431 922 
Q 2431 1156 2273 1281 
Q 2116 1406 1581 1522 
L 1381 1569 
Q 847 1681 609 1914 
Q 372 2147 372 2553 
Q 372 3047 722 3315 
Q 1072 3584 1716 3584 
Q 2034 3584 2315 3537 
Q 2597 3491 2834 3397 
z
" transform="scale(0.015625)"/>
       </defs>
       <use xlink:href="#DejaVuSans-44"/>
       <use xlink:href="#DejaVuSans-65" x="77.001953"/>
       <use xlink:href="#DejaVuSans-65" x="138.525391"/>
       <use xlink:href="#DejaVuSans-70" x="200.048828"/>
       <use xlink:href="#DejaVuSans-53" x="263.525391"/>
       <use xlink:href="#DejaVuSans-65" x="327.001953"/>
       <use xlink:href="#DejaVuSans-65" x="388.525391"/>
       <use xlink:href="#DejaVuSans-6b" x="450.048828"/>
       <use xlink:href="#DejaVuSans-2d" x="507.958984"/>
       <use xlink:href="#DejaVuSans-43" x="544.042969"/>
       <use xlink:href="#DejaVuSans-6f" x="613.867188"/>
       <use xlink:href="#DejaVuSans-64" x="675.048828"/>
       <use xlink:href="#DejaVuSans-65" x="738.525391"/>
       <use xlink:href="#DejaVuSans-72" x="800.048828"/>
       <use xlink:href="#DejaVuSans-2d" x="834.787109"/>
       <use xlink:href="#DejaVuSans-33" x="870.871094"/>
       <use xlink:href="#DejaVuSans-33" x="934.494141"/>
       <use xlink:href="#DejaVuSans-42" x="998.117188"/>
       <use xlink:href="#DejaVuSans-2d" x="1066.720703"/>
       <use xlink:href="#DejaVuSans-49" x="1102.804688"/>
       <use xlink:href="#DejaVuSans-6e" x="1132.296875"/>
       <use xlink:href="#DejaVuSans-73" x="1195.675781"/>
       <use xlink:href="#DejaVuSans-74" x="1247.775391"/>
       <use xlink:href="#DejaVuSans-72" x="1286.984375"/>
       <use xlink:href="#DejaVuSans-75" x="1328.097656"/>
       <use xlink:href="#DejaVuSans-63" x="1391.476562"/>
       <use xlink:href="#DejaVuSans-74" x="1446.457031"/>
      </g>
     </g>
    </g>
    <g id="ytick_6">
     <g id="text_14">
      <!-- Mixtral-8x22B-Instruct -->
      <g transform="translate(76.298437 433.512682) scale(0.1 -0.1)">
       <defs>
        <path id="DejaVuSans-4d" d="M 628 4666 
L 1569 4666 
L 2759 1491 
L 3956 4666 
L 4897 4666 
L 4897 0 
L 4281 0 
L 4281 4097 
L 3078 897 
L 2444 897 
L 1241 4097 
L 1241 0 
L 628 0 
L 628 4666 
z
" transform="scale(0.015625)"/>
        <path id="DejaVuSans-78" d="M 3513 3500 
L 2247 1797 
L 3578 0 
L 2900 0 
L 1881 1375 
L 863 0 
L 184 0 
L 1544 1831 
L 300 3500 
L 978 3500 
L 1906 2253 
L 2834 3500 
L 3513 3500 
z
" transform="scale(0.015625)"/>
        <path id="DejaVuSans-38" d="M 2034 2216 
Q 1584 2216 1326 1975 
Q 1069 1734 1069 1313 
Q 1069 891 1326 650 
Q 1584 409 2034 409 
Q 2484 409 2743 651 
Q 3003 894 3003 1313 
Q 3003 1734 2745 1975 
Q 2488 2216 2034 2216 
z
M 1403 2484 
Q 997 2584 770 2862 
Q 544 3141 544 3541 
Q 544 4100 942 4425 
Q 1341 4750 2034 4750 
Q 2731 4750 3128 4425 
Q 3525 4100 3525 3541 
Q 3525 3141 3298 2862 
Q 3072 2584 2669 2484 
Q 3125 2378 3379 2068 
Q 3634 1759 3634 1313 
Q 3634 634 3220 271 
Q 2806 -91 2034 -91 
Q 1263 -91 848 271 
Q 434 634 434 1313 
Q 434 1759 690 2068 
Q 947 2378 1403 2484 
z
M 1172 3481 
Q 1172 3119 1398 2916 
Q 1625 2713 2034 2713 
Q 2441 2713 2670 2916 
Q 2900 3119 2900 3481 
Q 2900 3844 2670 4047 
Q 2441 4250 2034 4250 
Q 1625 4250 1398 4047 
Q 1172 3844 1172 3481 
z
" transform="scale(0.015625)"/>
       </defs>
       <use xlink:href="#DejaVuSans-4d"/>
       <use xlink:href="#DejaVuSans-69" x="86.279297"/>
       <use xlink:href="#DejaVuSans-78" x="114.0625"/>
       <use xlink:href="#DejaVuSans-74" x="173.242188"/>
       <use xlink:href="#DejaVuSans-72" x="212.451172"/>
       <use xlink:href="#DejaVuSans-61" x="253.564453"/>
       <use xlink:href="#DejaVuSans-6c" x="314.84375"/>
       <use xlink:href="#DejaVuSans-2d" x="342.626953"/>
       <use xlink:href="#DejaVuSans-38" x="378.710938"/>
       <use xlink:href="#DejaVuSans-78" x="442.333984"/>
       <use xlink:href="#DejaVuSans-32" x="501.513672"/>
       <use xlink:href="#DejaVuSans-32" x="565.136719"/>
       <use xlink:href="#DejaVuSans-42" x="628.759766"/>
       <use xlink:href="#DejaVuSans-2d" x="697.363281"/>
       <use xlink:href="#DejaVuSans-49" x="733.447266"/>
       <use xlink:href="#DejaVuSans-6e" x="762.939453"/>
       <use xlink:href="#DejaVuSans-73" x="826.318359"/>
       <use xlink:href="#DejaVuSans-74" x="878.417969"/>
       <use xlink:href="#DejaVuSans-72" x="917.626953"/>
       <use xlink:href="#DejaVuSans-75" x="958.740234"/>
       <use xlink:href="#DejaVuSans-63" x="1022.119141"/>
       <use xlink:href="#DejaVuSans-74" x="1077.099609"/>
      </g>
     </g>
    </g>
    <g id="ytick_7">
     <g id="text_15">
      <!-- GPT-3.5-Turbo-0125 -->
      <g transform="translate(89.992187 410.393416) scale(0.1 -0.1)">
       <defs>
        <path id="DejaVuSans-2e" d="M 684 794 
L 1344 794 
L 1344 0 
L 684 0 
L 684 794 
z
" transform="scale(0.015625)"/>
        <path id="DejaVuSans-62" d="M 3116 1747 
Q 3116 2381 2855 2742 
Q 2594 3103 2138 3103 
Q 1681 3103 1420 2742 
Q 1159 2381 1159 1747 
Q 1159 1113 1420 752 
Q 1681 391 2138 391 
Q 2594 391 2855 752 
Q 3116 1113 3116 1747 
z
M 1159 2969 
Q 1341 3281 1617 3432 
Q 1894 3584 2278 3584 
Q 2916 3584 3314 3078 
Q 3713 2572 3713 1747 
Q 3713 922 3314 415 
Q 2916 -91 2278 -91 
Q 1894 -91 1617 61 
Q 1341 213 1159 525 
L 1159 0 
L 581 0 
L 581 4863 
L 1159 4863 
L 1159 2969 
z
" transform="scale(0.015625)"/>
       </defs>
       <use xlink:href="#DejaVuSans-47"/>
       <use xlink:href="#DejaVuSans-50" x="77.490234"/>
       <use xlink:href="#DejaVuSans-54" x="137.792969"/>
       <use xlink:href="#DejaVuSans-2d" x="189.751953"/>
       <use xlink:href="#DejaVuSans-33" x="225.835938"/>
       <use xlink:href="#DejaVuSans-2e" x="289.458984"/>
       <use xlink:href="#DejaVuSans-35" x="321.246094"/>
       <use xlink:href="#DejaVuSans-2d" x="384.869141"/>
       <use xlink:href="#DejaVuSans-54" x="411.828125"/>
       <use xlink:href="#DejaVuSans-75" x="457.787109"/>
       <use xlink:href="#DejaVuSans-72" x="521.166016"/>
       <use xlink:href="#DejaVuSans-62" x="562.279297"/>
       <use xlink:href="#DejaVuSans-6f" x="625.755859"/>
       <use xlink:href="#DejaVuSans-2d" x="688.8125"/>
       <use xlink:href="#DejaVuSans-30" x="724.896484"/>
       <use xlink:href="#DejaVuSans-31" x="788.519531"/>
       <use xlink:href="#DejaVuSans-32" x="852.142578"/>
       <use xlink:href="#DejaVuSans-35" x="915.765625"/>
      </g>
     </g>
    </g>
    <g id="ytick_8">
     <g id="text_16">
      <!-- Gemma-2-27B-Instruct -->
      <g transform="translate(73.360937 387.27415) scale(0.1 -0.1)">
       <defs>
        <path id="DejaVuSans-6d" d="M 3328 2828 
Q 3544 3216 3844 3400 
Q 4144 3584 4550 3584 
Q 5097 3584 5394 3201 
Q 5691 2819 5691 2113 
L 5691 0 
L 5113 0 
L 5113 2094 
Q 5113 2597 4934 2840 
Q 4756 3084 4391 3084 
Q 3944 3084 3684 2787 
Q 3425 2491 3425 1978 
L 3425 0 
L 2847 0 
L 2847 2094 
Q 2847 2600 2669 2842 
Q 2491 3084 2119 3084 
Q 1678 3084 1418 2786 
Q 1159 2488 1159 1978 
L 1159 0 
L 581 0 
L 581 3500 
L 1159 3500 
L 1159 2956 
Q 1356 3278 1631 3431 
Q 1906 3584 2284 3584 
Q 2666 3584 2933 3390 
Q 3200 3197 3328 2828 
z
" transform="scale(0.015625)"/>
       </defs>
       <use xlink:href="#DejaVuSans-47"/>
       <use xlink:href="#DejaVuSans-65" x="77.490234"/>
       <use xlink:href="#DejaVuSans-6d" x="139.013672"/>
       <use xlink:href="#DejaVuSans-6d" x="236.425781"/>
       <use xlink:href="#DejaVuSans-61" x="333.837891"/>
       <use xlink:href="#DejaVuSans-2d" x="395.117188"/>
       <use xlink:href="#DejaVuSans-32" x="431.201172"/>
       <use xlink:href="#DejaVuSans-2d" x="494.824219"/>
       <use xlink:href="#DejaVuSans-32" x="530.908203"/>
       <use xlink:href="#DejaVuSans-37" x="594.53125"/>
       <use xlink:href="#DejaVuSans-42" x="658.154297"/>
       <use xlink:href="#DejaVuSans-2d" x="726.757812"/>
       <use xlink:href="#DejaVuSans-49" x="762.841797"/>
       <use xlink:href="#DejaVuSans-6e" x="792.333984"/>
       <use xlink:href="#DejaVuSans-73" x="855.712891"/>
       <use xlink:href="#DejaVuSans-74" x="907.8125"/>
       <use xlink:href="#DejaVuSans-72" x="947.021484"/>
       <use xlink:href="#DejaVuSans-75" x="988.134766"/>
       <use xlink:href="#DejaVuSans-63" x="1051.513672"/>
       <use xlink:href="#DejaVuSans-74" x="1106.494141"/>
      </g>
     </g>
    </g>
    <g id="ytick_9">
     <g id="text_17">
      <!-- Qwen2-72B-Chat -->
      <g transform="translate(102.854687 364.154884) scale(0.1 -0.1)">
       <defs>
        <path id="DejaVuSans-51" d="M 2522 4238 
Q 1834 4238 1429 3725 
Q 1025 3213 1025 2328 
Q 1025 1447 1429 934 
Q 1834 422 2522 422 
Q 3209 422 3611 934 
Q 4013 1447 4013 2328 
Q 4013 3213 3611 3725 
Q 3209 4238 2522 4238 
z
M 3406 84 
L 4238 -825 
L 3475 -825 
L 2784 -78 
Q 2681 -84 2626 -87 
Q 2572 -91 2522 -91 
Q 1538 -91 948 567 
Q 359 1225 359 2328 
Q 359 3434 948 4092 
Q 1538 4750 2522 4750 
Q 3503 4750 4090 4092 
Q 4678 3434 4678 2328 
Q 4678 1516 4351 937 
Q 4025 359 3406 84 
z
" transform="scale(0.015625)"/>
        <path id="DejaVuSans-77" d="M 269 3500 
L 844 3500 
L 1563 769 
L 2278 3500 
L 2956 3500 
L 3675 769 
L 4391 3500 
L 4966 3500 
L 4050 0 
L 3372 0 
L 2619 2869 
L 1863 0 
L 1184 0 
L 269 3500 
z
" transform="scale(0.015625)"/>
       </defs>
       <use xlink:href="#DejaVuSans-51"/>
       <use xlink:href="#DejaVuSans-77" x="78.710938"/>
       <use xlink:href="#DejaVuSans-65" x="160.498047"/>
       <use xlink:href="#DejaVuSans-6e" x="222.021484"/>
       <use xlink:href="#DejaVuSans-32" x="285.400391"/>
       <use xlink:href="#DejaVuSans-2d" x="349.023438"/>
       <use xlink:href="#DejaVuSans-37" x="385.107422"/>
       <use xlink:href="#DejaVuSans-32" x="448.730469"/>
       <use xlink:href="#DejaVuSans-42" x="512.353516"/>
       <use xlink:href="#DejaVuSans-2d" x="580.957031"/>
       <use xlink:href="#DejaVuSans-43" x="617.041016"/>
       <use xlink:href="#DejaVuSans-68" x="686.865234"/>
       <use xlink:href="#DejaVuSans-61" x="750.244141"/>
       <use xlink:href="#DejaVuSans-74" x="811.523438"/>
      </g>
     </g>
    </g>
    <g id="ytick_10">
     <g id="text_18">
      <!-- Hermes-2-Pro-Llama-3-70B -->
      <g transform="translate(52.471875 341.035618) scale(0.1 -0.1)">
       <defs>
        <path id="DejaVuSans-4c" d="M 628 4666 
L 1259 4666 
L 1259 531 
L 3531 531 
L 3531 0 
L 628 0 
L 628 4666 
z
" transform="scale(0.015625)"/>
       </defs>
       <use xlink:href="#DejaVuSans-48"/>
       <use xlink:href="#DejaVuSans-65" x="75.195312"/>
       <use xlink:href="#DejaVuSans-72" x="136.71875"/>
       <use xlink:href="#DejaVuSans-6d" x="176.082031"/>
       <use xlink:href="#DejaVuSans-65" x="273.494141"/>
       <use xlink:href="#DejaVuSans-73" x="335.017578"/>
       <use xlink:href="#DejaVuSans-2d" x="387.117188"/>
       <use xlink:href="#DejaVuSans-32" x="423.201172"/>
       <use xlink:href="#DejaVuSans-2d" x="486.824219"/>
       <use xlink:href="#DejaVuSans-50" x="522.908203"/>
       <use xlink:href="#DejaVuSans-72" x="581.460938"/>
       <use xlink:href="#DejaVuSans-6f" x="620.324219"/>
       <use xlink:href="#DejaVuSans-2d" x="683.380859"/>
       <use xlink:href="#DejaVuSans-4c" x="719.464844"/>
       <use xlink:href="#DejaVuSans-6c" x="775.177734"/>
       <use xlink:href="#DejaVuSans-61" x="802.960938"/>
       <use xlink:href="#DejaVuSans-6d" x="864.240234"/>
       <use xlink:href="#DejaVuSans-61" x="961.652344"/>
       <use xlink:href="#DejaVuSans-2d" x="1022.931641"/>
       <use xlink:href="#DejaVuSans-33" x="1059.015625"/>
       <use xlink:href="#DejaVuSans-2d" x="1122.638672"/>
       <use xlink:href="#DejaVuSans-37" x="1158.722656"/>
       <use xlink:href="#DejaVuSans-30" x="1222.345703"/>
       <use xlink:href="#DejaVuSans-42" x="1285.96875"/>
      </g>
     </g>
    </g>
    <g id="ytick_11">
     <g id="text_19">
      <!-- Phi-3-Mini-128K-Instruct (June 2024) -->
      <g transform="translate(7.2 317.916352) scale(0.1 -0.1)">
       <defs>
        <path id="DejaVuSans-4b" d="M 628 4666 
L 1259 4666 
L 1259 2694 
L 3353 4666 
L 4166 4666 
L 1850 2491 
L 4331 0 
L 3500 0 
L 1259 2247 
L 1259 0 
L 628 0 
L 628 4666 
z
" transform="scale(0.015625)"/>
        <path id="DejaVuSans-20" transform="scale(0.015625)"/>
        <path id="DejaVuSans-28" d="M 1984 4856 
Q 1566 4138 1362 3434 
Q 1159 2731 1159 2009 
Q 1159 1288 1364 580 
Q 1569 -128 1984 -844 
L 1484 -844 
Q 1016 -109 783 600 
Q 550 1309 550 2009 
Q 550 2706 781 3412 
Q 1013 4119 1484 4856 
L 1984 4856 
z
" transform="scale(0.015625)"/>
        <path id="DejaVuSans-4a" d="M 628 4666 
L 1259 4666 
L 1259 325 
Q 1259 -519 939 -900 
Q 619 -1281 -91 -1281 
L -331 -1281 
L -331 -750 
L -134 -750 
Q 284 -750 456 -515 
Q 628 -281 628 325 
L 628 4666 
z
" transform="scale(0.015625)"/>
        <path id="DejaVuSans-29" d="M 513 4856 
L 1013 4856 
Q 1481 4119 1714 3412 
Q 1947 2706 1947 2009 
Q 1947 1309 1714 600 
Q 1481 -109 1013 -844 
L 513 -844 
Q 928 -128 1133 580 
Q 1338 1288 1338 2009 
Q 1338 2731 1133 3434 
Q 928 4138 513 4856 
z
" transform="scale(0.015625)"/>
       </defs>
       <use xlink:href="#DejaVuSans-50"/>
       <use xlink:href="#DejaVuSans-68" x="60.302734"/>
       <use xlink:href="#DejaVuSans-69" x="123.681641"/>
       <use xlink:href="#DejaVuSans-2d" x="151.464844"/>
       <use xlink:href="#DejaVuSans-33" x="187.548828"/>
       <use xlink:href="#DejaVuSans-2d" x="251.171875"/>
       <use xlink:href="#DejaVuSans-4d" x="287.255859"/>
       <use xlink:href="#DejaVuSans-69" x="373.535156"/>
       <use xlink:href="#DejaVuSans-6e" x="401.318359"/>
       <use xlink:href="#DejaVuSans-69" x="464.697266"/>
       <use xlink:href="#DejaVuSans-2d" x="492.480469"/>
       <use xlink:href="#DejaVuSans-31" x="528.564453"/>
       <use xlink:href="#DejaVuSans-32" x="592.1875"/>
       <use xlink:href="#DejaVuSans-38" x="655.810547"/>
       <use xlink:href="#DejaVuSans-4b" x="719.433594"/>
       <use xlink:href="#DejaVuSans-2d" x="774.509766"/>
       <use xlink:href="#DejaVuSans-49" x="810.59375"/>
       <use xlink:href="#DejaVuSans-6e" x="840.085938"/>
       <use xlink:href="#DejaVuSans-73" x="903.464844"/>
       <use xlink:href="#DejaVuSans-74" x="955.564453"/>
       <use xlink:href="#DejaVuSans-72" x="994.773438"/>
       <use xlink:href="#DejaVuSans-75" x="1035.886719"/>
       <use xlink:href="#DejaVuSans-63" x="1099.265625"/>
       <use xlink:href="#DejaVuSans-74" x="1154.246094"/>
       <use xlink:href="#DejaVuSans-20" x="1193.455078"/>
       <use xlink:href="#DejaVuSans-28" x="1225.242188"/>
       <use xlink:href="#DejaVuSans-4a" x="1264.255859"/>
       <use xlink:href="#DejaVuSans-75" x="1293.748047"/>
       <use xlink:href="#DejaVuSans-6e" x="1357.126953"/>
       <use xlink:href="#DejaVuSans-65" x="1420.505859"/>
       <use xlink:href="#DejaVuSans-20" x="1482.029297"/>
       <use xlink:href="#DejaVuSans-32" x="1513.816406"/>
       <use xlink:href="#DejaVuSans-30" x="1577.439453"/>
       <use xlink:href="#DejaVuSans-32" x="1641.0625"/>
       <use xlink:href="#DejaVuSans-34" x="1704.685547"/>
       <use xlink:href="#DejaVuSans-29" x="1768.308594"/>
      </g>
     </g>
    </g>
    <g id="ytick_12">
     <g id="text_20">
      <!-- Hermes-2-Theta-Llama-3-70B -->
      <g transform="translate(40.784375 294.797086) scale(0.1 -0.1)">
       <use xlink:href="#DejaVuSans-48"/>
       <use xlink:href="#DejaVuSans-65" x="75.195312"/>
       <use xlink:href="#DejaVuSans-72" x="136.71875"/>
       <use xlink:href="#DejaVuSans-6d" x="176.082031"/>
       <use xlink:href="#DejaVuSans-65" x="273.494141"/>
       <use xlink:href="#DejaVuSans-73" x="335.017578"/>
       <use xlink:href="#DejaVuSans-2d" x="387.117188"/>
       <use xlink:href="#DejaVuSans-32" x="423.201172"/>
       <use xlink:href="#DejaVuSans-2d" x="486.824219"/>
       <use xlink:href="#DejaVuSans-54" x="513.783203"/>
       <use xlink:href="#DejaVuSans-68" x="574.867188"/>
       <use xlink:href="#DejaVuSans-65" x="638.246094"/>
       <use xlink:href="#DejaVuSans-74" x="699.769531"/>
       <use xlink:href="#DejaVuSans-61" x="738.978516"/>
       <use xlink:href="#DejaVuSans-2d" x="800.257812"/>
       <use xlink:href="#DejaVuSans-4c" x="836.341797"/>
       <use xlink:href="#DejaVuSans-6c" x="892.054688"/>
       <use xlink:href="#DejaVuSans-61" x="919.837891"/>
       <use xlink:href="#DejaVuSans-6d" x="981.117188"/>
       <use xlink:href="#DejaVuSans-61" x="1078.529297"/>
       <use xlink:href="#DejaVuSans-2d" x="1139.808594"/>
       <use xlink:href="#DejaVuSans-33" x="1175.892578"/>
       <use xlink:href="#DejaVuSans-2d" x="1239.515625"/>
       <use xlink:href="#DejaVuSans-37" x="1275.599609"/>
       <use xlink:href="#DejaVuSans-30" x="1339.222656"/>
       <use xlink:href="#DejaVuSans-42" x="1402.845703"/>
      </g>
     </g>
    </g>
    <g id="ytick_13">
     <g id="text_21">
      <!-- Claude-3-Sonnet-20240229 -->
      <g transform="translate(49.898438 271.67782) scale(0.1 -0.1)">
       <defs>
        <path id="DejaVuSans-39" d="M 703 97 
L 703 672 
Q 941 559 1184 500 
Q 1428 441 1663 441 
Q 2288 441 2617 861 
Q 2947 1281 2994 2138 
Q 2813 1869 2534 1725 
Q 2256 1581 1919 1581 
Q 1219 1581 811 2004 
Q 403 2428 403 3163 
Q 403 3881 828 4315 
Q 1253 4750 1959 4750 
Q 2769 4750 3195 4129 
Q 3622 3509 3622 2328 
Q 3622 1225 3098 567 
Q 2575 -91 1691 -91 
Q 1453 -91 1209 -44 
Q 966 3 703 97 
z
M 1959 2075 
Q 2384 2075 2632 2365 
Q 2881 2656 2881 3163 
Q 2881 3666 2632 3958 
Q 2384 4250 1959 4250 
Q 1534 4250 1286 3958 
Q 1038 3666 1038 3163 
Q 1038 2656 1286 2365 
Q 1534 2075 1959 2075 
z
" transform="scale(0.015625)"/>
       </defs>
       <use xlink:href="#DejaVuSans-43"/>
       <use xlink:href="#DejaVuSans-6c" x="69.824219"/>
       <use xlink:href="#DejaVuSans-61" x="97.607422"/>
       <use xlink:href="#DejaVuSans-75" x="158.886719"/>
       <use xlink:href="#DejaVuSans-64" x="222.265625"/>
       <use xlink:href="#DejaVuSans-65" x="285.742188"/>
       <use xlink:href="#DejaVuSans-2d" x="347.265625"/>
       <use xlink:href="#DejaVuSans-33" x="383.349609"/>
       <use xlink:href="#DejaVuSans-2d" x="446.972656"/>
       <use xlink:href="#DejaVuSans-53" x="483.056641"/>
       <use xlink:href="#DejaVuSans-6f" x="546.533203"/>
       <use xlink:href="#DejaVuSans-6e" x="607.714844"/>
       <use xlink:href="#DejaVuSans-6e" x="671.09375"/>
       <use xlink:href="#DejaVuSans-65" x="734.472656"/>
       <use xlink:href="#DejaVuSans-74" x="795.996094"/>
       <use xlink:href="#DejaVuSans-2d" x="835.205078"/>
       <use xlink:href="#DejaVuSans-32" x="871.289062"/>
       <use xlink:href="#DejaVuSans-30" x="934.912109"/>
       <use xlink:href="#DejaVuSans-32" x="998.535156"/>
       <use xlink:href="#DejaVuSans-34" x="1062.158203"/>
       <use xlink:href="#DejaVuSans-30" x="1125.78125"/>
       <use xlink:href="#DejaVuSans-32" x="1189.404297"/>
       <use xlink:href="#DejaVuSans-32" x="1253.027344"/>
       <use xlink:href="#DejaVuSans-39" x="1316.650391"/>
      </g>
     </g>
    </g>
    <g id="ytick_14">
     <g id="text_22">
      <!-- Gemini-1.5-Flash-API-0514 -->
      <g transform="translate(54.807812 248.558554) scale(0.1 -0.1)">
       <defs>
        <path id="DejaVuSans-46" d="M 628 4666 
L 3309 4666 
L 3309 4134 
L 1259 4134 
L 1259 2759 
L 3109 2759 
L 3109 2228 
L 1259 2228 
L 1259 0 
L 628 0 
L 628 4666 
z
" transform="scale(0.015625)"/>
        <path id="DejaVuSans-41" d="M 2188 4044 
L 1331 1722 
L 3047 1722 
L 2188 4044 
z
M 1831 4666 
L 2547 4666 
L 4325 0 
L 3669 0 
L 3244 1197 
L 1141 1197 
L 716 0 
L 50 0 
L 1831 4666 
z
" transform="scale(0.015625)"/>
       </defs>
       <use xlink:href="#DejaVuSans-47"/>
       <use xlink:href="#DejaVuSans-65" x="77.490234"/>
       <use xlink:href="#DejaVuSans-6d" x="139.013672"/>
       <use xlink:href="#DejaVuSans-69" x="236.425781"/>
       <use xlink:href="#DejaVuSans-6e" x="264.208984"/>
       <use xlink:href="#DejaVuSans-69" x="327.587891"/>
       <use xlink:href="#DejaVuSans-2d" x="355.371094"/>
       <use xlink:href="#DejaVuSans-31" x="391.455078"/>
       <use xlink:href="#DejaVuSans-2e" x="455.078125"/>
       <use xlink:href="#DejaVuSans-35" x="486.865234"/>
       <use xlink:href="#DejaVuSans-2d" x="550.488281"/>
       <use xlink:href="#DejaVuSans-46" x="586.572266"/>
       <use xlink:href="#DejaVuSans-6c" x="644.091797"/>
       <use xlink:href="#DejaVuSans-61" x="671.875"/>
       <use xlink:href="#DejaVuSans-73" x="733.154297"/>
       <use xlink:href="#DejaVuSans-68" x="785.253906"/>
       <use xlink:href="#DejaVuSans-2d" x="848.632812"/>
       <use xlink:href="#DejaVuSans-41" x="882.466797"/>
       <use xlink:href="#DejaVuSans-50" x="950.875"/>
       <use xlink:href="#DejaVuSans-49" x="1011.177734"/>
       <use xlink:href="#DejaVuSans-2d" x="1040.669922"/>
       <use xlink:href="#DejaVuSans-30" x="1076.753906"/>
       <use xlink:href="#DejaVuSans-35" x="1140.376953"/>
       <use xlink:href="#DejaVuSans-31" x="1204"/>
       <use xlink:href="#DejaVuSans-34" x="1267.623047"/>
      </g>
     </g>
    </g>
    <g id="ytick_15">
     <g id="text_23">
      <!-- Llama-3-70B-Instruct -->
      <g transform="translate(82.525 225.439288) scale(0.1 -0.1)">
       <use xlink:href="#DejaVuSans-4c"/>
       <use xlink:href="#DejaVuSans-6c" x="55.712891"/>
       <use xlink:href="#DejaVuSans-61" x="83.496094"/>
       <use xlink:href="#DejaVuSans-6d" x="144.775391"/>
       <use xlink:href="#DejaVuSans-61" x="242.1875"/>
       <use xlink:href="#DejaVuSans-2d" x="303.466797"/>
       <use xlink:href="#DejaVuSans-33" x="339.550781"/>
       <use xlink:href="#DejaVuSans-2d" x="403.173828"/>
       <use xlink:href="#DejaVuSans-37" x="439.257812"/>
       <use xlink:href="#DejaVuSans-30" x="502.880859"/>
       <use xlink:href="#DejaVuSans-42" x="566.503906"/>
       <use xlink:href="#DejaVuSans-2d" x="635.107422"/>
       <use xlink:href="#DejaVuSans-49" x="671.191406"/>
       <use xlink:href="#DejaVuSans-6e" x="700.683594"/>
       <use xlink:href="#DejaVuSans-73" x="764.0625"/>
       <use xlink:href="#DejaVuSans-74" x="816.162109"/>
       <use xlink:href="#DejaVuSans-72" x="855.371094"/>
       <use xlink:href="#DejaVuSans-75" x="896.484375"/>
       <use xlink:href="#DejaVuSans-63" x="959.863281"/>
       <use xlink:href="#DejaVuSans-74" x="1014.84375"/>
      </g>
     </g>
    </g>
    <g id="ytick_16">
     <g id="text_24">
      <!-- Gemini-1.5-Pro-API-0514 -->
      <g transform="translate(64.965625 202.320022) scale(0.1 -0.1)">
       <use xlink:href="#DejaVuSans-47"/>
       <use xlink:href="#DejaVuSans-65" x="77.490234"/>
       <use xlink:href="#DejaVuSans-6d" x="139.013672"/>
       <use xlink:href="#DejaVuSans-69" x="236.425781"/>
       <use xlink:href="#DejaVuSans-6e" x="264.208984"/>
       <use xlink:href="#DejaVuSans-69" x="327.587891"/>
       <use xlink:href="#DejaVuSans-2d" x="355.371094"/>
       <use xlink:href="#DejaVuSans-31" x="391.455078"/>
       <use xlink:href="#DejaVuSans-2e" x="455.078125"/>
       <use xlink:href="#DejaVuSans-35" x="486.865234"/>
       <use xlink:href="#DejaVuSans-2d" x="550.488281"/>
       <use xlink:href="#DejaVuSans-50" x="586.572266"/>
       <use xlink:href="#DejaVuSans-72" x="645.125"/>
       <use xlink:href="#DejaVuSans-6f" x="683.988281"/>
       <use xlink:href="#DejaVuSans-2d" x="747.044922"/>
       <use xlink:href="#DejaVuSans-41" x="780.878906"/>
       <use xlink:href="#DejaVuSans-50" x="849.287109"/>
       <use xlink:href="#DejaVuSans-49" x="909.589844"/>
       <use xlink:href="#DejaVuSans-2d" x="939.082031"/>
       <use xlink:href="#DejaVuSans-30" x="975.166016"/>
       <use xlink:href="#DejaVuSans-35" x="1038.789062"/>
       <use xlink:href="#DejaVuSans-31" x="1102.412109"/>
       <use xlink:href="#DejaVuSans-34" x="1166.035156"/>
      </g>
     </g>
    </g>
    <g id="ytick_17">
     <g id="text_25">
      <!-- Claude-3-Opus-20240229 -->
      <g transform="translate(59.071875 179.200755) scale(0.1 -0.1)">
       <defs>
        <path id="DejaVuSans-4f" d="M 2522 4238 
Q 1834 4238 1429 3725 
Q 1025 3213 1025 2328 
Q 1025 1447 1429 934 
Q 1834 422 2522 422 
Q 3209 422 3611 934 
Q 4013 1447 4013 2328 
Q 4013 3213 3611 3725 
Q 3209 4238 2522 4238 
z
M 2522 4750 
Q 3503 4750 4090 4092 
Q 4678 3434 4678 2328 
Q 4678 1225 4090 567 
Q 3503 -91 2522 -91 
Q 1538 -91 948 565 
Q 359 1222 359 2328 
Q 359 3434 948 4092 
Q 1538 4750 2522 4750 
z
" transform="scale(0.015625)"/>
       </defs>
       <use xlink:href="#DejaVuSans-43"/>
       <use xlink:href="#DejaVuSans-6c" x="69.824219"/>
       <use xlink:href="#DejaVuSans-61" x="97.607422"/>
       <use xlink:href="#DejaVuSans-75" x="158.886719"/>
       <use xlink:href="#DejaVuSans-64" x="222.265625"/>
       <use xlink:href="#DejaVuSans-65" x="285.742188"/>
       <use xlink:href="#DejaVuSans-2d" x="347.265625"/>
       <use xlink:href="#DejaVuSans-33" x="383.349609"/>
       <use xlink:href="#DejaVuSans-2d" x="446.972656"/>
       <use xlink:href="#DejaVuSans-4f" x="485.806641"/>
       <use xlink:href="#DejaVuSans-70" x="564.517578"/>
       <use xlink:href="#DejaVuSans-75" x="627.994141"/>
       <use xlink:href="#DejaVuSans-73" x="691.373047"/>
       <use xlink:href="#DejaVuSans-2d" x="743.472656"/>
       <use xlink:href="#DejaVuSans-32" x="779.556641"/>
       <use xlink:href="#DejaVuSans-30" x="843.179688"/>
       <use xlink:href="#DejaVuSans-32" x="906.802734"/>
       <use xlink:href="#DejaVuSans-34" x="970.425781"/>
       <use xlink:href="#DejaVuSans-30" x="1034.048828"/>
       <use xlink:href="#DejaVuSans-32" x="1097.671875"/>
       <use xlink:href="#DejaVuSans-32" x="1161.294922"/>
       <use xlink:href="#DejaVuSans-39" x="1224.917969"/>
      </g>
     </g>
    </g>
    <g id="ytick_18">
     <g id="text_26">
      <!-- GPT-4o-2024-05-13 -->
      <g transform="translate(90.954687 156.081489) scale(0.1 -0.1)">
       <use xlink:href="#DejaVuSans-47"/>
       <use xlink:href="#DejaVuSans-50" x="77.490234"/>
       <use xlink:href="#DejaVuSans-54" x="137.792969"/>
       <use xlink:href="#DejaVuSans-2d" x="189.751953"/>
       <use xlink:href="#DejaVuSans-34" x="225.835938"/>
       <use xlink:href="#DejaVuSans-6f" x="289.458984"/>
       <use xlink:href="#DejaVuSans-2d" x="352.515625"/>
       <use xlink:href="#DejaVuSans-32" x="388.599609"/>
       <use xlink:href="#DejaVuSans-30" x="452.222656"/>
       <use xlink:href="#DejaVuSans-32" x="515.845703"/>
       <use xlink:href="#DejaVuSans-34" x="579.46875"/>
       <use xlink:href="#DejaVuSans-2d" x="643.091797"/>
       <use xlink:href="#DejaVuSans-30" x="679.175781"/>
       <use xlink:href="#DejaVuSans-35" x="742.798828"/>
       <use xlink:href="#DejaVuSans-2d" x="806.421875"/>
       <use xlink:href="#DejaVuSans-31" x="842.505859"/>
       <use xlink:href="#DejaVuSans-33" x="906.128906"/>
      </g>
     </g>
    </g>
    <g id="ytick_19">
     <g id="text_27">
      <!-- DeepSeek-Coder-V2-Instruct -->
      <g transform="translate(46.328125 132.962223) scale(0.1 -0.1)">
       <use xlink:href="#DejaVuSans-44"/>
       <use xlink:href="#DejaVuSans-65" x="77.001953"/>
       <use xlink:href="#DejaVuSans-65" x="138.525391"/>
       <use xlink:href="#DejaVuSans-70" x="200.048828"/>
       <use xlink:href="#DejaVuSans-53" x="263.525391"/>
       <use xlink:href="#DejaVuSans-65" x="327.001953"/>
       <use xlink:href="#DejaVuSans-65" x="388.525391"/>
       <use xlink:href="#DejaVuSans-6b" x="450.048828"/>
       <use xlink:href="#DejaVuSans-2d" x="507.958984"/>
       <use xlink:href="#DejaVuSans-43" x="544.042969"/>
       <use xlink:href="#DejaVuSans-6f" x="613.867188"/>
       <use xlink:href="#DejaVuSans-64" x="675.048828"/>
       <use xlink:href="#DejaVuSans-65" x="738.525391"/>
       <use xlink:href="#DejaVuSans-72" x="800.048828"/>
       <use xlink:href="#DejaVuSans-2d" x="834.787109"/>
       <use xlink:href="#DejaVuSans-56" x="864.996094"/>
       <use xlink:href="#DejaVuSans-32" x="933.404297"/>
       <use xlink:href="#DejaVuSans-2d" x="997.027344"/>
       <use xlink:href="#DejaVuSans-49" x="1033.111328"/>
       <use xlink:href="#DejaVuSans-6e" x="1062.603516"/>
       <use xlink:href="#DejaVuSans-73" x="1125.982422"/>
       <use xlink:href="#DejaVuSans-74" x="1178.082031"/>
       <use xlink:href="#DejaVuSans-72" x="1217.291016"/>
       <use xlink:href="#DejaVuSans-75" x="1258.404297"/>
       <use xlink:href="#DejaVuSans-63" x="1321.783203"/>
       <use xlink:href="#DejaVuSans-74" x="1376.763672"/>
      </g>
     </g>
    </g>
    <g id="ytick_20">
     <g id="text_28">
      <!-- DeepSeek-V2-Chat (2024-06-28) -->
      <g transform="translate(24.83125 109.842957) scale(0.1 -0.1)">
       <use xlink:href="#DejaVuSans-44"/>
       <use xlink:href="#DejaVuSans-65" x="77.001953"/>
       <use xlink:href="#DejaVuSans-65" x="138.525391"/>
       <use xlink:href="#DejaVuSans-70" x="200.048828"/>
       <use xlink:href="#DejaVuSans-53" x="263.525391"/>
       <use xlink:href="#DejaVuSans-65" x="327.001953"/>
       <use xlink:href="#DejaVuSans-65" x="388.525391"/>
       <use xlink:href="#DejaVuSans-6b" x="450.048828"/>
       <use xlink:href="#DejaVuSans-2d" x="507.958984"/>
       <use xlink:href="#DejaVuSans-56" x="538.167969"/>
       <use xlink:href="#DejaVuSans-32" x="606.576172"/>
       <use xlink:href="#DejaVuSans-2d" x="670.199219"/>
       <use xlink:href="#DejaVuSans-43" x="706.283203"/>
       <use xlink:href="#DejaVuSans-68" x="776.107422"/>
       <use xlink:href="#DejaVuSans-61" x="839.486328"/>
       <use xlink:href="#DejaVuSans-74" x="900.765625"/>
       <use xlink:href="#DejaVuSans-20" x="939.974609"/>
       <use xlink:href="#DejaVuSans-28" x="971.761719"/>
       <use xlink:href="#DejaVuSans-32" x="1010.775391"/>
       <use xlink:href="#DejaVuSans-30" x="1074.398438"/>
       <use xlink:href="#DejaVuSans-32" x="1138.021484"/>
       <use xlink:href="#DejaVuSans-34" x="1201.644531"/>
       <use xlink:href="#DejaVuSans-2d" x="1265.267578"/>
       <use xlink:href="#DejaVuSans-30" x="1301.351562"/>
       <use xlink:href="#DejaVuSans-36" x="1364.974609"/>
       <use xlink:href="#DejaVuSans-2d" x="1428.597656"/>
       <use xlink:href="#DejaVuSans-32" x="1464.681641"/>
       <use xlink:href="#DejaVuSans-38" x="1528.304688"/>
       <use xlink:href="#DejaVuSans-29" x="1591.927734"/>
      </g>
     </g>
    </g>
    <g id="ytick_21">
     <g id="text_29">
      <!-- Claude-3.5-Sonnet-20240620 -->
      <g transform="translate(40.357812 86.723691) scale(0.1 -0.1)">
       <use xlink:href="#DejaVuSans-43"/>
       <use xlink:href="#DejaVuSans-6c" x="69.824219"/>
       <use xlink:href="#DejaVuSans-61" x="97.607422"/>
       <use xlink:href="#DejaVuSans-75" x="158.886719"/>
       <use xlink:href="#DejaVuSans-64" x="222.265625"/>
       <use xlink:href="#DejaVuSans-65" x="285.742188"/>
       <use xlink:href="#DejaVuSans-2d" x="347.265625"/>
       <use xlink:href="#DejaVuSans-33" x="383.349609"/>
       <use xlink:href="#DejaVuSans-2e" x="446.972656"/>
       <use xlink:href="#DejaVuSans-35" x="478.759766"/>
       <use xlink:href="#DejaVuSans-2d" x="542.382812"/>
       <use xlink:href="#DejaVuSans-53" x="578.466797"/>
       <use xlink:href="#DejaVuSans-6f" x="641.943359"/>
       <use xlink:href="#DejaVuSans-6e" x="703.125"/>
       <use xlink:href="#DejaVuSans-6e" x="766.503906"/>
       <use xlink:href="#DejaVuSans-65" x="829.882812"/>
       <use xlink:href="#DejaVuSans-74" x="891.40625"/>
       <use xlink:href="#DejaVuSans-2d" x="930.615234"/>
       <use xlink:href="#DejaVuSans-32" x="966.699219"/>
       <use xlink:href="#DejaVuSans-30" x="1030.322266"/>
       <use xlink:href="#DejaVuSans-32" x="1093.945312"/>
       <use xlink:href="#DejaVuSans-34" x="1157.568359"/>
       <use xlink:href="#DejaVuSans-30" x="1221.191406"/>
       <use xlink:href="#DejaVuSans-36" x="1284.814453"/>
       <use xlink:href="#DejaVuSans-32" x="1348.4375"/>
       <use xlink:href="#DejaVuSans-30" x="1412.060547"/>
      </g>
     </g>
    </g>
    <g id="ytick_22">
     <g id="text_30">
      <!-- GPT-4-Turbo-2024-04-09 -->
      <g transform="translate(66.867187 63.604425) scale(0.1 -0.1)">
       <use xlink:href="#DejaVuSans-47"/>
       <use xlink:href="#DejaVuSans-50" x="77.490234"/>
       <use xlink:href="#DejaVuSans-54" x="137.792969"/>
       <use xlink:href="#DejaVuSans-2d" x="189.751953"/>
       <use xlink:href="#DejaVuSans-34" x="225.835938"/>
       <use xlink:href="#DejaVuSans-2d" x="289.458984"/>
       <use xlink:href="#DejaVuSans-54" x="316.417969"/>
       <use xlink:href="#DejaVuSans-75" x="362.376953"/>
       <use xlink:href="#DejaVuSans-72" x="425.755859"/>
       <use xlink:href="#DejaVuSans-62" x="466.869141"/>
       <use xlink:href="#DejaVuSans-6f" x="530.345703"/>
       <use xlink:href="#DejaVuSans-2d" x="593.402344"/>
       <use xlink:href="#DejaVuSans-32" x="629.486328"/>
       <use xlink:href="#DejaVuSans-30" x="693.109375"/>
       <use xlink:href="#DejaVuSans-32" x="756.732422"/>
       <use xlink:href="#DejaVuSans-34" x="820.355469"/>
       <use xlink:href="#DejaVuSans-2d" x="883.978516"/>
       <use xlink:href="#DejaVuSans-30" x="920.0625"/>
       <use xlink:href="#DejaVuSans-34" x="983.685547"/>
       <use xlink:href="#DejaVuSans-2d" x="1047.308594"/>
       <use xlink:href="#DejaVuSans-30" x="1083.392578"/>
       <use xlink:href="#DejaVuSans-39" x="1147.015625"/>
      </g>
     </g>
    </g>
   </g>
   <g id="patch_3">
    <path d="M 194.928125 554.5575 
L 544.578325 554.5575 
L 544.578325 536.062087 
L 194.928125 536.062087 
z
" clip-path="url(#p78bb7fc7f4)" style="fill: #a9cce3"/>
   </g>
   <g id="patch_4">
    <path d="M 194.928125 531.438234 
L 556.498218 531.438234 
L 556.498218 512.942821 
L 194.928125 512.942821 
z
" clip-path="url(#p78bb7fc7f4)" style="fill: #a9cce3"/>
   </g>
   <g id="patch_5">
    <path d="M 194.928125 508.318968 
L 564.444814 508.318968 
L 564.444814 489.823555 
L 194.928125 489.823555 
z
" clip-path="url(#p78bb7fc7f4)" style="fill: #f5b7b1"/>
   </g>
   <g id="patch_6">
    <path d="M 194.928125 485.199702 
L 570.404761 485.199702 
L 570.404761 466.704289 
L 194.928125 466.704289 
z
" clip-path="url(#p78bb7fc7f4)" style="fill: #a9dfbf"/>
   </g>
   <g id="patch_7">
    <path d="M 194.928125 462.080436 
L 578.351356 462.080436 
L 578.351356 443.585023 
L 194.928125 443.585023 
z
" clip-path="url(#p78bb7fc7f4)" style="fill: #a9dfbf"/>
   </g>
   <g id="patch_8">
    <path d="M 194.928125 438.96117 
L 590.271249 438.96117 
L 590.271249 420.465757 
L 194.928125 420.465757 
z
" clip-path="url(#p78bb7fc7f4)" style="fill: #f5b7b1"/>
   </g>
   <g id="patch_9">
    <path d="M 194.928125 415.841904 
L 590.271249 415.841904 
L 590.271249 397.346491 
L 194.928125 397.346491 
z
" clip-path="url(#p78bb7fc7f4)" style="fill: #a9cce3"/>
   </g>
   <g id="patch_10">
    <path d="M 194.928125 392.722638 
L 590.271249 392.722638 
L 590.271249 374.227225 
L 194.928125 374.227225 
z
" clip-path="url(#p78bb7fc7f4)" style="fill: #a9dfbf"/>
   </g>
   <g id="patch_11">
    <path d="M 194.928125 369.603372 
L 604.177791 369.603372 
L 604.177791 351.107959 
L 194.928125 351.107959 
z
" clip-path="url(#p78bb7fc7f4)" style="fill: #f5b7b1"/>
   </g>
   <g id="patch_12">
    <path d="M 194.928125 346.484106 
L 624.04428 346.484106 
L 624.04428 327.988693 
L 194.928125 327.988693 
z
" clip-path="url(#p78bb7fc7f4)" style="fill: #f5b7b1"/>
   </g>
   <g id="patch_13">
    <path d="M 194.928125 323.364839 
L 631.990875 323.364839 
L 631.990875 304.869427 
L 194.928125 304.869427 
z
" clip-path="url(#p78bb7fc7f4)" style="fill: #a9dfbf"/>
   </g>
   <g id="patch_14">
    <path d="M 194.928125 300.245573 
L 637.950822 300.245573 
L 637.950822 281.750161 
L 194.928125 281.750161 
z
" clip-path="url(#p78bb7fc7f4)" style="fill: #f5b7b1"/>
   </g>
   <g id="patch_15">
    <path d="M 194.928125 277.126307 
L 657.817311 277.126307 
L 657.817311 258.630894 
L 194.928125 258.630894 
z
" clip-path="url(#p78bb7fc7f4)" style="fill: #a9cce3"/>
   </g>
   <g id="patch_16">
    <path d="M 194.928125 254.007041 
L 663.777257 254.007041 
L 663.777257 235.511628 
L 194.928125 235.511628 
z
" clip-path="url(#p78bb7fc7f4)" style="fill: #a9cce3"/>
   </g>
   <g id="patch_17">
    <path d="M 194.928125 230.887775 
L 685.630395 230.887775 
L 685.630395 212.392362 
L 194.928125 212.392362 
z
" clip-path="url(#p78bb7fc7f4)" style="fill: #f5b7b1"/>
   </g>
   <g id="patch_18">
    <path d="M 194.928125 207.768509 
L 697.550288 207.768509 
L 697.550288 189.273096 
L 194.928125 189.273096 
z
" clip-path="url(#p78bb7fc7f4)" style="fill: #a9cce3"/>
   </g>
   <g id="patch_19">
    <path d="M 194.928125 184.649243 
L 711.45683 184.649243 
L 711.45683 166.15383 
L 194.928125 166.15383 
z
" clip-path="url(#p78bb7fc7f4)" style="fill: #a9cce3"/>
   </g>
   <g id="patch_20">
    <path d="M 194.928125 161.529977 
L 731.323319 161.529977 
L 731.323319 143.034564 
L 194.928125 143.034564 
z
" clip-path="url(#p78bb7fc7f4)" style="fill: #a9cce3"/>
   </g>
   <g id="patch_21">
    <path d="M 194.928125 138.410711 
L 731.323319 138.410711 
L 731.323319 119.915298 
L 194.928125 119.915298 
z
" clip-path="url(#p78bb7fc7f4)" style="fill: #f5b7b1"/>
   </g>
   <g id="patch_22">
    <path d="M 194.928125 115.291445 
L 765.096349 115.291445 
L 765.096349 96.796032 
L 194.928125 96.796032 
z
" clip-path="url(#p78bb7fc7f4)" style="fill: #a9cce3"/>
   </g>
   <g id="patch_23">
    <path d="M 194.928125 92.172179 
L 779.002891 92.172179 
L 779.002891 73.676766 
L 194.928125 73.676766 
z
" clip-path="url(#p78bb7fc7f4)" style="fill: #a9cce3"/>
   </g>
   <g id="patch_24">
    <path d="M 194.928125 69.052913 
L 832.642411 69.052913 
L 832.642411 50.5575 
L 194.928125 50.5575 
z
" clip-path="url(#p78bb7fc7f4)" style="fill: #a9cce3"/>
   </g>
   <g id="patch_25">
    <path d="M 194.928125 579.7575 
L 864.528125 579.7575 
" style="fill: none; stroke: #000000; stroke-width: 0.8; stroke-linejoin: miter; stroke-linecap: square"/>
   </g>
   <g id="text_31">
    <g id="patch_26">
     <path d="M 543.618325 550.141044 
L 565.275825 550.141044 
L 565.275825 540.478544 
L 543.618325 540.478544 
z
" style="fill: #ffffff; opacity: 0.7"/>
    </g>
    <!-- 17.6 -->
    <g transform="translate(544.578325 547.517294) scale(0.08 -0.08)">
     <defs>
      <path id="DejaVuSans-Bold-37" d="M 428 4666 
L 3944 4666 
L 3944 3988 
L 2125 0 
L 953 0 
L 2675 3781 
L 428 3781 
L 428 4666 
z
" transform="scale(0.015625)"/>
      <path id="DejaVuSans-Bold-2e" d="M 653 1209 
L 1778 1209 
L 1778 0 
L 653 0 
L 653 1209 
z
" transform="scale(0.015625)"/>
      <path id="DejaVuSans-Bold-36" d="M 2316 2303 
Q 2000 2303 1842 2098 
Q 1684 1894 1684 1484 
Q 1684 1075 1842 870 
Q 2000 666 2316 666 
Q 2634 666 2792 870 
Q 2950 1075 2950 1484 
Q 2950 1894 2792 2098 
Q 2634 2303 2316 2303 
z
M 3803 4544 
L 3803 3681 
Q 3506 3822 3243 3889 
Q 2981 3956 2731 3956 
Q 2194 3956 1894 3657 
Q 1594 3359 1544 2772 
Q 1750 2925 1990 3001 
Q 2231 3078 2516 3078 
Q 3231 3078 3670 2659 
Q 4109 2241 4109 1563 
Q 4109 813 3618 361 
Q 3128 -91 2303 -91 
Q 1394 -91 895 523 
Q 397 1138 397 2266 
Q 397 3422 980 4083 
Q 1563 4744 2578 4744 
Q 2900 4744 3203 4694 
Q 3506 4644 3803 4544 
z
" transform="scale(0.015625)"/>
     </defs>
     <use xlink:href="#DejaVuSans-Bold-31"/>
     <use xlink:href="#DejaVuSans-Bold-37" x="69.580078"/>
     <use xlink:href="#DejaVuSans-Bold-2e" x="139.160156"/>
     <use xlink:href="#DejaVuSans-Bold-36" x="177.148438"/>
    </g>
   </g>
   <g id="text_32">
    <g id="patch_27">
     <path d="M 555.538218 527.021778 
L 577.195718 527.021778 
L 577.195718 517.359278 
L 555.538218 517.359278 
z
" style="fill: #ffffff; opacity: 0.7"/>
    </g>
    <!-- 18.2 -->
    <g transform="translate(556.498218 524.398028) scale(0.08 -0.08)">
     <defs>
      <path id="DejaVuSans-Bold-38" d="M 2228 2088 
Q 1891 2088 1709 1903 
Q 1528 1719 1528 1375 
Q 1528 1031 1709 848 
Q 1891 666 2228 666 
Q 2563 666 2741 848 
Q 2919 1031 2919 1375 
Q 2919 1722 2741 1905 
Q 2563 2088 2228 2088 
z
M 1350 2484 
Q 925 2613 709 2878 
Q 494 3144 494 3541 
Q 494 4131 934 4440 
Q 1375 4750 2228 4750 
Q 3075 4750 3515 4442 
Q 3956 4134 3956 3541 
Q 3956 3144 3739 2878 
Q 3522 2613 3097 2484 
Q 3572 2353 3814 2058 
Q 4056 1763 4056 1313 
Q 4056 619 3595 264 
Q 3134 -91 2228 -91 
Q 1319 -91 855 264 
Q 391 619 391 1313 
Q 391 1763 633 2058 
Q 875 2353 1350 2484 
z
M 1631 3419 
Q 1631 3141 1786 2991 
Q 1941 2841 2228 2841 
Q 2509 2841 2662 2991 
Q 2816 3141 2816 3419 
Q 2816 3697 2662 3845 
Q 2509 3994 2228 3994 
Q 1941 3994 1786 3844 
Q 1631 3694 1631 3419 
z
" transform="scale(0.015625)"/>
      <path id="DejaVuSans-Bold-32" d="M 1844 884 
L 3897 884 
L 3897 0 
L 506 0 
L 506 884 
L 2209 2388 
Q 2438 2594 2547 2791 
Q 2656 2988 2656 3200 
Q 2656 3528 2436 3728 
Q 2216 3928 1850 3928 
Q 1569 3928 1234 3808 
Q 900 3688 519 3450 
L 519 4475 
Q 925 4609 1322 4679 
Q 1719 4750 2100 4750 
Q 2938 4750 3402 4381 
Q 3866 4013 3866 3353 
Q 3866 2972 3669 2642 
Q 3472 2313 2841 1759 
L 1844 884 
z
" transform="scale(0.015625)"/>
     </defs>
     <use xlink:href="#DejaVuSans-Bold-31"/>
     <use xlink:href="#DejaVuSans-Bold-38" x="69.580078"/>
     <use xlink:href="#DejaVuSans-Bold-2e" x="139.160156"/>
     <use xlink:href="#DejaVuSans-Bold-32" x="177.148438"/>
    </g>
   </g>
   <g id="text_33">
    <g id="patch_28">
     <path d="M 563.484814 503.902511 
L 585.142314 503.902511 
L 585.142314 494.240011 
L 563.484814 494.240011 
z
" style="fill: #ffffff; opacity: 0.7"/>
    </g>
    <!-- 18.6 -->
    <g transform="translate(564.444814 501.278761) scale(0.08 -0.08)">
     <use xlink:href="#DejaVuSans-Bold-31"/>
     <use xlink:href="#DejaVuSans-Bold-38" x="69.580078"/>
     <use xlink:href="#DejaVuSans-Bold-2e" x="139.160156"/>
     <use xlink:href="#DejaVuSans-Bold-36" x="177.148438"/>
    </g>
   </g>
   <g id="text_34">
    <g id="patch_29">
     <path d="M 569.444761 480.783245 
L 591.102261 480.783245 
L 591.102261 471.120745 
L 569.444761 471.120745 
z
" style="fill: #ffffff; opacity: 0.7"/>
    </g>
    <!-- 18.9 -->
    <g transform="translate(570.404761 478.159495) scale(0.08 -0.08)">
     <defs>
      <path id="DejaVuSans-Bold-39" d="M 641 103 
L 641 966 
Q 928 831 1190 764 
Q 1453 697 1709 697 
Q 2247 697 2547 995 
Q 2847 1294 2900 1881 
Q 2688 1725 2447 1647 
Q 2206 1569 1925 1569 
Q 1209 1569 770 1986 
Q 331 2403 331 3084 
Q 331 3838 820 4291 
Q 1309 4744 2131 4744 
Q 3044 4744 3544 4128 
Q 4044 3513 4044 2388 
Q 4044 1231 3459 570 
Q 2875 -91 1856 -91 
Q 1528 -91 1228 -42 
Q 928 6 641 103 
z
M 2125 2350 
Q 2441 2350 2600 2554 
Q 2759 2759 2759 3169 
Q 2759 3575 2600 3781 
Q 2441 3988 2125 3988 
Q 1809 3988 1650 3781 
Q 1491 3575 1491 3169 
Q 1491 2759 1650 2554 
Q 1809 2350 2125 2350 
z
" transform="scale(0.015625)"/>
     </defs>
     <use xlink:href="#DejaVuSans-Bold-31"/>
     <use xlink:href="#DejaVuSans-Bold-38" x="69.580078"/>
     <use xlink:href="#DejaVuSans-Bold-2e" x="139.160156"/>
     <use xlink:href="#DejaVuSans-Bold-39" x="177.148438"/>
    </g>
   </g>
   <g id="text_35">
    <g id="patch_30">
     <path d="M 577.391356 457.663979 
L 599.048856 457.663979 
L 599.048856 448.001479 
L 577.391356 448.001479 
z
" style="fill: #ffffff; opacity: 0.7"/>
    </g>
    <!-- 19.3 -->
    <g transform="translate(578.351356 455.040229) scale(0.08 -0.08)">
     <defs>
      <path id="DejaVuSans-Bold-33" d="M 2981 2516 
Q 3453 2394 3698 2092 
Q 3944 1791 3944 1325 
Q 3944 631 3412 270 
Q 2881 -91 1863 -91 
Q 1503 -91 1142 -33 
Q 781 25 428 141 
L 428 1069 
Q 766 900 1098 814 
Q 1431 728 1753 728 
Q 2231 728 2486 893 
Q 2741 1059 2741 1369 
Q 2741 1688 2480 1852 
Q 2219 2016 1709 2016 
L 1228 2016 
L 1228 2791 
L 1734 2791 
Q 2188 2791 2409 2933 
Q 2631 3075 2631 3366 
Q 2631 3634 2415 3781 
Q 2200 3928 1806 3928 
Q 1516 3928 1219 3862 
Q 922 3797 628 3669 
L 628 4550 
Q 984 4650 1334 4700 
Q 1684 4750 2022 4750 
Q 2931 4750 3382 4451 
Q 3834 4153 3834 3553 
Q 3834 3144 3618 2883 
Q 3403 2622 2981 2516 
z
" transform="scale(0.015625)"/>
     </defs>
     <use xlink:href="#DejaVuSans-Bold-31"/>
     <use xlink:href="#DejaVuSans-Bold-39" x="69.580078"/>
     <use xlink:href="#DejaVuSans-Bold-2e" x="139.160156"/>
     <use xlink:href="#DejaVuSans-Bold-33" x="177.148438"/>
    </g>
   </g>
   <g id="text_36">
    <g id="patch_31">
     <path d="M 589.311249 434.544713 
L 610.968749 434.544713 
L 610.968749 424.882213 
L 589.311249 424.882213 
z
" style="fill: #ffffff; opacity: 0.7"/>
    </g>
    <!-- 19.9 -->
    <g transform="translate(590.271249 431.920963) scale(0.08 -0.08)">
     <use xlink:href="#DejaVuSans-Bold-31"/>
     <use xlink:href="#DejaVuSans-Bold-39" x="69.580078"/>
     <use xlink:href="#DejaVuSans-Bold-2e" x="139.160156"/>
     <use xlink:href="#DejaVuSans-Bold-39" x="177.148438"/>
    </g>
   </g>
   <g id="text_37">
    <g id="patch_32">
     <path d="M 589.311249 411.425447 
L 610.968749 411.425447 
L 610.968749 401.762947 
L 589.311249 401.762947 
z
" style="fill: #ffffff; opacity: 0.7"/>
    </g>
    <!-- 19.9 -->
    <g transform="translate(590.271249 408.801697) scale(0.08 -0.08)">
     <use xlink:href="#DejaVuSans-Bold-31"/>
     <use xlink:href="#DejaVuSans-Bold-39" x="69.580078"/>
     <use xlink:href="#DejaVuSans-Bold-2e" x="139.160156"/>
     <use xlink:href="#DejaVuSans-Bold-39" x="177.148438"/>
    </g>
   </g>
   <g id="text_38">
    <g id="patch_33">
     <path d="M 589.311249 388.306181 
L 610.968749 388.306181 
L 610.968749 378.643681 
L 589.311249 378.643681 
z
" style="fill: #ffffff; opacity: 0.7"/>
    </g>
    <!-- 19.9 -->
    <g transform="translate(590.271249 385.682431) scale(0.08 -0.08)">
     <use xlink:href="#DejaVuSans-Bold-31"/>
     <use xlink:href="#DejaVuSans-Bold-39" x="69.580078"/>
     <use xlink:href="#DejaVuSans-Bold-2e" x="139.160156"/>
     <use xlink:href="#DejaVuSans-Bold-39" x="177.148438"/>
    </g>
   </g>
   <g id="text_39">
    <g id="patch_34">
     <path d="M 603.217791 365.186915 
L 624.875291 365.186915 
L 624.875291 355.524415 
L 603.217791 355.524415 
z
" style="fill: #ffffff; opacity: 0.7"/>
    </g>
    <!-- 20.6 -->
    <g transform="translate(604.177791 362.563165) scale(0.08 -0.08)">
     <defs>
      <path id="DejaVuSans-Bold-30" d="M 2944 2338 
Q 2944 3213 2780 3570 
Q 2616 3928 2228 3928 
Q 1841 3928 1675 3570 
Q 1509 3213 1509 2338 
Q 1509 1453 1675 1090 
Q 1841 728 2228 728 
Q 2613 728 2778 1090 
Q 2944 1453 2944 2338 
z
M 4147 2328 
Q 4147 1169 3647 539 
Q 3147 -91 2228 -91 
Q 1306 -91 806 539 
Q 306 1169 306 2328 
Q 306 3491 806 4120 
Q 1306 4750 2228 4750 
Q 3147 4750 3647 4120 
Q 4147 3491 4147 2328 
z
" transform="scale(0.015625)"/>
     </defs>
     <use xlink:href="#DejaVuSans-Bold-32"/>
     <use xlink:href="#DejaVuSans-Bold-30" x="69.580078"/>
     <use xlink:href="#DejaVuSans-Bold-2e" x="139.160156"/>
     <use xlink:href="#DejaVuSans-Bold-36" x="177.148438"/>
    </g>
   </g>
   <g id="text_40">
    <g id="patch_35">
     <path d="M 623.08428 342.067649 
L 644.74178 342.067649 
L 644.74178 332.405149 
L 623.08428 332.405149 
z
" style="fill: #ffffff; opacity: 0.7"/>
    </g>
    <!-- 21.6 -->
    <g transform="translate(624.04428 339.443899) scale(0.08 -0.08)">
     <use xlink:href="#DejaVuSans-Bold-32"/>
     <use xlink:href="#DejaVuSans-Bold-31" x="69.580078"/>
     <use xlink:href="#DejaVuSans-Bold-2e" x="139.160156"/>
     <use xlink:href="#DejaVuSans-Bold-36" x="177.148438"/>
    </g>
   </g>
   <g id="text_41">
    <g id="patch_36">
     <path d="M 631.030875 318.948383 
L 652.688375 318.948383 
L 652.688375 309.285883 
L 631.030875 309.285883 
z
" style="fill: #ffffff; opacity: 0.7"/>
    </g>
    <!-- 22.0 -->
    <g transform="translate(631.990875 316.324633) scale(0.08 -0.08)">
     <use xlink:href="#DejaVuSans-Bold-32"/>
     <use xlink:href="#DejaVuSans-Bold-32" x="69.580078"/>
     <use xlink:href="#DejaVuSans-Bold-2e" x="139.160156"/>
     <use xlink:href="#DejaVuSans-Bold-30" x="177.148438"/>
    </g>
   </g>
   <g id="text_42">
    <g id="patch_37">
     <path d="M 636.990822 295.829117 
L 658.648322 295.829117 
L 658.648322 286.166617 
L 636.990822 286.166617 
z
" style="fill: #ffffff; opacity: 0.7"/>
    </g>
    <!-- 22.3 -->
    <g transform="translate(637.950822 293.205367) scale(0.08 -0.08)">
     <use xlink:href="#DejaVuSans-Bold-32"/>
     <use xlink:href="#DejaVuSans-Bold-32" x="69.580078"/>
     <use xlink:href="#DejaVuSans-Bold-2e" x="139.160156"/>
     <use xlink:href="#DejaVuSans-Bold-33" x="177.148438"/>
    </g>
   </g>
   <g id="text_43">
    <g id="patch_38">
     <path d="M 656.857311 272.709851 
L 678.514811 272.709851 
L 678.514811 263.047351 
L 656.857311 263.047351 
z
" style="fill: #ffffff; opacity: 0.7"/>
    </g>
    <!-- 23.3 -->
    <g transform="translate(657.817311 270.086101) scale(0.08 -0.08)">
     <use xlink:href="#DejaVuSans-Bold-32"/>
     <use xlink:href="#DejaVuSans-Bold-33" x="69.580078"/>
     <use xlink:href="#DejaVuSans-Bold-2e" x="139.160156"/>
     <use xlink:href="#DejaVuSans-Bold-33" x="177.148438"/>
    </g>
   </g>
   <g id="text_44">
    <g id="patch_39">
     <path d="M 662.817257 249.590585 
L 684.474757 249.590585 
L 684.474757 239.928085 
L 662.817257 239.928085 
z
" style="fill: #ffffff; opacity: 0.7"/>
    </g>
    <!-- 23.6 -->
    <g transform="translate(663.777257 246.966835) scale(0.08 -0.08)">
     <use xlink:href="#DejaVuSans-Bold-32"/>
     <use xlink:href="#DejaVuSans-Bold-33" x="69.580078"/>
     <use xlink:href="#DejaVuSans-Bold-2e" x="139.160156"/>
     <use xlink:href="#DejaVuSans-Bold-36" x="177.148438"/>
    </g>
   </g>
   <g id="text_45">
    <g id="patch_40">
     <path d="M 684.670395 226.471319 
L 706.327895 226.471319 
L 706.327895 216.808819 
L 684.670395 216.808819 
z
" style="fill: #ffffff; opacity: 0.7"/>
    </g>
    <!-- 24.7 -->
    <g transform="translate(685.630395 223.847569) scale(0.08 -0.08)">
     <defs>
      <path id="DejaVuSans-Bold-34" d="M 2356 3675 
L 1038 1722 
L 2356 1722 
L 2356 3675 
z
M 2156 4666 
L 3494 4666 
L 3494 1722 
L 4159 1722 
L 4159 850 
L 3494 850 
L 3494 0 
L 2356 0 
L 2356 850 
L 288 850 
L 288 1881 
L 2156 4666 
z
" transform="scale(0.015625)"/>
     </defs>
     <use xlink:href="#DejaVuSans-Bold-32"/>
     <use xlink:href="#DejaVuSans-Bold-34" x="69.580078"/>
     <use xlink:href="#DejaVuSans-Bold-2e" x="139.160156"/>
     <use xlink:href="#DejaVuSans-Bold-37" x="177.148438"/>
    </g>
   </g>
   <g id="text_46">
    <g id="patch_41">
     <path d="M 696.590288 203.352053 
L 718.247788 203.352053 
L 718.247788 193.689553 
L 696.590288 193.689553 
z
" style="fill: #ffffff; opacity: 0.7"/>
    </g>
    <!-- 25.3 -->
    <g transform="translate(697.550288 200.728303) scale(0.08 -0.08)">
     <defs>
      <path id="DejaVuSans-Bold-35" d="M 678 4666 
L 3669 4666 
L 3669 3781 
L 1638 3781 
L 1638 3059 
Q 1775 3097 1914 3117 
Q 2053 3138 2203 3138 
Q 3056 3138 3531 2711 
Q 4006 2284 4006 1522 
Q 4006 766 3489 337 
Q 2972 -91 2053 -91 
Q 1656 -91 1267 -14 
Q 878 63 494 219 
L 494 1166 
Q 875 947 1217 837 
Q 1559 728 1863 728 
Q 2300 728 2551 942 
Q 2803 1156 2803 1522 
Q 2803 1891 2551 2103 
Q 2300 2316 1863 2316 
Q 1603 2316 1309 2248 
Q 1016 2181 678 2041 
L 678 4666 
z
" transform="scale(0.015625)"/>
     </defs>
     <use xlink:href="#DejaVuSans-Bold-32"/>
     <use xlink:href="#DejaVuSans-Bold-35" x="69.580078"/>
     <use xlink:href="#DejaVuSans-Bold-2e" x="139.160156"/>
     <use xlink:href="#DejaVuSans-Bold-33" x="177.148438"/>
    </g>
   </g>
   <g id="text_47">
    <g id="patch_42">
     <path d="M 710.49683 180.232787 
L 732.15433 180.232787 
L 732.15433 170.570287 
L 710.49683 170.570287 
z
" style="fill: #ffffff; opacity: 0.7"/>
    </g>
    <!-- 26.0 -->
    <g transform="translate(711.45683 177.609037) scale(0.08 -0.08)">
     <use xlink:href="#DejaVuSans-Bold-32"/>
     <use xlink:href="#DejaVuSans-Bold-36" x="69.580078"/>
     <use xlink:href="#DejaVuSans-Bold-2e" x="139.160156"/>
     <use xlink:href="#DejaVuSans-Bold-30" x="177.148438"/>
    </g>
   </g>
   <g id="text_48">
    <g id="patch_43">
     <path d="M 730.363319 157.113521 
L 752.020819 157.113521 
L 752.020819 147.451021 
L 730.363319 147.451021 
z
" style="fill: #ffffff; opacity: 0.7"/>
    </g>
    <!-- 27.0 -->
    <g transform="translate(731.323319 154.489771) scale(0.08 -0.08)">
     <use xlink:href="#DejaVuSans-Bold-32"/>
     <use xlink:href="#DejaVuSans-Bold-37" x="69.580078"/>
     <use xlink:href="#DejaVuSans-Bold-2e" x="139.160156"/>
     <use xlink:href="#DejaVuSans-Bold-30" x="177.148438"/>
    </g>
   </g>
   <g id="text_49">
    <g id="patch_44">
     <path d="M 730.363319 133.994255 
L 752.020819 133.994255 
L 752.020819 124.331755 
L 730.363319 124.331755 
z
" style="fill: #ffffff; opacity: 0.7"/>
    </g>
    <!-- 27.0 -->
    <g transform="translate(731.323319 131.370505) scale(0.08 -0.08)">
     <use xlink:href="#DejaVuSans-Bold-32"/>
     <use xlink:href="#DejaVuSans-Bold-37" x="69.580078"/>
     <use xlink:href="#DejaVuSans-Bold-2e" x="139.160156"/>
     <use xlink:href="#DejaVuSans-Bold-30" x="177.148438"/>
    </g>
   </g>
   <g id="text_50">
    <g id="patch_45">
     <path d="M 764.136349 110.874989 
L 785.793849 110.874989 
L 785.793849 101.212489 
L 764.136349 101.212489 
z
" style="fill: #ffffff; opacity: 0.7"/>
    </g>
    <!-- 28.7 -->
    <g transform="translate(765.096349 108.251239) scale(0.08 -0.08)">
     <use xlink:href="#DejaVuSans-Bold-32"/>
     <use xlink:href="#DejaVuSans-Bold-38" x="69.580078"/>
     <use xlink:href="#DejaVuSans-Bold-2e" x="139.160156"/>
     <use xlink:href="#DejaVuSans-Bold-37" x="177.148438"/>
    </g>
   </g>
   <g id="text_51">
    <g id="patch_46">
     <path d="M 778.042891 87.755722 
L 799.700391 87.755722 
L 799.700391 78.093222 
L 778.042891 78.093222 
z
" style="fill: #ffffff; opacity: 0.7"/>
    </g>
    <!-- 29.4 -->
    <g transform="translate(779.002891 85.131972) scale(0.08 -0.08)">
     <use xlink:href="#DejaVuSans-Bold-32"/>
     <use xlink:href="#DejaVuSans-Bold-39" x="69.580078"/>
     <use xlink:href="#DejaVuSans-Bold-2e" x="139.160156"/>
     <use xlink:href="#DejaVuSans-Bold-34" x="177.148438"/>
    </g>
   </g>
   <g id="text_52">
    <g id="patch_47">
     <path d="M 831.682411 64.636456 
L 853.339911 64.636456 
L 853.339911 54.973956 
L 831.682411 54.973956 
z
" style="fill: #ffffff; opacity: 0.7"/>
    </g>
    <!-- 32.1 -->
    <g transform="translate(832.642411 62.012706) scale(0.08 -0.08)">
     <use xlink:href="#DejaVuSans-Bold-33"/>
     <use xlink:href="#DejaVuSans-Bold-32" x="69.580078"/>
     <use xlink:href="#DejaVuSans-Bold-2e" x="139.160156"/>
     <use xlink:href="#DejaVuSans-Bold-31" x="177.148438"/>
    </g>
   </g>
   <g id="text_53">
    <!-- BigCodeBench-Hard (Complete + Instruct) -->
    <g transform="translate(339.218125 19.3575) scale(0.16 -0.16)">
     <defs>
      <path id="DejaVuSans-Bold-42" d="M 2456 2859 
Q 2741 2859 2887 2984 
Q 3034 3109 3034 3353 
Q 3034 3594 2887 3720 
Q 2741 3847 2456 3847 
L 1791 3847 
L 1791 2859 
L 2456 2859 
z
M 2497 819 
Q 2859 819 3042 972 
Q 3225 1125 3225 1434 
Q 3225 1738 3044 1889 
Q 2863 2041 2497 2041 
L 1791 2041 
L 1791 819 
L 2497 819 
z
M 3616 2497 
Q 4003 2384 4215 2081 
Q 4428 1778 4428 1338 
Q 4428 663 3972 331 
Q 3516 0 2584 0 
L 588 0 
L 588 4666 
L 2394 4666 
Q 3366 4666 3802 4372 
Q 4238 4078 4238 3431 
Q 4238 3091 4078 2852 
Q 3919 2613 3616 2497 
z
" transform="scale(0.015625)"/>
      <path id="DejaVuSans-Bold-69" d="M 538 3500 
L 1656 3500 
L 1656 0 
L 538 0 
L 538 3500 
z
M 538 4863 
L 1656 4863 
L 1656 3950 
L 538 3950 
L 538 4863 
z
" transform="scale(0.015625)"/>
      <path id="DejaVuSans-Bold-67" d="M 2919 594 
Q 2688 288 2409 144 
Q 2131 0 1766 0 
Q 1125 0 706 504 
Q 288 1009 288 1791 
Q 288 2575 706 3076 
Q 1125 3578 1766 3578 
Q 2131 3578 2409 3434 
Q 2688 3291 2919 2981 
L 2919 3500 
L 4044 3500 
L 4044 353 
Q 4044 -491 3511 -936 
Q 2978 -1381 1966 -1381 
Q 1638 -1381 1331 -1331 
Q 1025 -1281 716 -1178 
L 716 -306 
Q 1009 -475 1290 -558 
Q 1572 -641 1856 -641 
Q 2406 -641 2662 -400 
Q 2919 -159 2919 353 
L 2919 594 
z
M 2181 2772 
Q 1834 2772 1640 2515 
Q 1447 2259 1447 1791 
Q 1447 1309 1634 1061 
Q 1822 813 2181 813 
Q 2531 813 2725 1069 
Q 2919 1325 2919 1791 
Q 2919 2259 2725 2515 
Q 2531 2772 2181 2772 
z
" transform="scale(0.015625)"/>
      <path id="DejaVuSans-Bold-43" d="M 4288 256 
Q 3956 84 3597 -3 
Q 3238 -91 2847 -91 
Q 1681 -91 1000 561 
Q 319 1213 319 2328 
Q 319 3447 1000 4098 
Q 1681 4750 2847 4750 
Q 3238 4750 3597 4662 
Q 3956 4575 4288 4403 
L 4288 3438 
Q 3953 3666 3628 3772 
Q 3303 3878 2944 3878 
Q 2300 3878 1931 3465 
Q 1563 3053 1563 2328 
Q 1563 1606 1931 1193 
Q 2300 781 2944 781 
Q 3303 781 3628 887 
Q 3953 994 4288 1222 
L 4288 256 
z
" transform="scale(0.015625)"/>
      <path id="DejaVuSans-Bold-6f" d="M 2203 2784 
Q 1831 2784 1636 2517 
Q 1441 2250 1441 1747 
Q 1441 1244 1636 976 
Q 1831 709 2203 709 
Q 2569 709 2762 976 
Q 2956 1244 2956 1747 
Q 2956 2250 2762 2517 
Q 2569 2784 2203 2784 
z
M 2203 3584 
Q 3106 3584 3614 3096 
Q 4122 2609 4122 1747 
Q 4122 884 3614 396 
Q 3106 -91 2203 -91 
Q 1297 -91 786 396 
Q 275 884 275 1747 
Q 275 2609 786 3096 
Q 1297 3584 2203 3584 
z
" transform="scale(0.015625)"/>
      <path id="DejaVuSans-Bold-64" d="M 2919 2988 
L 2919 4863 
L 4044 4863 
L 4044 0 
L 2919 0 
L 2919 506 
Q 2688 197 2409 53 
Q 2131 -91 1766 -91 
Q 1119 -91 703 423 
Q 288 938 288 1747 
Q 288 2556 703 3070 
Q 1119 3584 1766 3584 
Q 2128 3584 2408 3439 
Q 2688 3294 2919 2988 
z
M 2181 722 
Q 2541 722 2730 984 
Q 2919 1247 2919 1747 
Q 2919 2247 2730 2509 
Q 2541 2772 2181 2772 
Q 1825 2772 1636 2509 
Q 1447 2247 1447 1747 
Q 1447 1247 1636 984 
Q 1825 722 2181 722 
z
" transform="scale(0.015625)"/>
      <path id="DejaVuSans-Bold-65" d="M 4031 1759 
L 4031 1441 
L 1416 1441 
Q 1456 1047 1700 850 
Q 1944 653 2381 653 
Q 2734 653 3104 758 
Q 3475 863 3866 1075 
L 3866 213 
Q 3469 63 3072 -14 
Q 2675 -91 2278 -91 
Q 1328 -91 801 392 
Q 275 875 275 1747 
Q 275 2603 792 3093 
Q 1309 3584 2216 3584 
Q 3041 3584 3536 3087 
Q 4031 2591 4031 1759 
z
M 2881 2131 
Q 2881 2450 2695 2645 
Q 2509 2841 2209 2841 
Q 1884 2841 1681 2658 
Q 1478 2475 1428 2131 
L 2881 2131 
z
" transform="scale(0.015625)"/>
      <path id="DejaVuSans-Bold-6e" d="M 4056 2131 
L 4056 0 
L 2931 0 
L 2931 347 
L 2931 1631 
Q 2931 2084 2911 2256 
Q 2891 2428 2841 2509 
Q 2775 2619 2662 2680 
Q 2550 2741 2406 2741 
Q 2056 2741 1856 2470 
Q 1656 2200 1656 1722 
L 1656 0 
L 538 0 
L 538 3500 
L 1656 3500 
L 1656 2988 
Q 1909 3294 2193 3439 
Q 2478 3584 2822 3584 
Q 3428 3584 3742 3212 
Q 4056 2841 4056 2131 
z
" transform="scale(0.015625)"/>
      <path id="DejaVuSans-Bold-63" d="M 3366 3391 
L 3366 2478 
Q 3138 2634 2908 2709 
Q 2678 2784 2431 2784 
Q 1963 2784 1702 2511 
Q 1441 2238 1441 1747 
Q 1441 1256 1702 982 
Q 1963 709 2431 709 
Q 2694 709 2930 787 
Q 3166 866 3366 1019 
L 3366 103 
Q 3103 6 2833 -42 
Q 2563 -91 2291 -91 
Q 1344 -91 809 395 
Q 275 881 275 1747 
Q 275 2613 809 3098 
Q 1344 3584 2291 3584 
Q 2566 3584 2833 3536 
Q 3100 3488 3366 3391 
z
" transform="scale(0.015625)"/>
      <path id="DejaVuSans-Bold-68" d="M 4056 2131 
L 4056 0 
L 2931 0 
L 2931 347 
L 2931 1625 
Q 2931 2084 2911 2256 
Q 2891 2428 2841 2509 
Q 2775 2619 2662 2680 
Q 2550 2741 2406 2741 
Q 2056 2741 1856 2470 
Q 1656 2200 1656 1722 
L 1656 0 
L 538 0 
L 538 4863 
L 1656 4863 
L 1656 2988 
Q 1909 3294 2193 3439 
Q 2478 3584 2822 3584 
Q 3428 3584 3742 3212 
Q 4056 2841 4056 2131 
z
" transform="scale(0.015625)"/>
      <path id="DejaVuSans-Bold-2d" d="M 347 2297 
L 2309 2297 
L 2309 1388 
L 347 1388 
L 347 2297 
z
" transform="scale(0.015625)"/>
      <path id="DejaVuSans-Bold-48" d="M 588 4666 
L 1791 4666 
L 1791 2888 
L 3566 2888 
L 3566 4666 
L 4769 4666 
L 4769 0 
L 3566 0 
L 3566 1978 
L 1791 1978 
L 1791 0 
L 588 0 
L 588 4666 
z
" transform="scale(0.015625)"/>
      <path id="DejaVuSans-Bold-72" d="M 3138 2547 
Q 2991 2616 2845 2648 
Q 2700 2681 2553 2681 
Q 2122 2681 1889 2404 
Q 1656 2128 1656 1613 
L 1656 0 
L 538 0 
L 538 3500 
L 1656 3500 
L 1656 2925 
Q 1872 3269 2151 3426 
Q 2431 3584 2822 3584 
Q 2878 3584 2943 3579 
Q 3009 3575 3134 3559 
L 3138 2547 
z
" transform="scale(0.015625)"/>
      <path id="DejaVuSans-Bold-20" transform="scale(0.015625)"/>
      <path id="DejaVuSans-Bold-28" d="M 2413 -844 
L 1484 -844 
Q 1006 -72 778 623 
Q 550 1319 550 2003 
Q 550 2688 779 3389 
Q 1009 4091 1484 4856 
L 2413 4856 
Q 2013 4116 1813 3408 
Q 1613 2700 1613 2009 
Q 1613 1319 1811 609 
Q 2009 -100 2413 -844 
z
" transform="scale(0.015625)"/>
      <path id="DejaVuSans-Bold-6d" d="M 3781 2919 
Q 3994 3244 4286 3414 
Q 4578 3584 4928 3584 
Q 5531 3584 5847 3212 
Q 6163 2841 6163 2131 
L 6163 0 
L 5038 0 
L 5038 1825 
Q 5041 1866 5042 1909 
Q 5044 1953 5044 2034 
Q 5044 2406 4934 2573 
Q 4825 2741 4581 2741 
Q 4263 2741 4089 2478 
Q 3916 2216 3909 1719 
L 3909 0 
L 2784 0 
L 2784 1825 
Q 2784 2406 2684 2573 
Q 2584 2741 2328 2741 
Q 2006 2741 1831 2477 
Q 1656 2213 1656 1722 
L 1656 0 
L 531 0 
L 531 3500 
L 1656 3500 
L 1656 2988 
Q 1863 3284 2130 3434 
Q 2397 3584 2719 3584 
Q 3081 3584 3359 3409 
Q 3638 3234 3781 2919 
z
" transform="scale(0.015625)"/>
      <path id="DejaVuSans-Bold-70" d="M 1656 506 
L 1656 -1331 
L 538 -1331 
L 538 3500 
L 1656 3500 
L 1656 2988 
Q 1888 3294 2169 3439 
Q 2450 3584 2816 3584 
Q 3463 3584 3878 3070 
Q 4294 2556 4294 1747 
Q 4294 938 3878 423 
Q 3463 -91 2816 -91 
Q 2450 -91 2169 54 
Q 1888 200 1656 506 
z
M 2400 2772 
Q 2041 2772 1848 2508 
Q 1656 2244 1656 1747 
Q 1656 1250 1848 986 
Q 2041 722 2400 722 
Q 2759 722 2948 984 
Q 3138 1247 3138 1747 
Q 3138 2247 2948 2509 
Q 2759 2772 2400 2772 
z
" transform="scale(0.015625)"/>
      <path id="DejaVuSans-Bold-6c" d="M 538 4863 
L 1656 4863 
L 1656 0 
L 538 0 
L 538 4863 
z
" transform="scale(0.015625)"/>
      <path id="DejaVuSans-Bold-74" d="M 1759 4494 
L 1759 3500 
L 2913 3500 
L 2913 2700 
L 1759 2700 
L 1759 1216 
Q 1759 972 1856 886 
Q 1953 800 2241 800 
L 2816 800 
L 2816 0 
L 1856 0 
Q 1194 0 917 276 
Q 641 553 641 1216 
L 641 2700 
L 84 2700 
L 84 3500 
L 641 3500 
L 641 4494 
L 1759 4494 
z
" transform="scale(0.015625)"/>
      <path id="DejaVuSans-Bold-2b" d="M 3053 4013 
L 3053 2375 
L 4684 2375 
L 4684 1638 
L 3053 1638 
L 3053 0 
L 2309 0 
L 2309 1638 
L 678 1638 
L 678 2375 
L 2309 2375 
L 2309 4013 
L 3053 4013 
z
" transform="scale(0.015625)"/>
      <path id="DejaVuSans-Bold-49" d="M 588 4666 
L 1791 4666 
L 1791 0 
L 588 0 
L 588 4666 
z
" transform="scale(0.015625)"/>
      <path id="DejaVuSans-Bold-75" d="M 500 1363 
L 500 3500 
L 1625 3500 
L 1625 3150 
Q 1625 2866 1622 2436 
Q 1619 2006 1619 1863 
Q 1619 1441 1641 1255 
Q 1663 1069 1716 984 
Q 1784 875 1895 815 
Q 2006 756 2150 756 
Q 2500 756 2700 1025 
Q 2900 1294 2900 1772 
L 2900 3500 
L 4019 3500 
L 4019 0 
L 2900 0 
L 2900 506 
Q 2647 200 2364 54 
Q 2081 -91 1741 -91 
Q 1134 -91 817 281 
Q 500 653 500 1363 
z
" transform="scale(0.015625)"/>
      <path id="DejaVuSans-Bold-29" d="M 513 -844 
Q 913 -100 1113 609 
Q 1313 1319 1313 2009 
Q 1313 2700 1113 3408 
Q 913 4116 513 4856 
L 1441 4856 
Q 1916 4091 2145 3389 
Q 2375 2688 2375 2003 
Q 2375 1319 2147 623 
Q 1919 -72 1441 -844 
L 513 -844 
z
" transform="scale(0.015625)"/>
     </defs>
     <use xlink:href="#DejaVuSans-Bold-42"/>
     <use xlink:href="#DejaVuSans-Bold-69" x="76.220703"/>
     <use xlink:href="#DejaVuSans-Bold-67" x="110.498047"/>
     <use xlink:href="#DejaVuSans-Bold-43" x="182.080078"/>
     <use xlink:href="#DejaVuSans-Bold-6f" x="255.46875"/>
     <use xlink:href="#DejaVuSans-Bold-64" x="324.169922"/>
     <use xlink:href="#DejaVuSans-Bold-65" x="395.751953"/>
     <use xlink:href="#DejaVuSans-Bold-42" x="463.574219"/>
     <use xlink:href="#DejaVuSans-Bold-65" x="539.794922"/>
     <use xlink:href="#DejaVuSans-Bold-6e" x="607.617188"/>
     <use xlink:href="#DejaVuSans-Bold-63" x="678.808594"/>
     <use xlink:href="#DejaVuSans-Bold-68" x="738.085938"/>
     <use xlink:href="#DejaVuSans-Bold-2d" x="809.277344"/>
     <use xlink:href="#DejaVuSans-Bold-48" x="850.78125"/>
     <use xlink:href="#DejaVuSans-Bold-61" x="934.472656"/>
     <use xlink:href="#DejaVuSans-Bold-72" x="1001.953125"/>
     <use xlink:href="#DejaVuSans-Bold-64" x="1051.269531"/>
     <use xlink:href="#DejaVuSans-Bold-20" x="1122.851562"/>
     <use xlink:href="#DejaVuSans-Bold-28" x="1157.666016"/>
     <use xlink:href="#DejaVuSans-Bold-43" x="1203.369141"/>
     <use xlink:href="#DejaVuSans-Bold-6f" x="1276.757812"/>
     <use xlink:href="#DejaVuSans-Bold-6d" x="1345.458984"/>
     <use xlink:href="#DejaVuSans-Bold-70" x="1449.658203"/>
     <use xlink:href="#DejaVuSans-Bold-6c" x="1521.240234"/>
     <use xlink:href="#DejaVuSans-Bold-65" x="1555.517578"/>
     <use xlink:href="#DejaVuSans-Bold-74" x="1623.339844"/>
     <use xlink:href="#DejaVuSans-Bold-65" x="1671.142578"/>
     <use xlink:href="#DejaVuSans-Bold-20" x="1738.964844"/>
     <use xlink:href="#DejaVuSans-Bold-2b" x="1773.779297"/>
     <use xlink:href="#DejaVuSans-Bold-20" x="1857.568359"/>
     <use xlink:href="#DejaVuSans-Bold-49" x="1892.382812"/>
     <use xlink:href="#DejaVuSans-Bold-6e" x="1929.589844"/>
     <use xlink:href="#DejaVuSans-Bold-73" x="2000.78125"/>
     <use xlink:href="#DejaVuSans-Bold-74" x="2060.302734"/>
     <use xlink:href="#DejaVuSans-Bold-72" x="2108.105469"/>
     <use xlink:href="#DejaVuSans-Bold-75" x="2157.421875"/>
     <use xlink:href="#DejaVuSans-Bold-63" x="2228.613281"/>
     <use xlink:href="#DejaVuSans-Bold-74" x="2287.890625"/>
     <use xlink:href="#DejaVuSans-Bold-29" x="2335.693359"/>
    </g>
   </g>
   <g id="legend_1">
    <g id="patch_48">
     <path d="M 756.692188 574.7575 
L 857.528125 574.7575 
Q 859.528125 574.7575 859.528125 572.7575 
L 859.528125 515.045 
Q 859.528125 513.045 857.528125 513.045 
L 756.692188 513.045 
Q 754.692188 513.045 754.692188 515.045 
L 754.692188 572.7575 
Q 754.692188 574.7575 756.692188 574.7575 
z
" style="fill: #ffffff; opacity: 0.8; stroke: #cccccc; stroke-linejoin: miter"/>
    </g>
    <g id="text_54">
     <!-- Model Type -->
     <g transform="translate(779.025 524.643438) scale(0.1 -0.1)">
      <defs>
       <path id="DejaVuSans-79" d="M 2059 -325 
Q 1816 -950 1584 -1140 
Q 1353 -1331 966 -1331 
L 506 -1331 
L 506 -850 
L 844 -850 
Q 1081 -850 1212 -737 
Q 1344 -625 1503 -206 
L 1606 56 
L 191 3500 
L 800 3500 
L 1894 763 
L 2988 3500 
L 3597 3500 
L 2059 -325 
z
" transform="scale(0.015625)"/>
      </defs>
      <use xlink:href="#DejaVuSans-4d"/>
      <use xlink:href="#DejaVuSans-6f" x="86.279297"/>
      <use xlink:href="#DejaVuSans-64" x="147.460938"/>
      <use xlink:href="#DejaVuSans-65" x="210.9375"/>
      <use xlink:href="#DejaVuSans-6c" x="272.460938"/>
      <use xlink:href="#DejaVuSans-20" x="300.244141"/>
      <use xlink:href="#DejaVuSans-54" x="332.03125"/>
      <use xlink:href="#DejaVuSans-79" x="377.490234"/>
      <use xlink:href="#DejaVuSans-70" x="436.669922"/>
      <use xlink:href="#DejaVuSans-65" x="500.146484"/>
     </g>
    </g>
    <g id="patch_49">
     <path d="M 758.692188 539.321563 
L 778.692188 539.321563 
L 778.692188 532.321563 
L 758.692188 532.321563 
z
" style="fill: #a9cce3"/>
    </g>
    <g id="text_55">
     <!-- API -->
     <g transform="translate(786.692188 539.321563) scale(0.1 -0.1)">
      <use xlink:href="#DejaVuSans-41"/>
      <use xlink:href="#DejaVuSans-50" x="68.408203"/>
      <use xlink:href="#DejaVuSans-49" x="128.710938"/>
     </g>
    </g>
    <g id="patch_50">
     <path d="M 758.692188 553.999688 
L 778.692188 553.999688 
L 778.692188 546.999688 
L 758.692188 546.999688 
z
" style="fill: #a9dfbf"/>
    </g>
    <g id="text_56">
     <!-- Open ( 35B) -->
     <g transform="translate(786.692188 553.999688) scale(0.1 -0.1)">
      <defs>
       <path id="DejaVuSans-2264" d="M 4684 3175 
L 1684 2309 
L 4684 1453 
L 4684 897 
L 678 2047 
L 678 2578 
L 4684 3725 
L 4684 3175 
z
M 678 531 
L 4684 531 
L 4684 0 
L 678 0 
L 678 531 
z
" transform="scale(0.015625)"/>
      </defs>
      <use xlink:href="#DejaVuSans-4f"/>
      <use xlink:href="#DejaVuSans-70" x="78.710938"/>
      <use xlink:href="#DejaVuSans-65" x="142.1875"/>
      <use xlink:href="#DejaVuSans-6e" x="203.710938"/>
      <use xlink:href="#DejaVuSans-20" x="267.089844"/>
      <use xlink:href="#DejaVuSans-28" x="298.876953"/>
      <use xlink:href="#DejaVuSans-2264" x="337.890625"/>
      <use xlink:href="#DejaVuSans-20" x="421.679688"/>
      <use xlink:href="#DejaVuSans-33" x="453.466797"/>
      <use xlink:href="#DejaVuSans-35" x="517.089844"/>
      <use xlink:href="#DejaVuSans-42" x="580.712891"/>
      <use xlink:href="#DejaVuSans-29" x="649.316406"/>
     </g>
    </g>
    <g id="patch_51">
     <path d="M 758.692188 568.677813 
L 778.692188 568.677813 
L 778.692188 561.677813 
L 758.692188 561.677813 
z
" style="fill: #f5b7b1"/>
    </g>
    <g id="text_57">
     <!-- Open (&gt; 35B) -->
     <g transform="translate(786.692188 568.677813) scale(0.1 -0.1)">
      <defs>
       <path id="DejaVuSans-3e" d="M 678 3150 
L 678 3719 
L 4684 2266 
L 4684 1747 
L 678 294 
L 678 863 
L 3897 2003 
L 678 3150 
z
" transform="scale(0.015625)"/>
      </defs>
      <use xlink:href="#DejaVuSans-4f"/>
      <use xlink:href="#DejaVuSans-70" x="78.710938"/>
      <use xlink:href="#DejaVuSans-65" x="142.1875"/>
      <use xlink:href="#DejaVuSans-6e" x="203.710938"/>
      <use xlink:href="#DejaVuSans-20" x="267.089844"/>
      <use xlink:href="#DejaVuSans-28" x="298.876953"/>
      <use xlink:href="#DejaVuSans-3e" x="337.890625"/>
      <use xlink:href="#DejaVuSans-20" x="421.679688"/>
      <use xlink:href="#DejaVuSans-33" x="453.466797"/>
      <use xlink:href="#DejaVuSans-35" x="517.089844"/>
      <use xlink:href="#DejaVuSans-42" x="580.712891"/>
      <use xlink:href="#DejaVuSans-29" x="649.316406"/>
     </g>
    </g>
   </g>
  </g>
 </g>
 <defs>
  <clipPath id="p78bb7fc7f4">
   <rect x="194.928125" y="25.3575" width="669.6" height="554.4"/>
  </clipPath>
 </defs>
</svg>
