<?xml version="1.0" encoding="utf-8" standalone="no"?>
<!DOCTYPE svg PUBLIC "-//W3C//DTD SVG 1.1//EN"
  "http://www.w3.org/Graphics/SVG/1.1/DTD/svg11.dtd">
<svg xmlns:xlink="http://www.w3.org/1999/xlink" width="874.924268pt" height="730.084687pt" viewBox="0 0 874.924268 730.084687" xmlns="http://www.w3.org/2000/svg" version="1.1">
 <metadata>
  <rdf:RDF xmlns:dc="http://purl.org/dc/elements/1.1/" xmlns:cc="http://creativecommons.org/ns#" xmlns:rdf="http://www.w3.org/1999/02/22-rdf-syntax-ns#">
   <cc:Work>
    <dc:type rdf:resource="http://purl.org/dc/dcmitype/StillImage"/>
    <dc:date>2024-07-16T20:16:14.854428</dc:date>
    <dc:format>image/svg+xml</dc:format>
    <dc:creator>
     <cc:Agent>
      <dc:title>Matplotlib v3.7.1, https://matplotlib.org/</dc:title>
     </cc:Agent>
    </dc:creator>
   </cc:Work>
  </rdf:RDF>
 </metadata>
 <defs>
  <style type="text/css">*{stroke-linejoin: round; stroke-linecap: butt}</style>
 </defs>
 <g id="figure_1">
  <g id="patch_1">
   <path d="M 0 730.084687 
L 874.924268 730.084687 
L 874.924268 0 
L 0 0 
z
" style="fill: #ffffff"/>
  </g>
  <g id="axes_1">
   <g id="patch_2">
    <path d="M 50.515 692.157187 
L 831.715 692.157187 
L 831.715 26.877187 
L 50.515 26.877187 
z
" style="fill: #ffffff"/>
   </g>
   <g id="matplotlib.axis_1">
    <g id="xtick_1">
     <g id="line2d_1">
      <path d="M 138.147527 692.157187 
L 138.147527 26.877187 
" clip-path="url(#pbc5a114f84)" style="fill: none; stroke-dasharray: 2.96,1.28; stroke-dashoffset: 0; stroke: #808080; stroke-opacity: 0.2; stroke-width: 0.8"/>
     </g>
     <g id="line2d_2"/>
     <g id="text_1">
      <!-- 46 -->
      <g transform="translate(131.785027 703.255625) scale(0.1 -0.1)">
       <defs>
        <path id="DejaVuSans-34" d="M 2419 4116 
L 825 1625 
L 2419 1625 
L 2419 4116 
z
M 2253 4666 
L 3047 4666 
L 3047 1625 
L 3713 1625 
L 3713 1100 
L 3047 1100 
L 3047 0 
L 2419 0 
L 2419 1100 
L 313 1100 
L 313 1709 
L 2253 4666 
z
" transform="scale(0.015625)"/>
        <path id="DejaVuSans-36" d="M 2113 2584 
Q 1688 2584 1439 2293 
Q 1191 2003 1191 1497 
Q 1191 994 1439 701 
Q 1688 409 2113 409 
Q 2538 409 2786 701 
Q 3034 994 3034 1497 
Q 3034 2003 2786 2293 
Q 2538 2584 2113 2584 
z
M 3366 4563 
L 3366 3988 
Q 3128 4100 2886 4159 
Q 2644 4219 2406 4219 
Q 1781 4219 1451 3797 
Q 1122 3375 1075 2522 
Q 1259 2794 1537 2939 
Q 1816 3084 2150 3084 
Q 2853 3084 3261 2657 
Q 3669 2231 3669 1497 
Q 3669 778 3244 343 
Q 2819 -91 2113 -91 
Q 1303 -91 875 529 
Q 447 1150 447 2328 
Q 447 3434 972 4092 
Q 1497 4750 2381 4750 
Q 2619 4750 2861 4703 
Q 3103 4656 3366 4563 
z
" transform="scale(0.015625)"/>
       </defs>
       <use xlink:href="#DejaVuSans-34"/>
       <use xlink:href="#DejaVuSans-36" x="63.623047"/>
      </g>
     </g>
    </g>
    <g id="xtick_2">
     <g id="line2d_3">
      <path d="M 268.456118 692.157187 
L 268.456118 26.877187 
" clip-path="url(#pbc5a114f84)" style="fill: none; stroke-dasharray: 2.96,1.28; stroke-dashoffset: 0; stroke: #808080; stroke-opacity: 0.2; stroke-width: 0.8"/>
     </g>
     <g id="line2d_4"/>
     <g id="text_2">
      <!-- 48 -->
      <g transform="translate(262.093618 703.255625) scale(0.1 -0.1)">
       <defs>
        <path id="DejaVuSans-38" d="M 2034 2216 
Q 1584 2216 1326 1975 
Q 1069 1734 1069 1313 
Q 1069 891 1326 650 
Q 1584 409 2034 409 
Q 2484 409 2743 651 
Q 3003 894 3003 1313 
Q 3003 1734 2745 1975 
Q 2488 2216 2034 2216 
z
M 1403 2484 
Q 997 2584 770 2862 
Q 544 3141 544 3541 
Q 544 4100 942 4425 
Q 1341 4750 2034 4750 
Q 2731 4750 3128 4425 
Q 3525 4100 3525 3541 
Q 3525 3141 3298 2862 
Q 3072 2584 2669 2484 
Q 3125 2378 3379 2068 
Q 3634 1759 3634 1313 
Q 3634 634 3220 271 
Q 2806 -91 2034 -91 
Q 1263 -91 848 271 
Q 434 634 434 1313 
Q 434 1759 690 2068 
Q 947 2378 1403 2484 
z
M 1172 3481 
Q 1172 3119 1398 2916 
Q 1625 2713 2034 2713 
Q 2441 2713 2670 2916 
Q 2900 3119 2900 3481 
Q 2900 3844 2670 4047 
Q 2441 4250 2034 4250 
Q 1625 4250 1398 4047 
Q 1172 3844 1172 3481 
z
" transform="scale(0.015625)"/>
       </defs>
       <use xlink:href="#DejaVuSans-34"/>
       <use xlink:href="#DejaVuSans-38" x="63.623047"/>
      </g>
     </g>
    </g>
    <g id="xtick_3">
     <g id="line2d_5">
      <path d="M 398.764708 692.157187 
L 398.764708 26.877187 
" clip-path="url(#pbc5a114f84)" style="fill: none; stroke-dasharray: 2.96,1.28; stroke-dashoffset: 0; stroke: #808080; stroke-opacity: 0.2; stroke-width: 0.8"/>
     </g>
     <g id="line2d_6"/>
     <g id="text_3">
      <!-- 50 -->
      <g transform="translate(392.402208 703.255625) scale(0.1 -0.1)">
       <defs>
        <path id="DejaVuSans-35" d="M 691 4666 
L 3169 4666 
L 3169 4134 
L 1269 4134 
L 1269 2991 
Q 1406 3038 1543 3061 
Q 1681 3084 1819 3084 
Q 2600 3084 3056 2656 
Q 3513 2228 3513 1497 
Q 3513 744 3044 326 
Q 2575 -91 1722 -91 
Q 1428 -91 1123 -41 
Q 819 9 494 109 
L 494 744 
Q 775 591 1075 516 
Q 1375 441 1709 441 
Q 2250 441 2565 725 
Q 2881 1009 2881 1497 
Q 2881 1984 2565 2268 
Q 2250 2553 1709 2553 
Q 1456 2553 1204 2497 
Q 953 2441 691 2322 
L 691 4666 
z
" transform="scale(0.015625)"/>
        <path id="DejaVuSans-30" d="M 2034 4250 
Q 1547 4250 1301 3770 
Q 1056 3291 1056 2328 
Q 1056 1369 1301 889 
Q 1547 409 2034 409 
Q 2525 409 2770 889 
Q 3016 1369 3016 2328 
Q 3016 3291 2770 3770 
Q 2525 4250 2034 4250 
z
M 2034 4750 
Q 2819 4750 3233 4129 
Q 3647 3509 3647 2328 
Q 3647 1150 3233 529 
Q 2819 -91 2034 -91 
Q 1250 -91 836 529 
Q 422 1150 422 2328 
Q 422 3509 836 4129 
Q 1250 4750 2034 4750 
z
" transform="scale(0.015625)"/>
       </defs>
       <use xlink:href="#DejaVuSans-35"/>
       <use xlink:href="#DejaVuSans-30" x="63.623047"/>
      </g>
     </g>
    </g>
    <g id="xtick_4">
     <g id="line2d_7">
      <path d="M 529.073299 692.157187 
L 529.073299 26.877187 
" clip-path="url(#pbc5a114f84)" style="fill: none; stroke-dasharray: 2.96,1.28; stroke-dashoffset: 0; stroke: #808080; stroke-opacity: 0.2; stroke-width: 0.8"/>
     </g>
     <g id="line2d_8"/>
     <g id="text_4">
      <!-- 52 -->
      <g transform="translate(522.710799 703.255625) scale(0.1 -0.1)">
       <defs>
        <path id="DejaVuSans-32" d="M 1228 531 
L 3431 531 
L 3431 0 
L 469 0 
L 469 531 
Q 828 903 1448 1529 
Q 2069 2156 2228 2338 
Q 2531 2678 2651 2914 
Q 2772 3150 2772 3378 
Q 2772 3750 2511 3984 
Q 2250 4219 1831 4219 
Q 1534 4219 1204 4116 
Q 875 4013 500 3803 
L 500 4441 
Q 881 4594 1212 4672 
Q 1544 4750 1819 4750 
Q 2544 4750 2975 4387 
Q 3406 4025 3406 3419 
Q 3406 3131 3298 2873 
Q 3191 2616 2906 2266 
Q 2828 2175 2409 1742 
Q 1991 1309 1228 531 
z
" transform="scale(0.015625)"/>
       </defs>
       <use xlink:href="#DejaVuSans-35"/>
       <use xlink:href="#DejaVuSans-32" x="63.623047"/>
      </g>
     </g>
    </g>
    <g id="xtick_5">
     <g id="line2d_9">
      <path d="M 659.381889 692.157187 
L 659.381889 26.877187 
" clip-path="url(#pbc5a114f84)" style="fill: none; stroke-dasharray: 2.96,1.28; stroke-dashoffset: 0; stroke: #808080; stroke-opacity: 0.2; stroke-width: 0.8"/>
     </g>
     <g id="line2d_10"/>
     <g id="text_5">
      <!-- 54 -->
      <g transform="translate(653.019389 703.255625) scale(0.1 -0.1)">
       <use xlink:href="#DejaVuSans-35"/>
       <use xlink:href="#DejaVuSans-34" x="63.623047"/>
      </g>
     </g>
    </g>
    <g id="xtick_6">
     <g id="line2d_11">
      <path d="M 789.69048 692.157187 
L 789.69048 26.877187 
" clip-path="url(#pbc5a114f84)" style="fill: none; stroke-dasharray: 2.96,1.28; stroke-dashoffset: 0; stroke: #808080; stroke-opacity: 0.2; stroke-width: 0.8"/>
     </g>
     <g id="line2d_12"/>
     <g id="text_6">
      <!-- 56 -->
      <g transform="translate(783.32798 703.255625) scale(0.1 -0.1)">
       <use xlink:href="#DejaVuSans-35"/>
       <use xlink:href="#DejaVuSans-36" x="63.623047"/>
      </g>
     </g>
    </g>
    <g id="text_7">
     <!-- Full Set -->
     <g transform="translate(411.328906 719.973125) scale(0.14 -0.14)">
      <defs>
       <path id="DejaVuSans-Bold-46" d="M 588 4666 
L 3834 4666 
L 3834 3756 
L 1791 3756 
L 1791 2888 
L 3713 2888 
L 3713 1978 
L 1791 1978 
L 1791 0 
L 588 0 
L 588 4666 
z
" transform="scale(0.015625)"/>
       <path id="DejaVuSans-Bold-75" d="M 500 1363 
L 500 3500 
L 1625 3500 
L 1625 3150 
Q 1625 2866 1622 2436 
Q 1619 2006 1619 1863 
Q 1619 1441 1641 1255 
Q 1663 1069 1716 984 
Q 1784 875 1895 815 
Q 2006 756 2150 756 
Q 2500 756 2700 1025 
Q 2900 1294 2900 1772 
L 2900 3500 
L 4019 3500 
L 4019 0 
L 2900 0 
L 2900 506 
Q 2647 200 2364 54 
Q 2081 -91 1741 -91 
Q 1134 -91 817 281 
Q 500 653 500 1363 
z
" transform="scale(0.015625)"/>
       <path id="DejaVuSans-Bold-6c" d="M 538 4863 
L 1656 4863 
L 1656 0 
L 538 0 
L 538 4863 
z
" transform="scale(0.015625)"/>
       <path id="DejaVuSans-Bold-20" transform="scale(0.015625)"/>
       <path id="DejaVuSans-Bold-53" d="M 3834 4519 
L 3834 3531 
Q 3450 3703 3084 3790 
Q 2719 3878 2394 3878 
Q 1963 3878 1756 3759 
Q 1550 3641 1550 3391 
Q 1550 3203 1689 3098 
Q 1828 2994 2194 2919 
L 2706 2816 
Q 3484 2659 3812 2340 
Q 4141 2022 4141 1434 
Q 4141 663 3683 286 
Q 3225 -91 2284 -91 
Q 1841 -91 1394 -6 
Q 947 78 500 244 
L 500 1259 
Q 947 1022 1364 901 
Q 1781 781 2169 781 
Q 2563 781 2772 912 
Q 2981 1044 2981 1288 
Q 2981 1506 2839 1625 
Q 2697 1744 2272 1838 
L 1806 1941 
Q 1106 2091 782 2419 
Q 459 2747 459 3303 
Q 459 4000 909 4375 
Q 1359 4750 2203 4750 
Q 2588 4750 2994 4692 
Q 3400 4634 3834 4519 
z
" transform="scale(0.015625)"/>
       <path id="DejaVuSans-Bold-65" d="M 4031 1759 
L 4031 1441 
L 1416 1441 
Q 1456 1047 1700 850 
Q 1944 653 2381 653 
Q 2734 653 3104 758 
Q 3475 863 3866 1075 
L 3866 213 
Q 3469 63 3072 -14 
Q 2675 -91 2278 -91 
Q 1328 -91 801 392 
Q 275 875 275 1747 
Q 275 2603 792 3093 
Q 1309 3584 2216 3584 
Q 3041 3584 3536 3087 
Q 4031 2591 4031 1759 
z
M 2881 2131 
Q 2881 2450 2695 2645 
Q 2509 2841 2209 2841 
Q 1884 2841 1681 2658 
Q 1478 2475 1428 2131 
L 2881 2131 
z
" transform="scale(0.015625)"/>
       <path id="DejaVuSans-Bold-74" d="M 1759 4494 
L 1759 3500 
L 2913 3500 
L 2913 2700 
L 1759 2700 
L 1759 1216 
Q 1759 972 1856 886 
Q 1953 800 2241 800 
L 2816 800 
L 2816 0 
L 1856 0 
Q 1194 0 917 276 
Q 641 553 641 1216 
L 641 2700 
L 84 2700 
L 84 3500 
L 641 3500 
L 641 4494 
L 1759 4494 
z
" transform="scale(0.015625)"/>
      </defs>
      <use xlink:href="#DejaVuSans-Bold-46"/>
      <use xlink:href="#DejaVuSans-Bold-75" x="63.310547"/>
      <use xlink:href="#DejaVuSans-Bold-6c" x="134.501953"/>
      <use xlink:href="#DejaVuSans-Bold-6c" x="168.779297"/>
      <use xlink:href="#DejaVuSans-Bold-20" x="203.056641"/>
      <use xlink:href="#DejaVuSans-Bold-53" x="237.871094"/>
      <use xlink:href="#DejaVuSans-Bold-65" x="309.892578"/>
      <use xlink:href="#DejaVuSans-Bold-74" x="377.714844"/>
     </g>
    </g>
   </g>
   <g id="matplotlib.axis_2">
    <g id="ytick_1">
     <g id="line2d_13">
      <path d="M 50.515 613.142994 
L 831.715 613.142994 
" clip-path="url(#pbc5a114f84)" style="fill: none; stroke-dasharray: 2.96,1.28; stroke-dashoffset: 0; stroke: #808080; stroke-opacity: 0.2; stroke-width: 0.8"/>
     </g>
     <g id="line2d_14"/>
     <g id="text_8">
      <!-- 15.0 -->
      <g transform="translate(24.749375 616.942213) scale(0.1 -0.1)">
       <defs>
        <path id="DejaVuSans-31" d="M 794 531 
L 1825 531 
L 1825 4091 
L 703 3866 
L 703 4441 
L 1819 4666 
L 2450 4666 
L 2450 531 
L 3481 531 
L 3481 0 
L 794 0 
L 794 531 
z
" transform="scale(0.015625)"/>
        <path id="DejaVuSans-2e" d="M 684 794 
L 1344 794 
L 1344 0 
L 684 0 
L 684 794 
z
" transform="scale(0.015625)"/>
       </defs>
       <use xlink:href="#DejaVuSans-31"/>
       <use xlink:href="#DejaVuSans-35" x="63.623047"/>
       <use xlink:href="#DejaVuSans-2e" x="127.246094"/>
       <use xlink:href="#DejaVuSans-30" x="159.033203"/>
      </g>
     </g>
    </g>
    <g id="ytick_2">
     <g id="line2d_15">
      <path d="M 50.515 531.852671 
L 831.715 531.852671 
" clip-path="url(#pbc5a114f84)" style="fill: none; stroke-dasharray: 2.96,1.28; stroke-dashoffset: 0; stroke: #808080; stroke-opacity: 0.2; stroke-width: 0.8"/>
     </g>
     <g id="line2d_16"/>
     <g id="text_9">
      <!-- 17.5 -->
      <g transform="translate(24.749375 535.65189) scale(0.1 -0.1)">
       <defs>
        <path id="DejaVuSans-37" d="M 525 4666 
L 3525 4666 
L 3525 4397 
L 1831 0 
L 1172 0 
L 2766 4134 
L 525 4134 
L 525 4666 
z
" transform="scale(0.015625)"/>
       </defs>
       <use xlink:href="#DejaVuSans-31"/>
       <use xlink:href="#DejaVuSans-37" x="63.623047"/>
       <use xlink:href="#DejaVuSans-2e" x="127.246094"/>
       <use xlink:href="#DejaVuSans-35" x="159.033203"/>
      </g>
     </g>
    </g>
    <g id="ytick_3">
     <g id="line2d_17">
      <path d="M 50.515 450.562349 
L 831.715 450.562349 
" clip-path="url(#pbc5a114f84)" style="fill: none; stroke-dasharray: 2.96,1.28; stroke-dashoffset: 0; stroke: #808080; stroke-opacity: 0.2; stroke-width: 0.8"/>
     </g>
     <g id="line2d_18"/>
     <g id="text_10">
      <!-- 20.0 -->
      <g transform="translate(24.749375 454.361568) scale(0.1 -0.1)">
       <use xlink:href="#DejaVuSans-32"/>
       <use xlink:href="#DejaVuSans-30" x="63.623047"/>
       <use xlink:href="#DejaVuSans-2e" x="127.246094"/>
       <use xlink:href="#DejaVuSans-30" x="159.033203"/>
      </g>
     </g>
    </g>
    <g id="ytick_4">
     <g id="line2d_19">
      <path d="M 50.515 369.272026 
L 831.715 369.272026 
" clip-path="url(#pbc5a114f84)" style="fill: none; stroke-dasharray: 2.96,1.28; stroke-dashoffset: 0; stroke: #808080; stroke-opacity: 0.2; stroke-width: 0.8"/>
     </g>
     <g id="line2d_20"/>
     <g id="text_11">
      <!-- 22.5 -->
      <g transform="translate(24.749375 373.071245) scale(0.1 -0.1)">
       <use xlink:href="#DejaVuSans-32"/>
       <use xlink:href="#DejaVuSans-32" x="63.623047"/>
       <use xlink:href="#DejaVuSans-2e" x="127.246094"/>
       <use xlink:href="#DejaVuSans-35" x="159.033203"/>
      </g>
     </g>
    </g>
    <g id="ytick_5">
     <g id="line2d_21">
      <path d="M 50.515 287.981704 
L 831.715 287.981704 
" clip-path="url(#pbc5a114f84)" style="fill: none; stroke-dasharray: 2.96,1.28; stroke-dashoffset: 0; stroke: #808080; stroke-opacity: 0.2; stroke-width: 0.8"/>
     </g>
     <g id="line2d_22"/>
     <g id="text_12">
      <!-- 25.0 -->
      <g transform="translate(24.749375 291.780922) scale(0.1 -0.1)">
       <use xlink:href="#DejaVuSans-32"/>
       <use xlink:href="#DejaVuSans-35" x="63.623047"/>
       <use xlink:href="#DejaVuSans-2e" x="127.246094"/>
       <use xlink:href="#DejaVuSans-30" x="159.033203"/>
      </g>
     </g>
    </g>
    <g id="ytick_6">
     <g id="line2d_23">
      <path d="M 50.515 206.691381 
L 831.715 206.691381 
" clip-path="url(#pbc5a114f84)" style="fill: none; stroke-dasharray: 2.96,1.28; stroke-dashoffset: 0; stroke: #808080; stroke-opacity: 0.2; stroke-width: 0.8"/>
     </g>
     <g id="line2d_24"/>
     <g id="text_13">
      <!-- 27.5 -->
      <g transform="translate(24.749375 210.4906) scale(0.1 -0.1)">
       <use xlink:href="#DejaVuSans-32"/>
       <use xlink:href="#DejaVuSans-37" x="63.623047"/>
       <use xlink:href="#DejaVuSans-2e" x="127.246094"/>
       <use xlink:href="#DejaVuSans-35" x="159.033203"/>
      </g>
     </g>
    </g>
    <g id="ytick_7">
     <g id="line2d_25">
      <path d="M 50.515 125.401058 
L 831.715 125.401058 
" clip-path="url(#pbc5a114f84)" style="fill: none; stroke-dasharray: 2.96,1.28; stroke-dashoffset: 0; stroke: #808080; stroke-opacity: 0.2; stroke-width: 0.8"/>
     </g>
     <g id="line2d_26"/>
     <g id="text_14">
      <!-- 30.0 -->
      <g transform="translate(24.749375 129.200277) scale(0.1 -0.1)">
       <defs>
        <path id="DejaVuSans-33" d="M 2597 2516 
Q 3050 2419 3304 2112 
Q 3559 1806 3559 1356 
Q 3559 666 3084 287 
Q 2609 -91 1734 -91 
Q 1441 -91 1130 -33 
Q 819 25 488 141 
L 488 750 
Q 750 597 1062 519 
Q 1375 441 1716 441 
Q 2309 441 2620 675 
Q 2931 909 2931 1356 
Q 2931 1769 2642 2001 
Q 2353 2234 1838 2234 
L 1294 2234 
L 1294 2753 
L 1863 2753 
Q 2328 2753 2575 2939 
Q 2822 3125 2822 3475 
Q 2822 3834 2567 4026 
Q 2313 4219 1838 4219 
Q 1578 4219 1281 4162 
Q 984 4106 628 3988 
L 628 4550 
Q 988 4650 1302 4700 
Q 1616 4750 1894 4750 
Q 2613 4750 3031 4423 
Q 3450 4097 3450 3541 
Q 3450 3153 3228 2886 
Q 3006 2619 2597 2516 
z
" transform="scale(0.015625)"/>
       </defs>
       <use xlink:href="#DejaVuSans-33"/>
       <use xlink:href="#DejaVuSans-30" x="63.623047"/>
       <use xlink:href="#DejaVuSans-2e" x="127.246094"/>
       <use xlink:href="#DejaVuSans-30" x="159.033203"/>
      </g>
     </g>
    </g>
    <g id="ytick_8">
     <g id="line2d_27">
      <path d="M 50.515 44.110736 
L 831.715 44.110736 
" clip-path="url(#pbc5a114f84)" style="fill: none; stroke-dasharray: 2.96,1.28; stroke-dashoffset: 0; stroke: #808080; stroke-opacity: 0.2; stroke-width: 0.8"/>
     </g>
     <g id="line2d_28"/>
     <g id="text_15">
      <!-- 32.5 -->
      <g transform="translate(24.749375 47.909955) scale(0.1 -0.1)">
       <use xlink:href="#DejaVuSans-33"/>
       <use xlink:href="#DejaVuSans-32" x="63.623047"/>
       <use xlink:href="#DejaVuSans-2e" x="127.246094"/>
       <use xlink:href="#DejaVuSans-35" x="159.033203"/>
      </g>
     </g>
    </g>
    <g id="text_16">
     <!-- Hard Set -->
     <g transform="translate(17.837813 394.133281) rotate(-90) scale(0.14 -0.14)">
      <defs>
       <path id="DejaVuSans-Bold-48" d="M 588 4666 
L 1791 4666 
L 1791 2888 
L 3566 2888 
L 3566 4666 
L 4769 4666 
L 4769 0 
L 3566 0 
L 3566 1978 
L 1791 1978 
L 1791 0 
L 588 0 
L 588 4666 
z
" transform="scale(0.015625)"/>
       <path id="DejaVuSans-Bold-61" d="M 2106 1575 
Q 1756 1575 1579 1456 
Q 1403 1338 1403 1106 
Q 1403 894 1545 773 
Q 1688 653 1941 653 
Q 2256 653 2472 879 
Q 2688 1106 2688 1447 
L 2688 1575 
L 2106 1575 
z
M 3816 1997 
L 3816 0 
L 2688 0 
L 2688 519 
Q 2463 200 2181 54 
Q 1900 -91 1497 -91 
Q 953 -91 614 226 
Q 275 544 275 1050 
Q 275 1666 698 1953 
Q 1122 2241 2028 2241 
L 2688 2241 
L 2688 2328 
Q 2688 2594 2478 2717 
Q 2269 2841 1825 2841 
Q 1466 2841 1156 2769 
Q 847 2697 581 2553 
L 581 3406 
Q 941 3494 1303 3539 
Q 1666 3584 2028 3584 
Q 2975 3584 3395 3211 
Q 3816 2838 3816 1997 
z
" transform="scale(0.015625)"/>
       <path id="DejaVuSans-Bold-72" d="M 3138 2547 
Q 2991 2616 2845 2648 
Q 2700 2681 2553 2681 
Q 2122 2681 1889 2404 
Q 1656 2128 1656 1613 
L 1656 0 
L 538 0 
L 538 3500 
L 1656 3500 
L 1656 2925 
Q 1872 3269 2151 3426 
Q 2431 3584 2822 3584 
Q 2878 3584 2943 3579 
Q 3009 3575 3134 3559 
L 3138 2547 
z
" transform="scale(0.015625)"/>
       <path id="DejaVuSans-Bold-64" d="M 2919 2988 
L 2919 4863 
L 4044 4863 
L 4044 0 
L 2919 0 
L 2919 506 
Q 2688 197 2409 53 
Q 2131 -91 1766 -91 
Q 1119 -91 703 423 
Q 288 938 288 1747 
Q 288 2556 703 3070 
Q 1119 3584 1766 3584 
Q 2128 3584 2408 3439 
Q 2688 3294 2919 2988 
z
M 2181 722 
Q 2541 722 2730 984 
Q 2919 1247 2919 1747 
Q 2919 2247 2730 2509 
Q 2541 2772 2181 2772 
Q 1825 2772 1636 2509 
Q 1447 2247 1447 1747 
Q 1447 1247 1636 984 
Q 1825 722 2181 722 
z
" transform="scale(0.015625)"/>
      </defs>
      <use xlink:href="#DejaVuSans-Bold-48"/>
      <use xlink:href="#DejaVuSans-Bold-61" x="83.691406"/>
      <use xlink:href="#DejaVuSans-Bold-72" x="151.171875"/>
      <use xlink:href="#DejaVuSans-Bold-64" x="200.488281"/>
      <use xlink:href="#DejaVuSans-Bold-20" x="272.070312"/>
      <use xlink:href="#DejaVuSans-Bold-53" x="306.884766"/>
      <use xlink:href="#DejaVuSans-Bold-65" x="378.90625"/>
      <use xlink:href="#DejaVuSans-Bold-74" x="446.728516"/>
     </g>
    </g>
   </g>
   <g id="PathCollection_1">
    <defs>
     <path id="maba3729bf0" d="M 0 8.660254 
C 2.296726 8.660254 4.499694 7.747755 6.123724 6.123724 
C 7.747755 4.499694 8.660254 2.296726 8.660254 0 
C 8.660254 -2.296726 7.747755 -4.499694 6.123724 -6.123724 
C 4.499694 -7.747755 2.296726 -8.660254 0 -8.660254 
C -2.296726 -8.660254 -4.499694 -7.747755 -6.123724 -6.123724 
C -7.747755 -4.499694 -8.660254 -2.296726 -8.660254 0 
C -8.660254 2.296726 -7.747755 4.499694 -6.123724 6.123724 
C -4.499694 7.747755 -2.296726 8.660254 0 8.660254 
z
" style="stroke: #a9cce3; stroke-opacity: 0.7"/>
    </defs>
    <g clip-path="url(#pbc5a114f84)">
     <use xlink:href="#maba3729bf0" x="796.205909" y="219.697833" style="fill: #a9cce3; fill-opacity: 0.7; stroke: #a9cce3; stroke-opacity: 0.7"/>
     <use xlink:href="#maba3729bf0" x="665.897319" y="167.672026" style="fill: #a9cce3; fill-opacity: 0.7; stroke: #a9cce3; stroke-opacity: 0.7"/>
     <use xlink:href="#maba3729bf0" x="607.258453" y="57.117188" style="fill: #a9cce3; fill-opacity: 0.7; stroke: #a9cce3; stroke-opacity: 0.7"/>
     <use xlink:href="#maba3729bf0" x="574.681305" y="144.910736" style="fill: #a9cce3; fill-opacity: 0.7; stroke: #a9cce3; stroke-opacity: 0.7"/>
     <use xlink:href="#maba3729bf0" x="503.01158" y="528.601058" style="fill: #a9cce3; fill-opacity: 0.7; stroke: #a9cce3; stroke-opacity: 0.7"/>
     <use xlink:href="#maba3729bf0" x="496.496151" y="255.465575" style="fill: #a9cce3; fill-opacity: 0.7; stroke: #a9cce3; stroke-opacity: 0.7"/>
     <use xlink:href="#maba3729bf0" x="437.857285" y="274.975252" style="fill: #a9cce3; fill-opacity: 0.7; stroke: #a9cce3; stroke-opacity: 0.7"/>
     <use xlink:href="#maba3729bf0" x="353.156701" y="333.504284" style="fill: #a9cce3; fill-opacity: 0.7; stroke: #a9cce3; stroke-opacity: 0.7"/>
     <use xlink:href="#maba3729bf0" x="281.486977" y="340.00751" style="fill: #a9cce3; fill-opacity: 0.7; stroke: #a9cce3; stroke-opacity: 0.7"/>
    </g>
   </g>
   <g id="PathCollection_2">
    <defs>
     <path id="mdcb50278e9" d="M -8.660254 8.660254 
L 8.660254 8.660254 
L 8.660254 -8.660254 
L -8.660254 -8.660254 
z
" style="stroke: #a9dfbf; stroke-opacity: 0.7"/>
    </defs>
    <g clip-path="url(#pbc5a114f84)">
     <use xlink:href="#mdcb50278e9" x="242.394399" y="486.330091" style="fill: #a9dfbf; fill-opacity: 0.7; stroke: #a9dfbf; stroke-opacity: 0.7"/>
     <use xlink:href="#mdcb50278e9" x="242.394399" y="450.562349" style="fill: #a9dfbf; fill-opacity: 0.7; stroke: #a9dfbf; stroke-opacity: 0.7"/>
     <use xlink:href="#mdcb50278e9" x="177.240104" y="551.362349" style="fill: #a9dfbf; fill-opacity: 0.7; stroke: #a9dfbf; stroke-opacity: 0.7"/>
     <use xlink:href="#mdcb50278e9" x="170.724675" y="476.575252" style="fill: #a9dfbf; fill-opacity: 0.7; stroke: #a9dfbf; stroke-opacity: 0.7"/>
    </g>
   </g>
   <g id="PathCollection_3">
    <defs>
     <path id="mfe67035bdb" d="M 0 -8.660254 
L -8.660254 8.660254 
L 8.660254 8.660254 
z
" style="stroke: #f5b7b1; stroke-opacity: 0.7"/>
    </defs>
    <g clip-path="url(#pbc5a114f84)">
     <use xlink:href="#mfe67035bdb" x="659.381889" y="222.949446" style="fill: #f5b7b1; fill-opacity: 0.7; stroke: #f5b7b1; stroke-opacity: 0.7"/>
     <use xlink:href="#mfe67035bdb" x="437.857285" y="375.775252" style="fill: #f5b7b1; fill-opacity: 0.7; stroke: #f5b7b1; stroke-opacity: 0.7"/>
     <use xlink:href="#mfe67035bdb" x="333.610413" y="300.988155" style="fill: #f5b7b1; fill-opacity: 0.7; stroke: #f5b7b1; stroke-opacity: 0.7"/>
     <use xlink:href="#mfe67035bdb" x="151.178386" y="431.052671" style="fill: #f5b7b1; fill-opacity: 0.7; stroke: #f5b7b1; stroke-opacity: 0.7"/>
     <use xlink:href="#mfe67035bdb" x="131.632098" y="398.536542" style="fill: #f5b7b1; fill-opacity: 0.7; stroke: #f5b7b1; stroke-opacity: 0.7"/>
     <use xlink:href="#mfe67035bdb" x="99.05495" y="453.813962" style="fill: #f5b7b1; fill-opacity: 0.7; stroke: #f5b7b1; stroke-opacity: 0.7"/>
     <use xlink:href="#mfe67035bdb" x="86.024091" y="661.917187" style="fill: #f5b7b1; fill-opacity: 0.7; stroke: #f5b7b1; stroke-opacity: 0.7"/>
    </g>
   </g>
   <g id="patch_3">
    <path d="M 50.515 692.157187 
L 50.515 26.877187 
" style="fill: none; stroke: #000000; stroke-width: 0.8; stroke-linejoin: miter; stroke-linecap: square"/>
   </g>
   <g id="patch_4">
    <path d="M 50.515 692.157187 
L 831.715 692.157187 
" style="fill: none; stroke: #000000; stroke-width: 0.8; stroke-linejoin: miter; stroke-linecap: square"/>
   </g>
   <g id="text_17">
    <g id="patch_5">
     <path d="M 760.249268 213.533669 
L 868.224268 213.533669 
L 868.224268 202.855544 
L 760.249268 202.855544 
z
" style="fill: #ffffff; opacity: 0.7"/>
    </g>
    <!-- GPT-4o-2024-05-13 -->
    <g style="opacity: 0.8" transform="translate(760.749268 210.953982) scale(0.1 -0.1)">
     <defs>
      <path id="DejaVuSans-Bold-47" d="M 4781 347 
Q 4331 128 3847 18 
Q 3363 -91 2847 -91 
Q 1681 -91 1000 561 
Q 319 1213 319 2328 
Q 319 3456 1012 4103 
Q 1706 4750 2913 4750 
Q 3378 4750 3804 4662 
Q 4231 4575 4609 4403 
L 4609 3438 
Q 4219 3659 3833 3768 
Q 3447 3878 3059 3878 
Q 2341 3878 1952 3476 
Q 1563 3075 1563 2328 
Q 1563 1588 1938 1184 
Q 2313 781 3003 781 
Q 3191 781 3352 804 
Q 3513 828 3641 878 
L 3641 1784 
L 2906 1784 
L 2906 2591 
L 4781 2591 
L 4781 347 
z
" transform="scale(0.015625)"/>
      <path id="DejaVuSans-Bold-50" d="M 588 4666 
L 2584 4666 
Q 3475 4666 3951 4270 
Q 4428 3875 4428 3144 
Q 4428 2409 3951 2014 
Q 3475 1619 2584 1619 
L 1791 1619 
L 1791 0 
L 588 0 
L 588 4666 
z
M 1791 3794 
L 1791 2491 
L 2456 2491 
Q 2806 2491 2997 2661 
Q 3188 2831 3188 3144 
Q 3188 3456 2997 3625 
Q 2806 3794 2456 3794 
L 1791 3794 
z
" transform="scale(0.015625)"/>
      <path id="DejaVuSans-Bold-54" d="M 31 4666 
L 4331 4666 
L 4331 3756 
L 2784 3756 
L 2784 0 
L 1581 0 
L 1581 3756 
L 31 3756 
L 31 4666 
z
" transform="scale(0.015625)"/>
      <path id="DejaVuSans-Bold-2d" d="M 347 2297 
L 2309 2297 
L 2309 1388 
L 347 1388 
L 347 2297 
z
" transform="scale(0.015625)"/>
      <path id="DejaVuSans-Bold-34" d="M 2356 3675 
L 1038 1722 
L 2356 1722 
L 2356 3675 
z
M 2156 4666 
L 3494 4666 
L 3494 1722 
L 4159 1722 
L 4159 850 
L 3494 850 
L 3494 0 
L 2356 0 
L 2356 850 
L 288 850 
L 288 1881 
L 2156 4666 
z
" transform="scale(0.015625)"/>
      <path id="DejaVuSans-Bold-6f" d="M 2203 2784 
Q 1831 2784 1636 2517 
Q 1441 2250 1441 1747 
Q 1441 1244 1636 976 
Q 1831 709 2203 709 
Q 2569 709 2762 976 
Q 2956 1244 2956 1747 
Q 2956 2250 2762 2517 
Q 2569 2784 2203 2784 
z
M 2203 3584 
Q 3106 3584 3614 3096 
Q 4122 2609 4122 1747 
Q 4122 884 3614 396 
Q 3106 -91 2203 -91 
Q 1297 -91 786 396 
Q 275 884 275 1747 
Q 275 2609 786 3096 
Q 1297 3584 2203 3584 
z
" transform="scale(0.015625)"/>
      <path id="DejaVuSans-Bold-32" d="M 1844 884 
L 3897 884 
L 3897 0 
L 506 0 
L 506 884 
L 2209 2388 
Q 2438 2594 2547 2791 
Q 2656 2988 2656 3200 
Q 2656 3528 2436 3728 
Q 2216 3928 1850 3928 
Q 1569 3928 1234 3808 
Q 900 3688 519 3450 
L 519 4475 
Q 925 4609 1322 4679 
Q 1719 4750 2100 4750 
Q 2938 4750 3402 4381 
Q 3866 4013 3866 3353 
Q 3866 2972 3669 2642 
Q 3472 2313 2841 1759 
L 1844 884 
z
" transform="scale(0.015625)"/>
      <path id="DejaVuSans-Bold-30" d="M 2944 2338 
Q 2944 3213 2780 3570 
Q 2616 3928 2228 3928 
Q 1841 3928 1675 3570 
Q 1509 3213 1509 2338 
Q 1509 1453 1675 1090 
Q 1841 728 2228 728 
Q 2613 728 2778 1090 
Q 2944 1453 2944 2338 
z
M 4147 2328 
Q 4147 1169 3647 539 
Q 3147 -91 2228 -91 
Q 1306 -91 806 539 
Q 306 1169 306 2328 
Q 306 3491 806 4120 
Q 1306 4750 2228 4750 
Q 3147 4750 3647 4120 
Q 4147 3491 4147 2328 
z
" transform="scale(0.015625)"/>
      <path id="DejaVuSans-Bold-35" d="M 678 4666 
L 3669 4666 
L 3669 3781 
L 1638 3781 
L 1638 3059 
Q 1775 3097 1914 3117 
Q 2053 3138 2203 3138 
Q 3056 3138 3531 2711 
Q 4006 2284 4006 1522 
Q 4006 766 3489 337 
Q 2972 -91 2053 -91 
Q 1656 -91 1267 -14 
Q 878 63 494 219 
L 494 1166 
Q 875 947 1217 837 
Q 1559 728 1863 728 
Q 2300 728 2551 942 
Q 2803 1156 2803 1522 
Q 2803 1891 2551 2103 
Q 2300 2316 1863 2316 
Q 1603 2316 1309 2248 
Q 1016 2181 678 2041 
L 678 4666 
z
" transform="scale(0.015625)"/>
      <path id="DejaVuSans-Bold-31" d="M 750 831 
L 1813 831 
L 1813 3847 
L 722 3622 
L 722 4441 
L 1806 4666 
L 2950 4666 
L 2950 831 
L 4013 831 
L 4013 0 
L 750 0 
L 750 831 
z
" transform="scale(0.015625)"/>
      <path id="DejaVuSans-Bold-33" d="M 2981 2516 
Q 3453 2394 3698 2092 
Q 3944 1791 3944 1325 
Q 3944 631 3412 270 
Q 2881 -91 1863 -91 
Q 1503 -91 1142 -33 
Q 781 25 428 141 
L 428 1069 
Q 766 900 1098 814 
Q 1431 728 1753 728 
Q 2231 728 2486 893 
Q 2741 1059 2741 1369 
Q 2741 1688 2480 1852 
Q 2219 2016 1709 2016 
L 1228 2016 
L 1228 2791 
L 1734 2791 
Q 2188 2791 2409 2933 
Q 2631 3075 2631 3366 
Q 2631 3634 2415 3781 
Q 2200 3928 1806 3928 
Q 1516 3928 1219 3862 
Q 922 3797 628 3669 
L 628 4550 
Q 984 4650 1334 4700 
Q 1684 4750 2022 4750 
Q 2931 4750 3382 4451 
Q 3834 4153 3834 3553 
Q 3834 3144 3618 2883 
Q 3403 2622 2981 2516 
z
" transform="scale(0.015625)"/>
     </defs>
     <use xlink:href="#DejaVuSans-Bold-47"/>
     <use xlink:href="#DejaVuSans-Bold-50" x="82.080078"/>
     <use xlink:href="#DejaVuSans-Bold-54" x="155.371094"/>
     <use xlink:href="#DejaVuSans-Bold-2d" x="208.833984"/>
     <use xlink:href="#DejaVuSans-Bold-34" x="250.337891"/>
     <use xlink:href="#DejaVuSans-Bold-6f" x="319.917969"/>
     <use xlink:href="#DejaVuSans-Bold-2d" x="388.619141"/>
     <use xlink:href="#DejaVuSans-Bold-32" x="430.123047"/>
     <use xlink:href="#DejaVuSans-Bold-30" x="499.703125"/>
     <use xlink:href="#DejaVuSans-Bold-32" x="569.283203"/>
     <use xlink:href="#DejaVuSans-Bold-34" x="638.863281"/>
     <use xlink:href="#DejaVuSans-Bold-2d" x="708.443359"/>
     <use xlink:href="#DejaVuSans-Bold-30" x="749.947266"/>
     <use xlink:href="#DejaVuSans-Bold-35" x="819.527344"/>
     <use xlink:href="#DejaVuSans-Bold-2d" x="889.107422"/>
     <use xlink:href="#DejaVuSans-Bold-31" x="930.611328"/>
     <use xlink:href="#DejaVuSans-Bold-33" x="1000.191406"/>
    </g>
   </g>
   <g id="text_18">
    <g id="patch_6">
     <path d="M 592.78599 161.507863 
L 775.070365 161.507863 
L 775.070365 150.829738 
L 592.78599 150.829738 
z
" style="fill: #ffffff; opacity: 0.7"/>
    </g>
    <!-- DeepSeek-V2-Chat (2024-06-28) -->
    <g style="opacity: 0.8" transform="translate(593.28599 158.928175) scale(0.1 -0.1)">
     <defs>
      <path id="DejaVuSans-Bold-44" d="M 1791 3756 
L 1791 909 
L 2222 909 
Q 2959 909 3348 1275 
Q 3738 1641 3738 2338 
Q 3738 3031 3350 3393 
Q 2963 3756 2222 3756 
L 1791 3756 
z
M 588 4666 
L 1856 4666 
Q 2919 4666 3439 4514 
Q 3959 4363 4331 4000 
Q 4659 3684 4818 3271 
Q 4978 2859 4978 2338 
Q 4978 1809 4818 1395 
Q 4659 981 4331 666 
Q 3956 303 3431 151 
Q 2906 0 1856 0 
L 588 0 
L 588 4666 
z
" transform="scale(0.015625)"/>
      <path id="DejaVuSans-Bold-70" d="M 1656 506 
L 1656 -1331 
L 538 -1331 
L 538 3500 
L 1656 3500 
L 1656 2988 
Q 1888 3294 2169 3439 
Q 2450 3584 2816 3584 
Q 3463 3584 3878 3070 
Q 4294 2556 4294 1747 
Q 4294 938 3878 423 
Q 3463 -91 2816 -91 
Q 2450 -91 2169 54 
Q 1888 200 1656 506 
z
M 2400 2772 
Q 2041 2772 1848 2508 
Q 1656 2244 1656 1747 
Q 1656 1250 1848 986 
Q 2041 722 2400 722 
Q 2759 722 2948 984 
Q 3138 1247 3138 1747 
Q 3138 2247 2948 2509 
Q 2759 2772 2400 2772 
z
" transform="scale(0.015625)"/>
      <path id="DejaVuSans-Bold-6b" d="M 538 4863 
L 1656 4863 
L 1656 2216 
L 2944 3500 
L 4244 3500 
L 2534 1894 
L 4378 0 
L 3022 0 
L 1656 1459 
L 1656 0 
L 538 0 
L 538 4863 
z
" transform="scale(0.015625)"/>
      <path id="DejaVuSans-Bold-56" d="M 31 4666 
L 1241 4666 
L 2478 1222 
L 3713 4666 
L 4922 4666 
L 3194 0 
L 1759 0 
L 31 4666 
z
" transform="scale(0.015625)"/>
      <path id="DejaVuSans-Bold-43" d="M 4288 256 
Q 3956 84 3597 -3 
Q 3238 -91 2847 -91 
Q 1681 -91 1000 561 
Q 319 1213 319 2328 
Q 319 3447 1000 4098 
Q 1681 4750 2847 4750 
Q 3238 4750 3597 4662 
Q 3956 4575 4288 4403 
L 4288 3438 
Q 3953 3666 3628 3772 
Q 3303 3878 2944 3878 
Q 2300 3878 1931 3465 
Q 1563 3053 1563 2328 
Q 1563 1606 1931 1193 
Q 2300 781 2944 781 
Q 3303 781 3628 887 
Q 3953 994 4288 1222 
L 4288 256 
z
" transform="scale(0.015625)"/>
      <path id="DejaVuSans-Bold-68" d="M 4056 2131 
L 4056 0 
L 2931 0 
L 2931 347 
L 2931 1625 
Q 2931 2084 2911 2256 
Q 2891 2428 2841 2509 
Q 2775 2619 2662 2680 
Q 2550 2741 2406 2741 
Q 2056 2741 1856 2470 
Q 1656 2200 1656 1722 
L 1656 0 
L 538 0 
L 538 4863 
L 1656 4863 
L 1656 2988 
Q 1909 3294 2193 3439 
Q 2478 3584 2822 3584 
Q 3428 3584 3742 3212 
Q 4056 2841 4056 2131 
z
" transform="scale(0.015625)"/>
      <path id="DejaVuSans-Bold-28" d="M 2413 -844 
L 1484 -844 
Q 1006 -72 778 623 
Q 550 1319 550 2003 
Q 550 2688 779 3389 
Q 1009 4091 1484 4856 
L 2413 4856 
Q 2013 4116 1813 3408 
Q 1613 2700 1613 2009 
Q 1613 1319 1811 609 
Q 2009 -100 2413 -844 
z
" transform="scale(0.015625)"/>
      <path id="DejaVuSans-Bold-36" d="M 2316 2303 
Q 2000 2303 1842 2098 
Q 1684 1894 1684 1484 
Q 1684 1075 1842 870 
Q 2000 666 2316 666 
Q 2634 666 2792 870 
Q 2950 1075 2950 1484 
Q 2950 1894 2792 2098 
Q 2634 2303 2316 2303 
z
M 3803 4544 
L 3803 3681 
Q 3506 3822 3243 3889 
Q 2981 3956 2731 3956 
Q 2194 3956 1894 3657 
Q 1594 3359 1544 2772 
Q 1750 2925 1990 3001 
Q 2231 3078 2516 3078 
Q 3231 3078 3670 2659 
Q 4109 2241 4109 1563 
Q 4109 813 3618 361 
Q 3128 -91 2303 -91 
Q 1394 -91 895 523 
Q 397 1138 397 2266 
Q 397 3422 980 4083 
Q 1563 4744 2578 4744 
Q 2900 4744 3203 4694 
Q 3506 4644 3803 4544 
z
" transform="scale(0.015625)"/>
      <path id="DejaVuSans-Bold-38" d="M 2228 2088 
Q 1891 2088 1709 1903 
Q 1528 1719 1528 1375 
Q 1528 1031 1709 848 
Q 1891 666 2228 666 
Q 2563 666 2741 848 
Q 2919 1031 2919 1375 
Q 2919 1722 2741 1905 
Q 2563 2088 2228 2088 
z
M 1350 2484 
Q 925 2613 709 2878 
Q 494 3144 494 3541 
Q 494 4131 934 4440 
Q 1375 4750 2228 4750 
Q 3075 4750 3515 4442 
Q 3956 4134 3956 3541 
Q 3956 3144 3739 2878 
Q 3522 2613 3097 2484 
Q 3572 2353 3814 2058 
Q 4056 1763 4056 1313 
Q 4056 619 3595 264 
Q 3134 -91 2228 -91 
Q 1319 -91 855 264 
Q 391 619 391 1313 
Q 391 1763 633 2058 
Q 875 2353 1350 2484 
z
M 1631 3419 
Q 1631 3141 1786 2991 
Q 1941 2841 2228 2841 
Q 2509 2841 2662 2991 
Q 2816 3141 2816 3419 
Q 2816 3697 2662 3845 
Q 2509 3994 2228 3994 
Q 1941 3994 1786 3844 
Q 1631 3694 1631 3419 
z
" transform="scale(0.015625)"/>
      <path id="DejaVuSans-Bold-29" d="M 513 -844 
Q 913 -100 1113 609 
Q 1313 1319 1313 2009 
Q 1313 2700 1113 3408 
Q 913 4116 513 4856 
L 1441 4856 
Q 1916 4091 2145 3389 
Q 2375 2688 2375 2003 
Q 2375 1319 2147 623 
Q 1919 -72 1441 -844 
L 513 -844 
z
" transform="scale(0.015625)"/>
     </defs>
     <use xlink:href="#DejaVuSans-Bold-44"/>
     <use xlink:href="#DejaVuSans-Bold-65" x="83.007812"/>
     <use xlink:href="#DejaVuSans-Bold-65" x="150.830078"/>
     <use xlink:href="#DejaVuSans-Bold-70" x="218.652344"/>
     <use xlink:href="#DejaVuSans-Bold-53" x="290.234375"/>
     <use xlink:href="#DejaVuSans-Bold-65" x="362.255859"/>
     <use xlink:href="#DejaVuSans-Bold-65" x="430.078125"/>
     <use xlink:href="#DejaVuSans-Bold-6b" x="497.900391"/>
     <use xlink:href="#DejaVuSans-Bold-2d" x="564.404297"/>
     <use xlink:href="#DejaVuSans-Bold-56" x="598.658203"/>
     <use xlink:href="#DejaVuSans-Bold-32" x="676.050781"/>
     <use xlink:href="#DejaVuSans-Bold-2d" x="745.630859"/>
     <use xlink:href="#DejaVuSans-Bold-43" x="787.134766"/>
     <use xlink:href="#DejaVuSans-Bold-68" x="860.523438"/>
     <use xlink:href="#DejaVuSans-Bold-61" x="931.714844"/>
     <use xlink:href="#DejaVuSans-Bold-74" x="999.195312"/>
     <use xlink:href="#DejaVuSans-Bold-20" x="1046.998047"/>
     <use xlink:href="#DejaVuSans-Bold-28" x="1081.8125"/>
     <use xlink:href="#DejaVuSans-Bold-32" x="1127.515625"/>
     <use xlink:href="#DejaVuSans-Bold-30" x="1197.095703"/>
     <use xlink:href="#DejaVuSans-Bold-32" x="1266.675781"/>
     <use xlink:href="#DejaVuSans-Bold-34" x="1336.255859"/>
     <use xlink:href="#DejaVuSans-Bold-2d" x="1405.835938"/>
     <use xlink:href="#DejaVuSans-Bold-30" x="1447.339844"/>
     <use xlink:href="#DejaVuSans-Bold-36" x="1516.919922"/>
     <use xlink:href="#DejaVuSans-Bold-2d" x="1586.5"/>
     <use xlink:href="#DejaVuSans-Bold-32" x="1628.003906"/>
     <use xlink:href="#DejaVuSans-Bold-38" x="1697.583984"/>
     <use xlink:href="#DejaVuSans-Bold-29" x="1767.164062"/>
    </g>
   </g>
   <g id="text_19">
    <g id="patch_7">
     <path d="M 596.776029 216.785282 
L 758.049467 216.785282 
L 758.049467 206.107157 
L 596.776029 206.107157 
z
" style="fill: #ffffff; opacity: 0.7"/>
    </g>
    <!-- DeepSeek-Coder-V2-Instruct -->
    <g style="opacity: 0.8" transform="translate(597.276029 214.205595) scale(0.1 -0.1)">
     <defs>
      <path id="DejaVuSans-Bold-49" d="M 588 4666 
L 1791 4666 
L 1791 0 
L 588 0 
L 588 4666 
z
" transform="scale(0.015625)"/>
      <path id="DejaVuSans-Bold-6e" d="M 4056 2131 
L 4056 0 
L 2931 0 
L 2931 347 
L 2931 1631 
Q 2931 2084 2911 2256 
Q 2891 2428 2841 2509 
Q 2775 2619 2662 2680 
Q 2550 2741 2406 2741 
Q 2056 2741 1856 2470 
Q 1656 2200 1656 1722 
L 1656 0 
L 538 0 
L 538 3500 
L 1656 3500 
L 1656 2988 
Q 1909 3294 2193 3439 
Q 2478 3584 2822 3584 
Q 3428 3584 3742 3212 
Q 4056 2841 4056 2131 
z
" transform="scale(0.015625)"/>
      <path id="DejaVuSans-Bold-73" d="M 3272 3391 
L 3272 2541 
Q 2913 2691 2578 2766 
Q 2244 2841 1947 2841 
Q 1628 2841 1473 2761 
Q 1319 2681 1319 2516 
Q 1319 2381 1436 2309 
Q 1553 2238 1856 2203 
L 2053 2175 
Q 2913 2066 3209 1816 
Q 3506 1566 3506 1031 
Q 3506 472 3093 190 
Q 2681 -91 1863 -91 
Q 1516 -91 1145 -36 
Q 775 19 384 128 
L 384 978 
Q 719 816 1070 734 
Q 1422 653 1784 653 
Q 2113 653 2278 743 
Q 2444 834 2444 1013 
Q 2444 1163 2330 1236 
Q 2216 1309 1875 1350 
L 1678 1375 
Q 931 1469 631 1722 
Q 331 1975 331 2491 
Q 331 3047 712 3315 
Q 1094 3584 1881 3584 
Q 2191 3584 2531 3537 
Q 2872 3491 3272 3391 
z
" transform="scale(0.015625)"/>
      <path id="DejaVuSans-Bold-63" d="M 3366 3391 
L 3366 2478 
Q 3138 2634 2908 2709 
Q 2678 2784 2431 2784 
Q 1963 2784 1702 2511 
Q 1441 2238 1441 1747 
Q 1441 1256 1702 982 
Q 1963 709 2431 709 
Q 2694 709 2930 787 
Q 3166 866 3366 1019 
L 3366 103 
Q 3103 6 2833 -42 
Q 2563 -91 2291 -91 
Q 1344 -91 809 395 
Q 275 881 275 1747 
Q 275 2613 809 3098 
Q 1344 3584 2291 3584 
Q 2566 3584 2833 3536 
Q 3100 3488 3366 3391 
z
" transform="scale(0.015625)"/>
     </defs>
     <use xlink:href="#DejaVuSans-Bold-44"/>
     <use xlink:href="#DejaVuSans-Bold-65" x="83.007812"/>
     <use xlink:href="#DejaVuSans-Bold-65" x="150.830078"/>
     <use xlink:href="#DejaVuSans-Bold-70" x="218.652344"/>
     <use xlink:href="#DejaVuSans-Bold-53" x="290.234375"/>
     <use xlink:href="#DejaVuSans-Bold-65" x="362.255859"/>
     <use xlink:href="#DejaVuSans-Bold-65" x="430.078125"/>
     <use xlink:href="#DejaVuSans-Bold-6b" x="497.900391"/>
     <use xlink:href="#DejaVuSans-Bold-2d" x="564.404297"/>
     <use xlink:href="#DejaVuSans-Bold-43" x="605.908203"/>
     <use xlink:href="#DejaVuSans-Bold-6f" x="679.296875"/>
     <use xlink:href="#DejaVuSans-Bold-64" x="747.998047"/>
     <use xlink:href="#DejaVuSans-Bold-65" x="819.580078"/>
     <use xlink:href="#DejaVuSans-Bold-72" x="887.402344"/>
     <use xlink:href="#DejaVuSans-Bold-2d" x="936.71875"/>
     <use xlink:href="#DejaVuSans-Bold-56" x="970.972656"/>
     <use xlink:href="#DejaVuSans-Bold-32" x="1048.365234"/>
     <use xlink:href="#DejaVuSans-Bold-2d" x="1117.945312"/>
     <use xlink:href="#DejaVuSans-Bold-49" x="1159.449219"/>
     <use xlink:href="#DejaVuSans-Bold-6e" x="1196.65625"/>
     <use xlink:href="#DejaVuSans-Bold-73" x="1267.847656"/>
     <use xlink:href="#DejaVuSans-Bold-74" x="1327.369141"/>
     <use xlink:href="#DejaVuSans-Bold-72" x="1375.171875"/>
     <use xlink:href="#DejaVuSans-Bold-75" x="1424.488281"/>
     <use xlink:href="#DejaVuSans-Bold-63" x="1495.679688"/>
     <use xlink:href="#DejaVuSans-Bold-74" x="1554.957031"/>
    </g>
   </g>
   <g id="text_20">
    <g id="patch_8">
     <path d="M 557.499468 50.953024 
L 693.079156 50.953024 
L 693.079156 40.274899 
L 557.499468 40.274899 
z
" style="fill: #ffffff; opacity: 0.7"/>
    </g>
    <!-- GPT-4-Turbo-2024-04-09 -->
    <g style="opacity: 0.8" transform="translate(557.999468 48.373337) scale(0.1 -0.1)">
     <defs>
      <path id="DejaVuSans-Bold-62" d="M 2400 722 
Q 2759 722 2948 984 
Q 3138 1247 3138 1747 
Q 3138 2247 2948 2509 
Q 2759 2772 2400 2772 
Q 2041 2772 1848 2508 
Q 1656 2244 1656 1747 
Q 1656 1250 1848 986 
Q 2041 722 2400 722 
z
M 1656 2988 
Q 1888 3294 2169 3439 
Q 2450 3584 2816 3584 
Q 3463 3584 3878 3070 
Q 4294 2556 4294 1747 
Q 4294 938 3878 423 
Q 3463 -91 2816 -91 
Q 2450 -91 2169 54 
Q 1888 200 1656 506 
L 1656 0 
L 538 0 
L 538 4863 
L 1656 4863 
L 1656 2988 
z
" transform="scale(0.015625)"/>
      <path id="DejaVuSans-Bold-39" d="M 641 103 
L 641 966 
Q 928 831 1190 764 
Q 1453 697 1709 697 
Q 2247 697 2547 995 
Q 2847 1294 2900 1881 
Q 2688 1725 2447 1647 
Q 2206 1569 1925 1569 
Q 1209 1569 770 1986 
Q 331 2403 331 3084 
Q 331 3838 820 4291 
Q 1309 4744 2131 4744 
Q 3044 4744 3544 4128 
Q 4044 3513 4044 2388 
Q 4044 1231 3459 570 
Q 2875 -91 1856 -91 
Q 1528 -91 1228 -42 
Q 928 6 641 103 
z
M 2125 2350 
Q 2441 2350 2600 2554 
Q 2759 2759 2759 3169 
Q 2759 3575 2600 3781 
Q 2441 3988 2125 3988 
Q 1809 3988 1650 3781 
Q 1491 3575 1491 3169 
Q 1491 2759 1650 2554 
Q 1809 2350 2125 2350 
z
" transform="scale(0.015625)"/>
     </defs>
     <use xlink:href="#DejaVuSans-Bold-47"/>
     <use xlink:href="#DejaVuSans-Bold-50" x="82.080078"/>
     <use xlink:href="#DejaVuSans-Bold-54" x="155.371094"/>
     <use xlink:href="#DejaVuSans-Bold-2d" x="208.833984"/>
     <use xlink:href="#DejaVuSans-Bold-34" x="250.337891"/>
     <use xlink:href="#DejaVuSans-Bold-2d" x="319.917969"/>
     <use xlink:href="#DejaVuSans-Bold-54" x="346.671875"/>
     <use xlink:href="#DejaVuSans-Bold-75" x="403.884766"/>
     <use xlink:href="#DejaVuSans-Bold-72" x="475.076172"/>
     <use xlink:href="#DejaVuSans-Bold-62" x="524.392578"/>
     <use xlink:href="#DejaVuSans-Bold-6f" x="595.974609"/>
     <use xlink:href="#DejaVuSans-Bold-2d" x="664.675781"/>
     <use xlink:href="#DejaVuSans-Bold-32" x="706.179688"/>
     <use xlink:href="#DejaVuSans-Bold-30" x="775.759766"/>
     <use xlink:href="#DejaVuSans-Bold-32" x="845.339844"/>
     <use xlink:href="#DejaVuSans-Bold-34" x="914.919922"/>
     <use xlink:href="#DejaVuSans-Bold-2d" x="984.5"/>
     <use xlink:href="#DejaVuSans-Bold-30" x="1026.003906"/>
     <use xlink:href="#DejaVuSans-Bold-34" x="1095.583984"/>
     <use xlink:href="#DejaVuSans-Bold-2d" x="1165.164062"/>
     <use xlink:href="#DejaVuSans-Bold-30" x="1206.667969"/>
     <use xlink:href="#DejaVuSans-Bold-39" x="1276.248047"/>
    </g>
   </g>
   <g id="text_21">
    <g id="patch_9">
     <path d="M 510.075446 138.746573 
L 675.348883 138.746573 
L 675.348883 128.068448 
L 510.075446 128.068448 
z
" style="fill: #ffffff; opacity: 0.7"/>
    </g>
    <!-- Claude-3.5-Sonnet-20240620 -->
    <g style="opacity: 0.8" transform="translate(510.575446 136.166885) scale(0.1 -0.1)">
     <defs>
      <path id="DejaVuSans-Bold-2e" d="M 653 1209 
L 1778 1209 
L 1778 0 
L 653 0 
L 653 1209 
z
" transform="scale(0.015625)"/>
     </defs>
     <use xlink:href="#DejaVuSans-Bold-43"/>
     <use xlink:href="#DejaVuSans-Bold-6c" x="73.388672"/>
     <use xlink:href="#DejaVuSans-Bold-61" x="107.666016"/>
     <use xlink:href="#DejaVuSans-Bold-75" x="175.146484"/>
     <use xlink:href="#DejaVuSans-Bold-64" x="246.337891"/>
     <use xlink:href="#DejaVuSans-Bold-65" x="317.919922"/>
     <use xlink:href="#DejaVuSans-Bold-2d" x="385.742188"/>
     <use xlink:href="#DejaVuSans-Bold-33" x="427.246094"/>
     <use xlink:href="#DejaVuSans-Bold-2e" x="496.826172"/>
     <use xlink:href="#DejaVuSans-Bold-35" x="534.814453"/>
     <use xlink:href="#DejaVuSans-Bold-2d" x="604.394531"/>
     <use xlink:href="#DejaVuSans-Bold-53" x="645.898438"/>
     <use xlink:href="#DejaVuSans-Bold-6f" x="717.919922"/>
     <use xlink:href="#DejaVuSans-Bold-6e" x="786.621094"/>
     <use xlink:href="#DejaVuSans-Bold-6e" x="857.8125"/>
     <use xlink:href="#DejaVuSans-Bold-65" x="929.003906"/>
     <use xlink:href="#DejaVuSans-Bold-74" x="996.826172"/>
     <use xlink:href="#DejaVuSans-Bold-2d" x="1044.628906"/>
     <use xlink:href="#DejaVuSans-Bold-32" x="1086.132812"/>
     <use xlink:href="#DejaVuSans-Bold-30" x="1155.712891"/>
     <use xlink:href="#DejaVuSans-Bold-32" x="1225.292969"/>
     <use xlink:href="#DejaVuSans-Bold-34" x="1294.873047"/>
     <use xlink:href="#DejaVuSans-Bold-30" x="1364.453125"/>
     <use xlink:href="#DejaVuSans-Bold-36" x="1434.033203"/>
     <use xlink:href="#DejaVuSans-Bold-32" x="1503.613281"/>
     <use xlink:href="#DejaVuSans-Bold-30" x="1573.193359"/>
    </g>
   </g>
   <g id="text_22">
    <g id="patch_10">
     <path d="M 488.555721 522.436895 
L 553.529158 522.436895 
L 553.529158 511.75877 
L 488.555721 511.75877 
z
" style="fill: #ffffff; opacity: 0.7"/>
    </g>
    <!-- GPT-4-0613 -->
    <g style="opacity: 0.8" transform="translate(489.055721 519.857208) scale(0.1 -0.1)">
     <use xlink:href="#DejaVuSans-Bold-47"/>
     <use xlink:href="#DejaVuSans-Bold-50" x="82.080078"/>
     <use xlink:href="#DejaVuSans-Bold-54" x="155.371094"/>
     <use xlink:href="#DejaVuSans-Bold-2d" x="208.833984"/>
     <use xlink:href="#DejaVuSans-Bold-34" x="250.337891"/>
     <use xlink:href="#DejaVuSans-Bold-2d" x="319.917969"/>
     <use xlink:href="#DejaVuSans-Bold-30" x="361.421875"/>
     <use xlink:href="#DejaVuSans-Bold-36" x="431.001953"/>
     <use xlink:href="#DejaVuSans-Bold-31" x="500.582031"/>
     <use xlink:href="#DejaVuSans-Bold-33" x="570.162109"/>
    </g>
   </g>
   <g id="text_23">
    <g id="patch_11">
     <path d="M 442.83951 249.301411 
L 586.21451 249.301411 
L 586.21451 238.623286 
L 442.83951 238.623286 
z
" style="fill: #ffffff; opacity: 0.7"/>
    </g>
    <!-- Claude-3-Opus-20240229 -->
    <g style="opacity: 0.8" transform="translate(443.33951 246.721724) scale(0.1 -0.1)">
     <defs>
      <path id="DejaVuSans-Bold-4f" d="M 2719 3878 
Q 2169 3878 1866 3472 
Q 1563 3066 1563 2328 
Q 1563 1594 1866 1187 
Q 2169 781 2719 781 
Q 3272 781 3575 1187 
Q 3878 1594 3878 2328 
Q 3878 3066 3575 3472 
Q 3272 3878 2719 3878 
z
M 2719 4750 
Q 3844 4750 4481 4106 
Q 5119 3463 5119 2328 
Q 5119 1197 4481 553 
Q 3844 -91 2719 -91 
Q 1597 -91 958 553 
Q 319 1197 319 2328 
Q 319 3463 958 4106 
Q 1597 4750 2719 4750 
z
" transform="scale(0.015625)"/>
     </defs>
     <use xlink:href="#DejaVuSans-Bold-43"/>
     <use xlink:href="#DejaVuSans-Bold-6c" x="73.388672"/>
     <use xlink:href="#DejaVuSans-Bold-61" x="107.666016"/>
     <use xlink:href="#DejaVuSans-Bold-75" x="175.146484"/>
     <use xlink:href="#DejaVuSans-Bold-64" x="246.337891"/>
     <use xlink:href="#DejaVuSans-Bold-65" x="317.919922"/>
     <use xlink:href="#DejaVuSans-Bold-2d" x="385.742188"/>
     <use xlink:href="#DejaVuSans-Bold-33" x="427.246094"/>
     <use xlink:href="#DejaVuSans-Bold-2d" x="496.826172"/>
     <use xlink:href="#DejaVuSans-Bold-4f" x="538.330078"/>
     <use xlink:href="#DejaVuSans-Bold-70" x="623.339844"/>
     <use xlink:href="#DejaVuSans-Bold-75" x="694.921875"/>
     <use xlink:href="#DejaVuSans-Bold-73" x="766.113281"/>
     <use xlink:href="#DejaVuSans-Bold-2d" x="825.634766"/>
     <use xlink:href="#DejaVuSans-Bold-32" x="867.138672"/>
     <use xlink:href="#DejaVuSans-Bold-30" x="936.71875"/>
     <use xlink:href="#DejaVuSans-Bold-32" x="1006.298828"/>
     <use xlink:href="#DejaVuSans-Bold-34" x="1075.878906"/>
     <use xlink:href="#DejaVuSans-Bold-30" x="1145.458984"/>
     <use xlink:href="#DejaVuSans-Bold-32" x="1215.039062"/>
     <use xlink:href="#DejaVuSans-Bold-32" x="1284.619141"/>
     <use xlink:href="#DejaVuSans-Bold-39" x="1354.199219"/>
    </g>
   </g>
   <g id="text_24">
    <g id="patch_12">
     <path d="M 385.662363 268.811089 
L 526.113926 268.811089 
L 526.113926 258.132964 
L 385.662363 258.132964 
z
" style="fill: #ffffff; opacity: 0.7"/>
    </g>
    <!-- Gemini-1.5-Pro-API-0514 -->
    <g style="opacity: 0.8" transform="translate(386.162363 266.231401) scale(0.1 -0.1)">
     <defs>
      <path id="DejaVuSans-Bold-6d" d="M 3781 2919 
Q 3994 3244 4286 3414 
Q 4578 3584 4928 3584 
Q 5531 3584 5847 3212 
Q 6163 2841 6163 2131 
L 6163 0 
L 5038 0 
L 5038 1825 
Q 5041 1866 5042 1909 
Q 5044 1953 5044 2034 
Q 5044 2406 4934 2573 
Q 4825 2741 4581 2741 
Q 4263 2741 4089 2478 
Q 3916 2216 3909 1719 
L 3909 0 
L 2784 0 
L 2784 1825 
Q 2784 2406 2684 2573 
Q 2584 2741 2328 2741 
Q 2006 2741 1831 2477 
Q 1656 2213 1656 1722 
L 1656 0 
L 531 0 
L 531 3500 
L 1656 3500 
L 1656 2988 
Q 1863 3284 2130 3434 
Q 2397 3584 2719 3584 
Q 3081 3584 3359 3409 
Q 3638 3234 3781 2919 
z
" transform="scale(0.015625)"/>
      <path id="DejaVuSans-Bold-69" d="M 538 3500 
L 1656 3500 
L 1656 0 
L 538 0 
L 538 3500 
z
M 538 4863 
L 1656 4863 
L 1656 3950 
L 538 3950 
L 538 4863 
z
" transform="scale(0.015625)"/>
      <path id="DejaVuSans-Bold-41" d="M 3419 850 
L 1538 850 
L 1241 0 
L 31 0 
L 1759 4666 
L 3194 4666 
L 4922 0 
L 3713 0 
L 3419 850 
z
M 1838 1716 
L 3116 1716 
L 2478 3572 
L 1838 1716 
z
" transform="scale(0.015625)"/>
     </defs>
     <use xlink:href="#DejaVuSans-Bold-47"/>
     <use xlink:href="#DejaVuSans-Bold-65" x="82.080078"/>
     <use xlink:href="#DejaVuSans-Bold-6d" x="149.902344"/>
     <use xlink:href="#DejaVuSans-Bold-69" x="254.101562"/>
     <use xlink:href="#DejaVuSans-Bold-6e" x="288.378906"/>
     <use xlink:href="#DejaVuSans-Bold-69" x="359.570312"/>
     <use xlink:href="#DejaVuSans-Bold-2d" x="393.847656"/>
     <use xlink:href="#DejaVuSans-Bold-31" x="435.351562"/>
     <use xlink:href="#DejaVuSans-Bold-2e" x="504.931641"/>
     <use xlink:href="#DejaVuSans-Bold-35" x="542.919922"/>
     <use xlink:href="#DejaVuSans-Bold-2d" x="612.5"/>
     <use xlink:href="#DejaVuSans-Bold-50" x="654.003906"/>
     <use xlink:href="#DejaVuSans-Bold-72" x="727.294922"/>
     <use xlink:href="#DejaVuSans-Bold-6f" x="776.611328"/>
     <use xlink:href="#DejaVuSans-Bold-2d" x="845.3125"/>
     <use xlink:href="#DejaVuSans-Bold-41" x="886.816406"/>
     <use xlink:href="#DejaVuSans-Bold-50" x="964.208984"/>
     <use xlink:href="#DejaVuSans-Bold-49" x="1037.5"/>
     <use xlink:href="#DejaVuSans-Bold-2d" x="1074.707031"/>
     <use xlink:href="#DejaVuSans-Bold-30" x="1116.210938"/>
     <use xlink:href="#DejaVuSans-Bold-35" x="1185.791016"/>
     <use xlink:href="#DejaVuSans-Bold-31" x="1255.371094"/>
     <use xlink:href="#DejaVuSans-Bold-34" x="1324.951172"/>
    </g>
   </g>
   <g id="text_25">
    <g id="patch_13">
     <path d="M 373.420957 369.611089 
L 538.355332 369.611089 
L 538.355332 358.932964 
L 373.420957 358.932964 
z
" style="fill: #ffffff; opacity: 0.7"/>
    </g>
    <!-- Hermes-2-Theta-Llama-3-70B -->
    <g style="opacity: 0.8" transform="translate(373.920957 367.031401) scale(0.1 -0.1)">
     <defs>
      <path id="DejaVuSans-Bold-4c" d="M 588 4666 
L 1791 4666 
L 1791 909 
L 3903 909 
L 3903 0 
L 588 0 
L 588 4666 
z
" transform="scale(0.015625)"/>
      <path id="DejaVuSans-Bold-37" d="M 428 4666 
L 3944 4666 
L 3944 3988 
L 2125 0 
L 953 0 
L 2675 3781 
L 428 3781 
L 428 4666 
z
" transform="scale(0.015625)"/>
      <path id="DejaVuSans-Bold-42" d="M 2456 2859 
Q 2741 2859 2887 2984 
Q 3034 3109 3034 3353 
Q 3034 3594 2887 3720 
Q 2741 3847 2456 3847 
L 1791 3847 
L 1791 2859 
L 2456 2859 
z
M 2497 819 
Q 2859 819 3042 972 
Q 3225 1125 3225 1434 
Q 3225 1738 3044 1889 
Q 2863 2041 2497 2041 
L 1791 2041 
L 1791 819 
L 2497 819 
z
M 3616 2497 
Q 4003 2384 4215 2081 
Q 4428 1778 4428 1338 
Q 4428 663 3972 331 
Q 3516 0 2584 0 
L 588 0 
L 588 4666 
L 2394 4666 
Q 3366 4666 3802 4372 
Q 4238 4078 4238 3431 
Q 4238 3091 4078 2852 
Q 3919 2613 3616 2497 
z
" transform="scale(0.015625)"/>
     </defs>
     <use xlink:href="#DejaVuSans-Bold-48"/>
     <use xlink:href="#DejaVuSans-Bold-65" x="83.691406"/>
     <use xlink:href="#DejaVuSans-Bold-72" x="151.513672"/>
     <use xlink:href="#DejaVuSans-Bold-6d" x="200.830078"/>
     <use xlink:href="#DejaVuSans-Bold-65" x="305.029297"/>
     <use xlink:href="#DejaVuSans-Bold-73" x="372.851562"/>
     <use xlink:href="#DejaVuSans-Bold-2d" x="432.373047"/>
     <use xlink:href="#DejaVuSans-Bold-32" x="473.876953"/>
     <use xlink:href="#DejaVuSans-Bold-2d" x="543.457031"/>
     <use xlink:href="#DejaVuSans-Bold-54" x="570.210938"/>
     <use xlink:href="#DejaVuSans-Bold-68" x="638.423828"/>
     <use xlink:href="#DejaVuSans-Bold-65" x="709.615234"/>
     <use xlink:href="#DejaVuSans-Bold-74" x="777.4375"/>
     <use xlink:href="#DejaVuSans-Bold-61" x="825.240234"/>
     <use xlink:href="#DejaVuSans-Bold-2d" x="892.720703"/>
     <use xlink:href="#DejaVuSans-Bold-4c" x="934.224609"/>
     <use xlink:href="#DejaVuSans-Bold-6c" x="997.945312"/>
     <use xlink:href="#DejaVuSans-Bold-61" x="1032.222656"/>
     <use xlink:href="#DejaVuSans-Bold-6d" x="1099.703125"/>
     <use xlink:href="#DejaVuSans-Bold-61" x="1203.902344"/>
     <use xlink:href="#DejaVuSans-Bold-2d" x="1271.382812"/>
     <use xlink:href="#DejaVuSans-Bold-33" x="1312.886719"/>
     <use xlink:href="#DejaVuSans-Bold-2d" x="1382.466797"/>
     <use xlink:href="#DejaVuSans-Bold-37" x="1423.970703"/>
     <use xlink:href="#DejaVuSans-Bold-30" x="1493.550781"/>
     <use xlink:href="#DejaVuSans-Bold-42" x="1563.130859"/>
    </g>
   </g>
   <g id="text_26">
    <g id="patch_14">
     <path d="M 295.488342 327.340121 
L 446.886779 327.340121 
L 446.886779 316.661996 
L 295.488342 316.661996 
z
" style="fill: #ffffff; opacity: 0.7"/>
    </g>
    <!-- Gemini-1.5-Flash-API-0514 -->
    <g style="opacity: 0.8" transform="translate(295.988342 324.760433) scale(0.1 -0.1)">
     <use xlink:href="#DejaVuSans-Bold-47"/>
     <use xlink:href="#DejaVuSans-Bold-65" x="82.080078"/>
     <use xlink:href="#DejaVuSans-Bold-6d" x="149.902344"/>
     <use xlink:href="#DejaVuSans-Bold-69" x="254.101562"/>
     <use xlink:href="#DejaVuSans-Bold-6e" x="288.378906"/>
     <use xlink:href="#DejaVuSans-Bold-69" x="359.570312"/>
     <use xlink:href="#DejaVuSans-Bold-2d" x="393.847656"/>
     <use xlink:href="#DejaVuSans-Bold-31" x="435.351562"/>
     <use xlink:href="#DejaVuSans-Bold-2e" x="504.931641"/>
     <use xlink:href="#DejaVuSans-Bold-35" x="542.919922"/>
     <use xlink:href="#DejaVuSans-Bold-2d" x="612.5"/>
     <use xlink:href="#DejaVuSans-Bold-46" x="654.003906"/>
     <use xlink:href="#DejaVuSans-Bold-6c" x="722.314453"/>
     <use xlink:href="#DejaVuSans-Bold-61" x="756.591797"/>
     <use xlink:href="#DejaVuSans-Bold-73" x="824.072266"/>
     <use xlink:href="#DejaVuSans-Bold-68" x="883.59375"/>
     <use xlink:href="#DejaVuSans-Bold-2d" x="954.785156"/>
     <use xlink:href="#DejaVuSans-Bold-41" x="996.289062"/>
     <use xlink:href="#DejaVuSans-Bold-50" x="1073.681641"/>
     <use xlink:href="#DejaVuSans-Bold-49" x="1146.972656"/>
     <use xlink:href="#DejaVuSans-Bold-2d" x="1184.179688"/>
     <use xlink:href="#DejaVuSans-Bold-30" x="1225.683594"/>
     <use xlink:href="#DejaVuSans-Bold-35" x="1295.263672"/>
     <use xlink:href="#DejaVuSans-Bold-31" x="1364.84375"/>
     <use xlink:href="#DejaVuSans-Bold-34" x="1434.423828"/>
    </g>
   </g>
   <g id="text_27">
    <g id="patch_15">
     <path d="M 291.645959 294.823992 
L 411.636584 294.823992 
L 411.636584 284.145867 
L 291.645959 284.145867 
z
" style="fill: #ffffff; opacity: 0.7"/>
    </g>
    <!-- Llama-3-70B-Instruct -->
    <g style="opacity: 0.8" transform="translate(292.145959 292.244304) scale(0.1 -0.1)">
     <use xlink:href="#DejaVuSans-Bold-4c"/>
     <use xlink:href="#DejaVuSans-Bold-6c" x="63.720703"/>
     <use xlink:href="#DejaVuSans-Bold-61" x="97.998047"/>
     <use xlink:href="#DejaVuSans-Bold-6d" x="165.478516"/>
     <use xlink:href="#DejaVuSans-Bold-61" x="269.677734"/>
     <use xlink:href="#DejaVuSans-Bold-2d" x="337.158203"/>
     <use xlink:href="#DejaVuSans-Bold-33" x="378.662109"/>
     <use xlink:href="#DejaVuSans-Bold-2d" x="448.242188"/>
     <use xlink:href="#DejaVuSans-Bold-37" x="489.746094"/>
     <use xlink:href="#DejaVuSans-Bold-30" x="559.326172"/>
     <use xlink:href="#DejaVuSans-Bold-42" x="628.90625"/>
     <use xlink:href="#DejaVuSans-Bold-2d" x="705.126953"/>
     <use xlink:href="#DejaVuSans-Bold-49" x="746.630859"/>
     <use xlink:href="#DejaVuSans-Bold-6e" x="783.837891"/>
     <use xlink:href="#DejaVuSans-Bold-73" x="855.029297"/>
     <use xlink:href="#DejaVuSans-Bold-74" x="914.550781"/>
     <use xlink:href="#DejaVuSans-Bold-72" x="962.353516"/>
     <use xlink:href="#DejaVuSans-Bold-75" x="1011.669922"/>
     <use xlink:href="#DejaVuSans-Bold-63" x="1082.861328"/>
     <use xlink:href="#DejaVuSans-Bold-74" x="1142.138672"/>
    </g>
   </g>
   <g id="text_28">
    <g id="patch_16">
     <path d="M 222.259242 333.843347 
L 376.776429 333.843347 
L 376.776429 323.165222 
L 222.259242 323.165222 
z
" style="fill: #ffffff; opacity: 0.7"/>
    </g>
    <!-- Claude-3-Sonnet-20240229 -->
    <g style="opacity: 0.8" transform="translate(222.759242 331.263659) scale(0.1 -0.1)">
     <use xlink:href="#DejaVuSans-Bold-43"/>
     <use xlink:href="#DejaVuSans-Bold-6c" x="73.388672"/>
     <use xlink:href="#DejaVuSans-Bold-61" x="107.666016"/>
     <use xlink:href="#DejaVuSans-Bold-75" x="175.146484"/>
     <use xlink:href="#DejaVuSans-Bold-64" x="246.337891"/>
     <use xlink:href="#DejaVuSans-Bold-65" x="317.919922"/>
     <use xlink:href="#DejaVuSans-Bold-2d" x="385.742188"/>
     <use xlink:href="#DejaVuSans-Bold-33" x="427.246094"/>
     <use xlink:href="#DejaVuSans-Bold-2d" x="496.826172"/>
     <use xlink:href="#DejaVuSans-Bold-53" x="538.330078"/>
     <use xlink:href="#DejaVuSans-Bold-6f" x="610.351562"/>
     <use xlink:href="#DejaVuSans-Bold-6e" x="679.052734"/>
     <use xlink:href="#DejaVuSans-Bold-6e" x="750.244141"/>
     <use xlink:href="#DejaVuSans-Bold-65" x="821.435547"/>
     <use xlink:href="#DejaVuSans-Bold-74" x="889.257812"/>
     <use xlink:href="#DejaVuSans-Bold-2d" x="937.060547"/>
     <use xlink:href="#DejaVuSans-Bold-32" x="978.564453"/>
     <use xlink:href="#DejaVuSans-Bold-30" x="1048.144531"/>
     <use xlink:href="#DejaVuSans-Bold-32" x="1117.724609"/>
     <use xlink:href="#DejaVuSans-Bold-34" x="1187.304688"/>
     <use xlink:href="#DejaVuSans-Bold-30" x="1256.884766"/>
     <use xlink:href="#DejaVuSans-Bold-32" x="1326.464844"/>
     <use xlink:href="#DejaVuSans-Bold-32" x="1396.044922"/>
     <use xlink:href="#DejaVuSans-Bold-39" x="1465.625"/>
    </g>
   </g>
   <g id="text_29">
    <g id="patch_17">
     <path d="M 192.129946 480.165927 
L 328.720571 480.165927 
L 328.720571 469.487802 
L 192.129946 469.487802 
z
" style="fill: #ffffff; opacity: 0.7"/>
    </g>
    <!-- ReflectionCoder-DS-33B -->
    <g style="opacity: 0.8" transform="translate(192.629946 477.58624) scale(0.1 -0.1)">
     <defs>
      <path id="DejaVuSans-Bold-52" d="M 2297 2597 
Q 2675 2597 2839 2737 
Q 3003 2878 3003 3200 
Q 3003 3519 2839 3656 
Q 2675 3794 2297 3794 
L 1791 3794 
L 1791 2597 
L 2297 2597 
z
M 1791 1766 
L 1791 0 
L 588 0 
L 588 4666 
L 2425 4666 
Q 3347 4666 3776 4356 
Q 4206 4047 4206 3378 
Q 4206 2916 3982 2619 
Q 3759 2322 3309 2181 
Q 3556 2125 3751 1926 
Q 3947 1728 4147 1325 
L 4800 0 
L 3519 0 
L 2950 1159 
Q 2778 1509 2601 1637 
Q 2425 1766 2131 1766 
L 1791 1766 
z
" transform="scale(0.015625)"/>
      <path id="DejaVuSans-Bold-66" d="M 2841 4863 
L 2841 4128 
L 2222 4128 
Q 1984 4128 1890 4042 
Q 1797 3956 1797 3744 
L 1797 3500 
L 2753 3500 
L 2753 2700 
L 1797 2700 
L 1797 0 
L 678 0 
L 678 2700 
L 122 2700 
L 122 3500 
L 678 3500 
L 678 3744 
Q 678 4316 997 4589 
Q 1316 4863 1984 4863 
L 2841 4863 
z
" transform="scale(0.015625)"/>
     </defs>
     <use xlink:href="#DejaVuSans-Bold-52"/>
     <use xlink:href="#DejaVuSans-Bold-65" x="77.001953"/>
     <use xlink:href="#DejaVuSans-Bold-66" x="144.824219"/>
     <use xlink:href="#DejaVuSans-Bold-6c" x="188.330078"/>
     <use xlink:href="#DejaVuSans-Bold-65" x="222.607422"/>
     <use xlink:href="#DejaVuSans-Bold-63" x="290.429688"/>
     <use xlink:href="#DejaVuSans-Bold-74" x="349.707031"/>
     <use xlink:href="#DejaVuSans-Bold-69" x="397.509766"/>
     <use xlink:href="#DejaVuSans-Bold-6f" x="431.787109"/>
     <use xlink:href="#DejaVuSans-Bold-6e" x="500.488281"/>
     <use xlink:href="#DejaVuSans-Bold-43" x="571.679688"/>
     <use xlink:href="#DejaVuSans-Bold-6f" x="645.068359"/>
     <use xlink:href="#DejaVuSans-Bold-64" x="713.769531"/>
     <use xlink:href="#DejaVuSans-Bold-65" x="785.351562"/>
     <use xlink:href="#DejaVuSans-Bold-72" x="853.173828"/>
     <use xlink:href="#DejaVuSans-Bold-2d" x="902.490234"/>
     <use xlink:href="#DejaVuSans-Bold-44" x="943.994141"/>
     <use xlink:href="#DejaVuSans-Bold-53" x="1027.001953"/>
     <use xlink:href="#DejaVuSans-Bold-2d" x="1099.023438"/>
     <use xlink:href="#DejaVuSans-Bold-33" x="1140.527344"/>
     <use xlink:href="#DejaVuSans-Bold-33" x="1210.107422"/>
     <use xlink:href="#DejaVuSans-Bold-42" x="1279.6875"/>
    </g>
   </g>
   <g id="text_30">
    <g id="patch_18">
     <path d="M 195.998696 444.398185 
L 324.851821 444.398185 
L 324.851821 433.72006 
L 195.998696 433.72006 
z
" style="fill: #ffffff; opacity: 0.7"/>
    </g>
    <!-- Gemma-2-27B-Instruct -->
    <g style="opacity: 0.8" transform="translate(196.498696 441.818498) scale(0.1 -0.1)">
     <use xlink:href="#DejaVuSans-Bold-47"/>
     <use xlink:href="#DejaVuSans-Bold-65" x="82.080078"/>
     <use xlink:href="#DejaVuSans-Bold-6d" x="149.902344"/>
     <use xlink:href="#DejaVuSans-Bold-6d" x="254.101562"/>
     <use xlink:href="#DejaVuSans-Bold-61" x="358.300781"/>
     <use xlink:href="#DejaVuSans-Bold-2d" x="425.78125"/>
     <use xlink:href="#DejaVuSans-Bold-32" x="467.285156"/>
     <use xlink:href="#DejaVuSans-Bold-2d" x="536.865234"/>
     <use xlink:href="#DejaVuSans-Bold-32" x="578.369141"/>
     <use xlink:href="#DejaVuSans-Bold-37" x="647.949219"/>
     <use xlink:href="#DejaVuSans-Bold-42" x="717.529297"/>
     <use xlink:href="#DejaVuSans-Bold-2d" x="793.75"/>
     <use xlink:href="#DejaVuSans-Bold-49" x="835.253906"/>
     <use xlink:href="#DejaVuSans-Bold-6e" x="872.460938"/>
     <use xlink:href="#DejaVuSans-Bold-73" x="943.652344"/>
     <use xlink:href="#DejaVuSans-Bold-74" x="1003.173828"/>
     <use xlink:href="#DejaVuSans-Bold-72" x="1050.976562"/>
     <use xlink:href="#DejaVuSans-Bold-75" x="1100.292969"/>
     <use xlink:href="#DejaVuSans-Bold-63" x="1171.484375"/>
     <use xlink:href="#DejaVuSans-Bold-74" x="1230.761719"/>
    </g>
   </g>
   <g id="text_31">
    <g id="patch_19">
     <path d="M 164.976432 545.198185 
L 225.565495 545.198185 
L 225.565495 534.52006 
L 164.976432 534.52006 
z
" style="fill: #ffffff; opacity: 0.7"/>
    </g>
    <!-- AutoCoder -->
    <g style="opacity: 0.8" transform="translate(165.476432 542.618498) scale(0.1 -0.1)">
     <use xlink:href="#DejaVuSans-Bold-41"/>
     <use xlink:href="#DejaVuSans-Bold-75" x="77.392578"/>
     <use xlink:href="#DejaVuSans-Bold-74" x="148.583984"/>
     <use xlink:href="#DejaVuSans-Bold-6f" x="196.386719"/>
     <use xlink:href="#DejaVuSans-Bold-43" x="265.087891"/>
     <use xlink:href="#DejaVuSans-Bold-6f" x="338.476562"/>
     <use xlink:href="#DejaVuSans-Bold-64" x="407.177734"/>
     <use xlink:href="#DejaVuSans-Bold-65" x="478.759766"/>
     <use xlink:href="#DejaVuSans-Bold-72" x="546.582031"/>
    </g>
   </g>
   <g id="text_32">
    <g id="patch_20">
     <path d="M 104.336003 470.411089 
L 273.175065 470.411089 
L 273.175065 459.732964 
L 104.336003 459.732964 
z
" style="fill: #ffffff; opacity: 0.7"/>
    </g>
    <!-- DeepSeek-Coder-33B-Instruct -->
    <g style="opacity: 0.8" transform="translate(104.836003 467.831401) scale(0.1 -0.1)">
     <use xlink:href="#DejaVuSans-Bold-44"/>
     <use xlink:href="#DejaVuSans-Bold-65" x="83.007812"/>
     <use xlink:href="#DejaVuSans-Bold-65" x="150.830078"/>
     <use xlink:href="#DejaVuSans-Bold-70" x="218.652344"/>
     <use xlink:href="#DejaVuSans-Bold-53" x="290.234375"/>
     <use xlink:href="#DejaVuSans-Bold-65" x="362.255859"/>
     <use xlink:href="#DejaVuSans-Bold-65" x="430.078125"/>
     <use xlink:href="#DejaVuSans-Bold-6b" x="497.900391"/>
     <use xlink:href="#DejaVuSans-Bold-2d" x="564.404297"/>
     <use xlink:href="#DejaVuSans-Bold-43" x="605.908203"/>
     <use xlink:href="#DejaVuSans-Bold-6f" x="679.296875"/>
     <use xlink:href="#DejaVuSans-Bold-64" x="747.998047"/>
     <use xlink:href="#DejaVuSans-Bold-65" x="819.580078"/>
     <use xlink:href="#DejaVuSans-Bold-72" x="887.402344"/>
     <use xlink:href="#DejaVuSans-Bold-2d" x="936.71875"/>
     <use xlink:href="#DejaVuSans-Bold-33" x="978.222656"/>
     <use xlink:href="#DejaVuSans-Bold-33" x="1047.802734"/>
     <use xlink:href="#DejaVuSans-Bold-42" x="1117.382812"/>
     <use xlink:href="#DejaVuSans-Bold-2d" x="1193.603516"/>
     <use xlink:href="#DejaVuSans-Bold-49" x="1235.107422"/>
     <use xlink:href="#DejaVuSans-Bold-6e" x="1272.314453"/>
     <use xlink:href="#DejaVuSans-Bold-73" x="1343.505859"/>
     <use xlink:href="#DejaVuSans-Bold-74" x="1403.027344"/>
     <use xlink:href="#DejaVuSans-Bold-72" x="1450.830078"/>
     <use xlink:href="#DejaVuSans-Bold-75" x="1500.146484"/>
     <use xlink:href="#DejaVuSans-Bold-63" x="1571.337891"/>
     <use xlink:href="#DejaVuSans-Bold-74" x="1630.615234"/>
    </g>
   </g>
   <g id="text_33">
    <g id="patch_21">
     <path d="M 121.497526 424.888508 
L 216.920964 424.888508 
L 216.920964 414.210383 
L 121.497526 414.210383 
z
" style="fill: #ffffff; opacity: 0.7"/>
    </g>
    <!-- Qwen2-72B-Chat -->
    <g style="opacity: 0.8" transform="translate(121.997526 422.308821) scale(0.1 -0.1)">
     <defs>
      <path id="DejaVuSans-Bold-51" d="M 2847 -84 
L 2753 -84 
Q 1600 -84 959 553 
Q 319 1191 319 2328 
Q 319 3463 958 4106 
Q 1597 4750 2719 4750 
Q 3853 4750 4486 4112 
Q 5119 3475 5119 2328 
Q 5119 1541 4783 972 
Q 4447 403 3816 116 
L 4756 -934 
L 3609 -934 
L 2847 -84 
z
M 2719 3878 
Q 2169 3878 1866 3472 
Q 1563 3066 1563 2328 
Q 1563 1578 1859 1179 
Q 2156 781 2719 781 
Q 3272 781 3575 1187 
Q 3878 1594 3878 2328 
Q 3878 3066 3575 3472 
Q 3272 3878 2719 3878 
z
" transform="scale(0.015625)"/>
      <path id="DejaVuSans-Bold-77" d="M 225 3500 
L 1313 3500 
L 1900 1088 
L 2491 3500 
L 3425 3500 
L 4013 1113 
L 4603 3500 
L 5691 3500 
L 4769 0 
L 3547 0 
L 2956 2406 
L 2369 0 
L 1147 0 
L 225 3500 
z
" transform="scale(0.015625)"/>
     </defs>
     <use xlink:href="#DejaVuSans-Bold-51"/>
     <use xlink:href="#DejaVuSans-Bold-77" x="85.009766"/>
     <use xlink:href="#DejaVuSans-Bold-65" x="177.392578"/>
     <use xlink:href="#DejaVuSans-Bold-6e" x="245.214844"/>
     <use xlink:href="#DejaVuSans-Bold-32" x="316.40625"/>
     <use xlink:href="#DejaVuSans-Bold-2d" x="385.986328"/>
     <use xlink:href="#DejaVuSans-Bold-37" x="427.490234"/>
     <use xlink:href="#DejaVuSans-Bold-32" x="497.070312"/>
     <use xlink:href="#DejaVuSans-Bold-42" x="566.650391"/>
     <use xlink:href="#DejaVuSans-Bold-2d" x="642.871094"/>
     <use xlink:href="#DejaVuSans-Bold-43" x="684.375"/>
     <use xlink:href="#DejaVuSans-Bold-68" x="757.763672"/>
     <use xlink:href="#DejaVuSans-Bold-61" x="828.955078"/>
     <use xlink:href="#DejaVuSans-Bold-74" x="896.435547"/>
    </g>
   </g>
   <g id="text_34">
    <g id="patch_22">
     <path d="M 73.018425 392.372379 
L 226.307488 392.372379 
L 226.307488 381.694254 
L 73.018425 381.694254 
z
" style="fill: #ffffff; opacity: 0.7"/>
    </g>
    <!-- Hermes-2-Pro-Llama-3-70B -->
    <g style="opacity: 0.8" transform="translate(73.518425 389.792692) scale(0.1 -0.1)">
     <use xlink:href="#DejaVuSans-Bold-48"/>
     <use xlink:href="#DejaVuSans-Bold-65" x="83.691406"/>
     <use xlink:href="#DejaVuSans-Bold-72" x="151.513672"/>
     <use xlink:href="#DejaVuSans-Bold-6d" x="200.830078"/>
     <use xlink:href="#DejaVuSans-Bold-65" x="305.029297"/>
     <use xlink:href="#DejaVuSans-Bold-73" x="372.851562"/>
     <use xlink:href="#DejaVuSans-Bold-2d" x="432.373047"/>
     <use xlink:href="#DejaVuSans-Bold-32" x="473.876953"/>
     <use xlink:href="#DejaVuSans-Bold-2d" x="543.457031"/>
     <use xlink:href="#DejaVuSans-Bold-50" x="584.960938"/>
     <use xlink:href="#DejaVuSans-Bold-72" x="658.251953"/>
     <use xlink:href="#DejaVuSans-Bold-6f" x="707.568359"/>
     <use xlink:href="#DejaVuSans-Bold-2d" x="776.269531"/>
     <use xlink:href="#DejaVuSans-Bold-4c" x="817.773438"/>
     <use xlink:href="#DejaVuSans-Bold-6c" x="881.494141"/>
     <use xlink:href="#DejaVuSans-Bold-61" x="915.771484"/>
     <use xlink:href="#DejaVuSans-Bold-6d" x="983.251953"/>
     <use xlink:href="#DejaVuSans-Bold-61" x="1087.451172"/>
     <use xlink:href="#DejaVuSans-Bold-2d" x="1154.931641"/>
     <use xlink:href="#DejaVuSans-Bold-33" x="1196.435547"/>
     <use xlink:href="#DejaVuSans-Bold-2d" x="1266.015625"/>
     <use xlink:href="#DejaVuSans-Bold-37" x="1307.519531"/>
     <use xlink:href="#DejaVuSans-Bold-30" x="1377.099609"/>
     <use xlink:href="#DejaVuSans-Bold-42" x="1446.679688"/>
    </g>
   </g>
   <g id="text_35">
    <g id="patch_23">
     <path d="M 52.940497 447.649798 
L 181.231122 447.649798 
L 181.231122 436.971673 
L 52.940497 436.971673 
z
" style="fill: #ffffff; opacity: 0.7"/>
    </g>
    <!-- Mixtral-8x22B-Instruct -->
    <g style="opacity: 0.8" transform="translate(53.440497 445.070111) scale(0.1 -0.1)">
     <defs>
      <path id="DejaVuSans-Bold-4d" d="M 588 4666 
L 2119 4666 
L 3181 2169 
L 4250 4666 
L 5778 4666 
L 5778 0 
L 4641 0 
L 4641 3413 
L 3566 897 
L 2803 897 
L 1728 3413 
L 1728 0 
L 588 0 
L 588 4666 
z
" transform="scale(0.015625)"/>
      <path id="DejaVuSans-Bold-78" d="M 1422 1791 
L 159 3500 
L 1344 3500 
L 2059 2463 
L 2784 3500 
L 3969 3500 
L 2706 1797 
L 4031 0 
L 2847 0 
L 2059 1106 
L 1281 0 
L 97 0 
L 1422 1791 
z
" transform="scale(0.015625)"/>
     </defs>
     <use xlink:href="#DejaVuSans-Bold-4d"/>
     <use xlink:href="#DejaVuSans-Bold-69" x="99.511719"/>
     <use xlink:href="#DejaVuSans-Bold-78" x="133.789062"/>
     <use xlink:href="#DejaVuSans-Bold-74" x="198.291016"/>
     <use xlink:href="#DejaVuSans-Bold-72" x="246.09375"/>
     <use xlink:href="#DejaVuSans-Bold-61" x="295.410156"/>
     <use xlink:href="#DejaVuSans-Bold-6c" x="362.890625"/>
     <use xlink:href="#DejaVuSans-Bold-2d" x="397.167969"/>
     <use xlink:href="#DejaVuSans-Bold-38" x="438.671875"/>
     <use xlink:href="#DejaVuSans-Bold-78" x="508.251953"/>
     <use xlink:href="#DejaVuSans-Bold-32" x="572.753906"/>
     <use xlink:href="#DejaVuSans-Bold-32" x="642.333984"/>
     <use xlink:href="#DejaVuSans-Bold-42" x="711.914062"/>
     <use xlink:href="#DejaVuSans-Bold-2d" x="788.134766"/>
     <use xlink:href="#DejaVuSans-Bold-49" x="829.638672"/>
     <use xlink:href="#DejaVuSans-Bold-6e" x="866.845703"/>
     <use xlink:href="#DejaVuSans-Bold-73" x="938.037109"/>
     <use xlink:href="#DejaVuSans-Bold-74" x="997.558594"/>
     <use xlink:href="#DejaVuSans-Bold-72" x="1045.361328"/>
     <use xlink:href="#DejaVuSans-Bold-75" x="1094.677734"/>
     <use xlink:href="#DejaVuSans-Bold-63" x="1165.869141"/>
     <use xlink:href="#DejaVuSans-Bold-74" x="1225.146484"/>
    </g>
   </g>
   <g id="text_36">
    <g id="patch_24">
     <path d="M 35.538544 655.753024 
L 172.571356 655.753024 
L 172.571356 645.074899 
L 35.538544 645.074899 
z
" style="fill: #ffffff; opacity: 0.7"/>
    </g>
    <!-- CodeLlama-70B-Instruct -->
    <g style="opacity: 0.8" transform="translate(36.038544 653.173337) scale(0.1 -0.1)">
     <use xlink:href="#DejaVuSans-Bold-43"/>
     <use xlink:href="#DejaVuSans-Bold-6f" x="73.388672"/>
     <use xlink:href="#DejaVuSans-Bold-64" x="142.089844"/>
     <use xlink:href="#DejaVuSans-Bold-65" x="213.671875"/>
     <use xlink:href="#DejaVuSans-Bold-4c" x="281.494141"/>
     <use xlink:href="#DejaVuSans-Bold-6c" x="345.214844"/>
     <use xlink:href="#DejaVuSans-Bold-61" x="379.492188"/>
     <use xlink:href="#DejaVuSans-Bold-6d" x="446.972656"/>
     <use xlink:href="#DejaVuSans-Bold-61" x="551.171875"/>
     <use xlink:href="#DejaVuSans-Bold-2d" x="618.652344"/>
     <use xlink:href="#DejaVuSans-Bold-37" x="660.15625"/>
     <use xlink:href="#DejaVuSans-Bold-30" x="729.736328"/>
     <use xlink:href="#DejaVuSans-Bold-42" x="799.316406"/>
     <use xlink:href="#DejaVuSans-Bold-2d" x="875.537109"/>
     <use xlink:href="#DejaVuSans-Bold-49" x="917.041016"/>
     <use xlink:href="#DejaVuSans-Bold-6e" x="954.248047"/>
     <use xlink:href="#DejaVuSans-Bold-73" x="1025.439453"/>
     <use xlink:href="#DejaVuSans-Bold-74" x="1084.960938"/>
     <use xlink:href="#DejaVuSans-Bold-72" x="1132.763672"/>
     <use xlink:href="#DejaVuSans-Bold-75" x="1182.080078"/>
     <use xlink:href="#DejaVuSans-Bold-63" x="1253.271484"/>
     <use xlink:href="#DejaVuSans-Bold-74" x="1312.548828"/>
    </g>
   </g>
   <g id="text_37">
    <!-- Model Performance (Complete + Instruct) -->
    <g transform="translate(228.968125 20.877187) scale(0.18 -0.18)">
     <defs>
      <path id="DejaVuSans-Bold-2b" d="M 3053 4013 
L 3053 2375 
L 4684 2375 
L 4684 1638 
L 3053 1638 
L 3053 0 
L 2309 0 
L 2309 1638 
L 678 1638 
L 678 2375 
L 2309 2375 
L 2309 4013 
L 3053 4013 
z
" transform="scale(0.015625)"/>
     </defs>
     <use xlink:href="#DejaVuSans-Bold-4d"/>
     <use xlink:href="#DejaVuSans-Bold-6f" x="99.511719"/>
     <use xlink:href="#DejaVuSans-Bold-64" x="168.212891"/>
     <use xlink:href="#DejaVuSans-Bold-65" x="239.794922"/>
     <use xlink:href="#DejaVuSans-Bold-6c" x="307.617188"/>
     <use xlink:href="#DejaVuSans-Bold-20" x="341.894531"/>
     <use xlink:href="#DejaVuSans-Bold-50" x="376.708984"/>
     <use xlink:href="#DejaVuSans-Bold-65" x="450"/>
     <use xlink:href="#DejaVuSans-Bold-72" x="517.822266"/>
     <use xlink:href="#DejaVuSans-Bold-66" x="567.138672"/>
     <use xlink:href="#DejaVuSans-Bold-6f" x="610.644531"/>
     <use xlink:href="#DejaVuSans-Bold-72" x="679.345703"/>
     <use xlink:href="#DejaVuSans-Bold-6d" x="728.662109"/>
     <use xlink:href="#DejaVuSans-Bold-61" x="832.861328"/>
     <use xlink:href="#DejaVuSans-Bold-6e" x="900.341797"/>
     <use xlink:href="#DejaVuSans-Bold-63" x="971.533203"/>
     <use xlink:href="#DejaVuSans-Bold-65" x="1030.810547"/>
     <use xlink:href="#DejaVuSans-Bold-20" x="1098.632812"/>
     <use xlink:href="#DejaVuSans-Bold-28" x="1133.447266"/>
     <use xlink:href="#DejaVuSans-Bold-43" x="1179.150391"/>
     <use xlink:href="#DejaVuSans-Bold-6f" x="1252.539062"/>
     <use xlink:href="#DejaVuSans-Bold-6d" x="1321.240234"/>
     <use xlink:href="#DejaVuSans-Bold-70" x="1425.439453"/>
     <use xlink:href="#DejaVuSans-Bold-6c" x="1497.021484"/>
     <use xlink:href="#DejaVuSans-Bold-65" x="1531.298828"/>
     <use xlink:href="#DejaVuSans-Bold-74" x="1599.121094"/>
     <use xlink:href="#DejaVuSans-Bold-65" x="1646.923828"/>
     <use xlink:href="#DejaVuSans-Bold-20" x="1714.746094"/>
     <use xlink:href="#DejaVuSans-Bold-2b" x="1749.560547"/>
     <use xlink:href="#DejaVuSans-Bold-20" x="1833.349609"/>
     <use xlink:href="#DejaVuSans-Bold-49" x="1868.164062"/>
     <use xlink:href="#DejaVuSans-Bold-6e" x="1905.371094"/>
     <use xlink:href="#DejaVuSans-Bold-73" x="1976.5625"/>
     <use xlink:href="#DejaVuSans-Bold-74" x="2036.083984"/>
     <use xlink:href="#DejaVuSans-Bold-72" x="2083.886719"/>
     <use xlink:href="#DejaVuSans-Bold-75" x="2133.203125"/>
     <use xlink:href="#DejaVuSans-Bold-63" x="2204.394531"/>
     <use xlink:href="#DejaVuSans-Bold-74" x="2263.671875"/>
     <use xlink:href="#DejaVuSans-Bold-29" x="2311.474609"/>
    </g>
   </g>
   <g id="legend_1">
    <g id="patch_25">
     <path d="M 702.311875 686.157187 
L 823.315 686.157187 
Q 825.715 686.157187 825.715 683.757187 
L 825.715 612.566562 
Q 825.715 610.166562 823.315 610.166562 
L 702.311875 610.166562 
Q 699.911875 610.166562 699.911875 612.566562 
L 699.911875 683.757187 
Q 699.911875 686.157187 702.311875 686.157187 
z
" style="fill: #ffffff; opacity: 0.8; stroke: #cccccc; stroke-linejoin: miter"/>
    </g>
    <g id="text_38">
     <!-- Model Type -->
     <g transform="translate(723.494219 625.604375) scale(0.14 -0.14)">
      <defs>
       <path id="DejaVuSans-4d" d="M 628 4666 
L 1569 4666 
L 2759 1491 
L 3956 4666 
L 4897 4666 
L 4897 0 
L 4281 0 
L 4281 4097 
L 3078 897 
L 2444 897 
L 1241 4097 
L 1241 0 
L 628 0 
L 628 4666 
z
" transform="scale(0.015625)"/>
       <path id="DejaVuSans-6f" d="M 1959 3097 
Q 1497 3097 1228 2736 
Q 959 2375 959 1747 
Q 959 1119 1226 758 
Q 1494 397 1959 397 
Q 2419 397 2687 759 
Q 2956 1122 2956 1747 
Q 2956 2369 2687 2733 
Q 2419 3097 1959 3097 
z
M 1959 3584 
Q 2709 3584 3137 3096 
Q 3566 2609 3566 1747 
Q 3566 888 3137 398 
Q 2709 -91 1959 -91 
Q 1206 -91 779 398 
Q 353 888 353 1747 
Q 353 2609 779 3096 
Q 1206 3584 1959 3584 
z
" transform="scale(0.015625)"/>
       <path id="DejaVuSans-64" d="M 2906 2969 
L 2906 4863 
L 3481 4863 
L 3481 0 
L 2906 0 
L 2906 525 
Q 2725 213 2448 61 
Q 2172 -91 1784 -91 
Q 1150 -91 751 415 
Q 353 922 353 1747 
Q 353 2572 751 3078 
Q 1150 3584 1784 3584 
Q 2172 3584 2448 3432 
Q 2725 3281 2906 2969 
z
M 947 1747 
Q 947 1113 1208 752 
Q 1469 391 1925 391 
Q 2381 391 2643 752 
Q 2906 1113 2906 1747 
Q 2906 2381 2643 2742 
Q 2381 3103 1925 3103 
Q 1469 3103 1208 2742 
Q 947 2381 947 1747 
z
" transform="scale(0.015625)"/>
       <path id="DejaVuSans-65" d="M 3597 1894 
L 3597 1613 
L 953 1613 
Q 991 1019 1311 708 
Q 1631 397 2203 397 
Q 2534 397 2845 478 
Q 3156 559 3463 722 
L 3463 178 
Q 3153 47 2828 -22 
Q 2503 -91 2169 -91 
Q 1331 -91 842 396 
Q 353 884 353 1716 
Q 353 2575 817 3079 
Q 1281 3584 2069 3584 
Q 2775 3584 3186 3129 
Q 3597 2675 3597 1894 
z
M 3022 2063 
Q 3016 2534 2758 2815 
Q 2500 3097 2075 3097 
Q 1594 3097 1305 2825 
Q 1016 2553 972 2059 
L 3022 2063 
z
" transform="scale(0.015625)"/>
       <path id="DejaVuSans-6c" d="M 603 4863 
L 1178 4863 
L 1178 0 
L 603 0 
L 603 4863 
z
" transform="scale(0.015625)"/>
       <path id="DejaVuSans-20" transform="scale(0.015625)"/>
       <path id="DejaVuSans-54" d="M -19 4666 
L 3928 4666 
L 3928 4134 
L 2272 4134 
L 2272 0 
L 1638 0 
L 1638 4134 
L -19 4134 
L -19 4666 
z
" transform="scale(0.015625)"/>
       <path id="DejaVuSans-79" d="M 2059 -325 
Q 1816 -950 1584 -1140 
Q 1353 -1331 966 -1331 
L 506 -1331 
L 506 -850 
L 844 -850 
Q 1081 -850 1212 -737 
Q 1344 -625 1503 -206 
L 1606 56 
L 191 3500 
L 800 3500 
L 1894 763 
L 2988 3500 
L 3597 3500 
L 2059 -325 
z
" transform="scale(0.015625)"/>
       <path id="DejaVuSans-70" d="M 1159 525 
L 1159 -1331 
L 581 -1331 
L 581 3500 
L 1159 3500 
L 1159 2969 
Q 1341 3281 1617 3432 
Q 1894 3584 2278 3584 
Q 2916 3584 3314 3078 
Q 3713 2572 3713 1747 
Q 3713 922 3314 415 
Q 2916 -91 2278 -91 
Q 1894 -91 1617 61 
Q 1341 213 1159 525 
z
M 3116 1747 
Q 3116 2381 2855 2742 
Q 2594 3103 2138 3103 
Q 1681 3103 1420 2742 
Q 1159 2381 1159 1747 
Q 1159 1113 1420 752 
Q 1681 391 2138 391 
Q 2594 391 2855 752 
Q 3116 1113 3116 1747 
z
" transform="scale(0.015625)"/>
      </defs>
      <use xlink:href="#DejaVuSans-4d"/>
      <use xlink:href="#DejaVuSans-6f" x="86.279297"/>
      <use xlink:href="#DejaVuSans-64" x="147.460938"/>
      <use xlink:href="#DejaVuSans-65" x="210.9375"/>
      <use xlink:href="#DejaVuSans-6c" x="272.460938"/>
      <use xlink:href="#DejaVuSans-20" x="300.244141"/>
      <use xlink:href="#DejaVuSans-54" x="332.03125"/>
      <use xlink:href="#DejaVuSans-79" x="377.490234"/>
      <use xlink:href="#DejaVuSans-70" x="436.669922"/>
      <use xlink:href="#DejaVuSans-65" x="500.146484"/>
     </g>
    </g>
    <g id="PathCollection_4">
     <g>
      <use xlink:href="#maba3729bf0" x="716.711875" y="640.484063" style="fill: #a9cce3; fill-opacity: 0.7; stroke: #a9cce3; stroke-opacity: 0.7"/>
     </g>
    </g>
    <g id="text_39">
     <!-- API -->
     <g transform="translate(738.311875 643.634063) scale(0.12 -0.12)">
      <defs>
       <path id="DejaVuSans-41" d="M 2188 4044 
L 1331 1722 
L 3047 1722 
L 2188 4044 
z
M 1831 4666 
L 2547 4666 
L 4325 0 
L 3669 0 
L 3244 1197 
L 1141 1197 
L 716 0 
L 50 0 
L 1831 4666 
z
" transform="scale(0.015625)"/>
       <path id="DejaVuSans-50" d="M 1259 4147 
L 1259 2394 
L 2053 2394 
Q 2494 2394 2734 2622 
Q 2975 2850 2975 3272 
Q 2975 3691 2734 3919 
Q 2494 4147 2053 4147 
L 1259 4147 
z
M 628 4666 
L 2053 4666 
Q 2838 4666 3239 4311 
Q 3641 3956 3641 3272 
Q 3641 2581 3239 2228 
Q 2838 1875 2053 1875 
L 1259 1875 
L 1259 0 
L 628 0 
L 628 4666 
z
" transform="scale(0.015625)"/>
       <path id="DejaVuSans-49" d="M 628 4666 
L 1259 4666 
L 1259 0 
L 628 0 
L 628 4666 
z
" transform="scale(0.015625)"/>
      </defs>
      <use xlink:href="#DejaVuSans-41"/>
      <use xlink:href="#DejaVuSans-50" x="68.408203"/>
      <use xlink:href="#DejaVuSans-49" x="128.710938"/>
     </g>
    </g>
    <g id="PathCollection_5">
     <g>
      <use xlink:href="#mdcb50278e9" x="716.711875" y="658.097813" style="fill: #a9dfbf; fill-opacity: 0.7; stroke: #a9dfbf; stroke-opacity: 0.7"/>
     </g>
    </g>
    <g id="text_40">
     <!-- Open ( 35B) -->
     <g transform="translate(738.311875 661.247813) scale(0.12 -0.12)">
      <defs>
       <path id="DejaVuSans-4f" d="M 2522 4238 
Q 1834 4238 1429 3725 
Q 1025 3213 1025 2328 
Q 1025 1447 1429 934 
Q 1834 422 2522 422 
Q 3209 422 3611 934 
Q 4013 1447 4013 2328 
Q 4013 3213 3611 3725 
Q 3209 4238 2522 4238 
z
M 2522 4750 
Q 3503 4750 4090 4092 
Q 4678 3434 4678 2328 
Q 4678 1225 4090 567 
Q 3503 -91 2522 -91 
Q 1538 -91 948 565 
Q 359 1222 359 2328 
Q 359 3434 948 4092 
Q 1538 4750 2522 4750 
z
" transform="scale(0.015625)"/>
       <path id="DejaVuSans-6e" d="M 3513 2113 
L 3513 0 
L 2938 0 
L 2938 2094 
Q 2938 2591 2744 2837 
Q 2550 3084 2163 3084 
Q 1697 3084 1428 2787 
Q 1159 2491 1159 1978 
L 1159 0 
L 581 0 
L 581 3500 
L 1159 3500 
L 1159 2956 
Q 1366 3272 1645 3428 
Q 1925 3584 2291 3584 
Q 2894 3584 3203 3211 
Q 3513 2838 3513 2113 
z
" transform="scale(0.015625)"/>
       <path id="DejaVuSans-28" d="M 1984 4856 
Q 1566 4138 1362 3434 
Q 1159 2731 1159 2009 
Q 1159 1288 1364 580 
Q 1569 -128 1984 -844 
L 1484 -844 
Q 1016 -109 783 600 
Q 550 1309 550 2009 
Q 550 2706 781 3412 
Q 1013 4119 1484 4856 
L 1984 4856 
z
" transform="scale(0.015625)"/>
       <path id="DejaVuSans-2264" d="M 4684 3175 
L 1684 2309 
L 4684 1453 
L 4684 897 
L 678 2047 
L 678 2578 
L 4684 3725 
L 4684 3175 
z
M 678 531 
L 4684 531 
L 4684 0 
L 678 0 
L 678 531 
z
" transform="scale(0.015625)"/>
       <path id="DejaVuSans-42" d="M 1259 2228 
L 1259 519 
L 2272 519 
Q 2781 519 3026 730 
Q 3272 941 3272 1375 
Q 3272 1813 3026 2020 
Q 2781 2228 2272 2228 
L 1259 2228 
z
M 1259 4147 
L 1259 2741 
L 2194 2741 
Q 2656 2741 2882 2914 
Q 3109 3088 3109 3444 
Q 3109 3797 2882 3972 
Q 2656 4147 2194 4147 
L 1259 4147 
z
M 628 4666 
L 2241 4666 
Q 2963 4666 3353 4366 
Q 3744 4066 3744 3513 
Q 3744 3084 3544 2831 
Q 3344 2578 2956 2516 
Q 3422 2416 3680 2098 
Q 3938 1781 3938 1306 
Q 3938 681 3513 340 
Q 3088 0 2303 0 
L 628 0 
L 628 4666 
z
" transform="scale(0.015625)"/>
       <path id="DejaVuSans-29" d="M 513 4856 
L 1013 4856 
Q 1481 4119 1714 3412 
Q 1947 2706 1947 2009 
Q 1947 1309 1714 600 
Q 1481 -109 1013 -844 
L 513 -844 
Q 928 -128 1133 580 
Q 1338 1288 1338 2009 
Q 1338 2731 1133 3434 
Q 928 4138 513 4856 
z
" transform="scale(0.015625)"/>
      </defs>
      <use xlink:href="#DejaVuSans-4f"/>
      <use xlink:href="#DejaVuSans-70" x="78.710938"/>
      <use xlink:href="#DejaVuSans-65" x="142.1875"/>
      <use xlink:href="#DejaVuSans-6e" x="203.710938"/>
      <use xlink:href="#DejaVuSans-20" x="267.089844"/>
      <use xlink:href="#DejaVuSans-28" x="298.876953"/>
      <use xlink:href="#DejaVuSans-2264" x="337.890625"/>
      <use xlink:href="#DejaVuSans-20" x="421.679688"/>
      <use xlink:href="#DejaVuSans-33" x="453.466797"/>
      <use xlink:href="#DejaVuSans-35" x="517.089844"/>
      <use xlink:href="#DejaVuSans-42" x="580.712891"/>
      <use xlink:href="#DejaVuSans-29" x="649.316406"/>
     </g>
    </g>
    <g id="PathCollection_6">
     <g>
      <use xlink:href="#mfe67035bdb" x="716.711875" y="675.711563" style="fill: #f5b7b1; fill-opacity: 0.7; stroke: #f5b7b1; stroke-opacity: 0.7"/>
     </g>
    </g>
    <g id="text_41">
     <!-- Open (&gt; 35B) -->
     <g transform="translate(738.311875 678.861562) scale(0.12 -0.12)">
      <defs>
       <path id="DejaVuSans-3e" d="M 678 3150 
L 678 3719 
L 4684 2266 
L 4684 1747 
L 678 294 
L 678 863 
L 3897 2003 
L 678 3150 
z
" transform="scale(0.015625)"/>
      </defs>
      <use xlink:href="#DejaVuSans-4f"/>
      <use xlink:href="#DejaVuSans-70" x="78.710938"/>
      <use xlink:href="#DejaVuSans-65" x="142.1875"/>
      <use xlink:href="#DejaVuSans-6e" x="203.710938"/>
      <use xlink:href="#DejaVuSans-20" x="267.089844"/>
      <use xlink:href="#DejaVuSans-28" x="298.876953"/>
      <use xlink:href="#DejaVuSans-3e" x="337.890625"/>
      <use xlink:href="#DejaVuSans-20" x="421.679688"/>
      <use xlink:href="#DejaVuSans-33" x="453.466797"/>
      <use xlink:href="#DejaVuSans-35" x="517.089844"/>
      <use xlink:href="#DejaVuSans-42" x="580.712891"/>
      <use xlink:href="#DejaVuSans-29" x="649.316406"/>
     </g>
    </g>
   </g>
  </g>
 </g>
 <defs>
  <clipPath id="pbc5a114f84">
   <rect x="50.515" y="26.877187" width="781.2" height="665.28"/>
  </clipPath>
 </defs>
</svg>
